<!DOCTYPE svg PUBLIC "-//W3C//DTD SVG 1.1//EN" "http://www.w3.org/Graphics/SVG/1.1/DTD/svg11.dtd">
<!-- Uploaded to: SVG Repo, www.svgrepo.com, Transformed by: SVG Repo Mixer Tools -->
<svg height="256px" width="256px" version="1.1" id="Layer_1" xmlns="http://www.w3.org/2000/svg" xmlns:xlink="http://www.w3.org/1999/xlink" viewBox="0 0 392.533 392.533" xml:space="preserve" fill="#3F51B5" stroke="#3F51B5">
<g id="SVGRepo_bgCarrier" stroke-width="0"/>
<g id="SVGRepo_tracerCarrier" stroke-linecap="round" stroke-linejoin="round"/>
<g id="SVGRepo_iconCarrier"> <path style="fill:#FFFFFF;" d="M253.996,215.208v-25.212c0-31.806-25.859-57.729-57.729-57.729s-57.729,25.859-57.729,57.729 c0.388,8.469,0.453,16.614,0.129,24.501c-1.745,42.667-14.481,76.283-38.012,100.848c-5.042,5.947-0.711,13.317,5.56,13.317h180.105 c7.046,0.129,9.956-8.145,5.56-13.317C267.442,287.677,253.996,252.121,253.996,215.208z"/> <path style="fill:#FFC10D;" d="M232.145,215.208v-25.212c0-19.782-16.162-35.943-35.943-35.943s-35.943,16.097-35.943,35.943v9.374 h28.121c6.012,0,10.925,4.848,10.925,10.925c0,6.012-4.848,10.925-10.925,10.925H160c-0.129,4.396-0.453,8.857-0.905,13.188h13.446 c6.012,0,10.925,4.848,10.925,10.925c0,6.012-4.848,10.925-10.925,10.925h-17.261c-4.331,17.842-11.442,34.909-21.204,50.618 h124.251C241.325,279.467,232.145,247.79,232.145,215.208z"/> <g> <path style="fill:#1;" d="M28.121,161.099c4.267-4.267,11.119-4.267,15.451,0c4.267,4.267,4.267,11.119,0,15.451 c-28.962,28.962-28.962,76.089,0,105.115c4.267,4.267,4.267,11.119,0,15.451c-5.689,4.461-10.796,4.008-15.451,0 C-9.374,259.556-9.374,198.594,28.121,161.099z"/> <path style="fill:#1;" d="M59.216,192.129c4.267-4.267,11.119-4.267,15.451,0c4.267,4.267,4.267,11.119,0,15.451 c-11.83,11.83-11.83,31.095,0,42.861c4.267,4.267,4.267,11.119,0,15.451c-5.107,4.655-12.218,3.232-15.451,0 C38.853,245.527,38.853,212.493,59.216,192.129z"/> <path style="fill:#1;" d="M364.412,161.099c-4.267-4.267-11.119-4.267-15.451,0c-4.267,4.267-4.267,11.119,0,15.451 c28.962,28.962,28.962,76.089,0,105.115c-4.267,4.267-4.267,11.119,0,15.451c5.689,4.461,10.796,4.008,15.451,0 C401.907,259.556,401.907,198.594,364.412,161.099z"/> <path style="fill:#1;" d="M333.317,192.129c-4.267-4.267-11.119-4.267-15.451,0c-4.267,4.267-4.267,11.119,0,15.451 c11.83,11.83,11.83,31.095,0,42.861c-4.267,4.267-4.267,11.119,0,15.451c5.107,4.655,12.218,3.232,15.451,0 C353.681,245.527,353.681,212.493,333.317,192.129z"/> <path style="fill:#1;" d="M308.234,300.865c-20.945-23.661-32.453-54.109-32.453-85.721v-25.212 c0-31.547-18.554-58.828-45.188-71.628c2.069-10.925,3.168-22.82,3.168-34.974C233.762,43.248,221.996,0,196.267,0 s-37.495,43.184-37.495,83.329c0,12.283,1.099,24.178,3.168,34.974c-26.764,12.8-45.188,40.081-45.188,71.628v25.212 c0,31.612-11.507,62.061-32.453,85.721c-17.067,20.299-3.232,48.743,21.851,49.519h47.709c0.065,10.99,4.331,21.786,12.283,29.737 c8.016,8.016,18.683,12.412,30.061,12.412c11.378,0,22.044-4.396,30.061-12.412c7.952-7.952,12.218-18.747,12.283-29.737h47.709 C313.277,350.384,324.59,318.061,308.234,300.865z M196.137,21.851c4.396,1.293,15.838,22.174,15.838,61.479 c0,9.956-0.84,19.523-2.327,28.38c-4.331-0.776-8.792-1.228-13.382-1.228s-8.986,0.453-13.382,1.228 c-1.487-8.792-2.327-18.36-2.327-28.38C180.558,44.024,192.065,23.143,196.137,21.851z M210.877,364.735 c-7.822,7.822-21.463,7.822-29.285,0c-3.879-3.879-5.883-9.051-5.947-14.287h41.244 C216.824,355.749,214.756,360.921,210.877,364.735z M286.384,328.598H106.149c-6.271,0-10.602-7.37-5.56-13.317 c23.596-24.566,36.267-58.182,38.012-100.848c0.323-7.887,0.323-15.968-0.129-24.501c0-31.806,25.859-57.729,57.729-57.729 s57.729,25.859,57.729,57.729v25.212c0,36.913,13.446,72.469,37.883,100.137C296.339,320.517,293.301,328.792,286.384,328.598z"/> </g> <path style="fill:#FFFFFF;" d="M181.592,364.735c7.822,7.822,21.463,7.822,29.285,0c3.879-3.879,5.883-9.051,5.947-14.287H175.58 C175.709,355.749,177.778,360.921,181.592,364.735z"/> <path style="fill:#;" d="M182.885,111.709c4.331-0.776,8.792-1.228,13.382-1.228s8.986,0.453,13.382,1.228 c1.487-8.792,2.327-18.36,2.327-28.38c0-39.305-11.507-60.186-15.838-61.479c-4.008,1.293-15.451,22.174-15.451,61.479 C180.558,93.22,181.463,102.917,182.885,111.709z"/> </g>
</svg>