<?xml version="1.0" encoding="utf-8"?>
<!-- Generator: Adobe Illustrator 27.5.0, SVG Export Plug-In . SVG Version: 6.00 Build 0)  -->
<svg version="1.1" id="Layer_1" xmlns="http://www.w3.org/2000/svg" xmlns:xlink="http://www.w3.org/1999/xlink" x="0px" y="0px"
	 viewBox="0 0 3000 1800" style="enable-background:new 0 0 3000 1800;" xml:space="preserve">
<g>
	<rect style="fill:#7391E6;" width="3000" height="1800"/>
	<g>
		<path style="fill:#FFFFFF;" d="M1070.747,231.705c-1.81,0-3.536,0.361-5.111,1.012c0.012-0.337,0.026-0.673,0.026-1.012
			c0-14.792-11.991-26.783-26.783-26.783c-9.368,0-17.607,4.813-22.394,12.097c-4.045-3.337-9.23-5.341-14.883-5.341
			c-0.154,0-0.306,0.009-0.46,0.012c-4.011-16.617-18.967-28.966-36.816-28.966c-20.922,0-37.882,16.96-37.882,37.882
			c0,0.248,0.014,0.492,0.019,0.739c-9.19,0.286-16.695,7.242-17.836,16.192c-1.979-1.532-4.455-2.453-7.151-2.453
			c-5.802,0-10.604,4.227-11.529,9.766h194.185C1084,237.568,1078.06,231.705,1070.747,231.705z"/>
		<path style="fill:#FFFFFF;" d="M1159.471,160.138c-1.873,0-3.613,0.563-5.066,1.524c-1.415-6.09-6.863-10.633-13.383-10.633
			c-1.251,0-2.456,0.182-3.608,0.495c-1.667-11.382-11.468-20.122-23.313-20.122c-4.32,0-8.365,1.168-11.847,3.197
			c-5.014-6.722-13.028-11.074-22.059-11.074c-15.19,0-27.504,12.314-27.504,27.504c0,0.021,0.001,0.041,0.002,0.062
			c-0.407-0.036-0.817-0.062-1.233-0.062c-4.361,0-8.24,2.036-10.76,5.202c-1.792-8.283-9.157-14.49-17.976-14.49
			c-10.16,0-18.396,8.236-18.396,18.396c0,3.084,0.763,5.988,2.104,8.541h162.204
			C1168.297,163.906,1164.329,160.138,1159.471,160.138z"/>
		<path style="fill:#FFFFFF;" d="M2313.58,385.313c0-9.06,7.344-16.404,16.404-16.404c4.697,0,8.93,1.977,11.92,5.141
			c-0.011-0.326-0.025-0.651-0.025-0.98c0-15.821,12.825-28.647,28.646-28.647c14.291,0,26.134,10.465,28.292,24.149
			c3.294-2.823,7.571-4.533,12.25-4.533c2.817,0,5.487,0.623,7.887,1.731c1.581-16.646,15.594-29.669,32.655-29.669
			c17.06,0,31.074,13.023,32.654,29.669c2.4-1.108,5.07-1.731,7.887-1.731c10.137,0,18.4,8.007,18.818,18.041
			c1.919-1.588,4.381-2.542,7.066-2.542c4.936,0,9.117,3.226,10.554,7.684h-214.894
			C2313.621,386.596,2313.58,385.96,2313.58,385.313z"/>
		<path style="fill:#FFFFFF;" d="M180.88,354.767c0-9.602,7.784-17.386,17.386-17.386c4.978,0,9.464,2.096,12.634,5.449
			c-0.012-0.345-0.026-0.69-0.026-1.039c0-16.769,13.594-30.362,30.362-30.362c15.146,0,27.699,11.092,29.987,25.595
			c3.491-2.992,8.024-4.804,12.983-4.804c2.986,0,5.816,0.66,8.359,1.835c1.675-17.643,16.528-31.446,34.61-31.446
			c18.082,0,32.935,13.803,34.61,31.446c2.544-1.175,5.374-1.835,8.359-1.835c10.744,0,19.502,8.487,19.945,19.121
			c2.033-1.683,4.643-2.695,7.489-2.695c5.232,0,9.663,3.419,11.186,8.145H181.001C180.924,356.127,180.88,355.452,180.88,354.767z"
			/>
		<path style="fill:#FFFFFF;" d="M1557.518,300.415c0-5.927,4.804-10.731,10.731-10.731c0.528,0,1.043,0.051,1.55,0.124
			c0-0.042-0.003-0.083-0.003-0.124c0-11.853,9.609-21.462,21.462-21.462c10.418,0,19.1,7.424,21.05,17.27
			c0.641-0.098,1.291-0.164,1.959-0.164c2.377,0,4.597,0.654,6.509,1.774c2.555-6.622,8.977-11.323,16.5-11.323
			c9.766,0,17.683,7.917,17.683,17.684c0,0.632-0.034,1.255-0.099,1.87c1.499-1.168,3.378-1.87,5.425-1.87
			c4.839,0,8.765,3.889,8.835,8.712h-111.446C1557.58,301.601,1557.518,301.016,1557.518,300.415z"/>
		<path style="fill:#FFFFFF;" d="M430.764,302.452c0-5.927,4.805-10.731,10.731-10.731c0.528,0,1.043,0.051,1.55,0.125
			c0-0.042-0.003-0.083-0.003-0.125c0-11.853,9.609-21.462,21.462-21.462c10.418,0,19.1,7.424,21.05,17.27
			c0.641-0.098,1.291-0.164,1.959-0.164c2.377,0,4.596,0.654,6.509,1.774c2.555-6.622,8.977-11.323,16.5-11.323
			c9.766,0,17.684,7.917,17.684,17.684c0,0.632-0.035,1.255-0.099,1.87c1.499-1.168,3.378-1.87,5.425-1.87
			c4.839,0,8.765,3.889,8.835,8.712H430.921C430.826,303.638,430.764,303.053,430.764,302.452z"/>
		<path style="fill:#FFFFFF;" d="M2069.277,339.032c-2.076,0-4.054,0.414-5.861,1.161c0.014-0.386,0.03-0.772,0.03-1.161
			c0-16.96-13.749-30.709-30.709-30.709c-10.741,0-20.188,5.518-25.676,13.87c-4.638-3.826-10.583-6.124-17.064-6.124
			c-0.177,0-0.351,0.01-0.527,0.013c-4.599-19.053-21.748-33.212-42.213-33.212c-23.988,0-43.435,19.446-43.435,43.435
			c0,0.284,0.016,0.564,0.021,0.847c-10.537,0.328-19.142,8.304-20.451,18.565c-2.269-1.757-5.108-2.813-8.199-2.813
			c-6.652,0-12.159,4.846-13.219,11.198h222.65C2084.473,345.754,2077.662,339.032,2069.277,339.032z"/>
		<path style="fill:#FFFFFF;" d="M2707.517,295.793c0-5.927,4.804-10.731,10.731-10.731c0.528,0,1.043,0.051,1.55,0.125
			c0-0.042-0.003-0.083-0.003-0.125c0-11.853,9.609-21.462,21.462-21.462c10.418,0,19.1,7.424,21.05,17.27
			c0.641-0.098,1.292-0.164,1.959-0.164c2.377,0,4.597,0.654,6.509,1.774c2.555-6.623,8.977-11.323,16.5-11.323
			c9.766,0,17.683,7.917,17.683,17.684c0,0.632-0.034,1.255-0.099,1.87c1.499-1.168,3.378-1.87,5.425-1.87
			c4.839,0,8.765,3.889,8.835,8.712h-111.446C2707.579,296.978,2707.517,296.393,2707.517,295.793z"/>
	</g>
	<path style="fill:#FFFFFF;" d="M0,0l0,309.001v375.417C261.823,325.195,612.382,77.948,990.536,56.623
		c458.686-25.866,986.601,280.859,1479.152,151.631C2584.161,178.219,2725.239,110.03,2862.31,0H0z"/>
	<path style="fill:#130F40;" d="M3000,146.251l-56.297-16.814l-141.885,33.233v244.195L2657.61,433.28v-77.107l-46.879-6.823
		l-16.648,11.135v82.474l-14.38,2.191v-26.961l-46.879-6.823l-16.648,11.136v32.328l-35.748,5.447v65.832l-101.559,14.883v-59.537
		l-85.093,9.684V382.504l-32.528-17.34l-86.4,24.305v117.192l-28.794,1.955V621.17l-71.193,6.833v-37.411l-52.415,3.558v31.926
		l-44.781,3.04V529.63l-32.505,2.206v39.202l-18.625,1.264v26.646l-45.607,3.096V493.801l-70.075,4.757v-94.234l-95.76,6.5v265.813
		l-43.68,2.965v-50.004l-0.45,0.031l-12.817-175.069c0-0.001-10.675,0.724-10.675,0.724v-7.051l-22.147,1.503l-2.136-53.667
		l-2.262,0.153l-2.136,53.958l-22.147,1.503v7.051l-10.676,0.725l-12.818,176.81l-0.449,0.03v50.004l-12.544,0.852l-12.614-146.875
		c0,0-8.709-3.443-8.709-3.443l-2.214-70.034l-2.542,0.173l-2.214,70.334l-8.709,4.626l-12.615,148.587l-127.838,15.678v-65.245
		l-40.664,2.761v39.46l-22.851,1.551v79.924l-37.059,2.516v-92.16l-10.097,0.686V605.13l-58.157,3.948v59l-42.213,2.866v-14.227
		l-37.86,2.57v44.608l-79.104,5.37V605.798l-30.593-0.502c-2.97-59.525-13.75-111.781-29.454-149.132
		c-2.227-5.297-9.119-4.829-11.346,0.771c-15.186,38.178-25.764,89.671-29.132,147.215l-36.681-0.092v741.863H3000V146.251z"/>
	<g>
		<path style="fill:#81E3B0;" d="M1296.244,628.057c-11.556-12.39-15.74-30.048-10.698-46.222
			c4.631-14.857,7.129-30.654,7.129-47.036c0-52.761-25.869-99.476-65.614-128.161c-20.409-14.73-26.182-42.923-12.494-64.046
			c9.375-14.467,14.925-31.644,15.218-50.097c0.831-52.326-41.389-95.886-93.717-96.614c-53.134-0.74-96.438,42.11-96.438,95.074
			c0,18.793,5.452,36.313,14.861,51.064c13.66,21.415,8.639,49.67-11.975,64.51c-39.83,28.676-65.764,75.442-65.764,128.27
			c0,16.381,2.497,32.178,7.128,47.034c5.047,16.191,0.836,33.854-10.729,46.259c-36.129,38.752-58.482,90.514-59.256,147.491
			c-1.654,121.804,98.495,223.624,220.31,223.899c122.2,0.276,221.349-98.703,221.349-220.839
			C1355.553,720.443,1333.037,667.505,1296.244,628.057z"/>
		<g>
			<path style="fill:#B8E6E6;" d="M1296.244,628.057c-11.556-12.39-15.74-30.048-10.698-46.222
				c4.631-14.857,7.129-30.654,7.129-47.036c0-52.761-25.869-99.476-65.614-128.161c-20.409-14.73-26.182-42.923-12.494-64.046
				c9.375-14.467,14.925-31.644,15.218-50.097c0.831-52.326-41.389-95.886-93.717-96.614c-53.134-0.74-96.438,42.11-96.438,95.074
				c0,18.793,5.452,36.313,14.861,51.064c13.66,21.415,8.639,49.67-11.975,64.51c-39.83,28.676-65.764,75.442-65.764,128.27
				c0,16.381,2.497,32.178,7.128,47.034c5.047,16.191,0.836,33.854-10.729,46.259c-36.129,38.752-58.482,90.514-59.256,147.491
				c-1.654,121.804,98.495,223.624,220.31,223.899c122.2,0.276,221.349-98.703,221.349-220.839
				C1355.553,720.443,1333.037,667.505,1296.244,628.057z"/>
			<path d="M1134.717,1000.483c-0.174,0-0.341-0.001-0.515-0.001c-59.162-0.134-114.965-23.8-157.132-66.64
				c-42.188-42.862-64.979-99.071-64.176-158.273c0.75-55.174,21.889-107.791,59.524-148.159
				c11.381-12.207,15.407-29.558,10.506-45.279c-4.76-15.268-7.174-31.193-7.174-47.332c0-50.992,24.74-99.246,66.18-129.081
				c19.984-14.388,25.131-42.131,11.716-63.161c-9.825-15.402-15.018-33.246-15.018-51.602c0-25.918,10.164-50.215,28.619-68.415
				c18.452-18.197,42.899-28.028,68.833-27.659c25.556,0.355,49.516,10.737,67.467,29.232c17.97,18.513,27.642,42.805,27.236,68.398
				c-0.287,18.036-5.604,35.542-15.378,50.626c-13.334,20.576-7.957,48.113,12.24,62.69c41.345,29.84,66.028,78.054,66.028,128.972
				c0,16.139-2.414,32.065-7.174,47.334c-4.902,15.724-0.889,33.06,10.474,45.243c38.419,41.191,59.578,94.912,59.578,151.268
				c0,59.35-23.139,115.122-65.153,157.042C1249.51,977.481,1193.879,1000.481,1134.717,1000.483z M1134.703,196.871
				c-24.895,0-48.302,9.59-66.05,27.093c-18.072,17.822-28.024,41.613-28.024,66.991c0,17.974,5.084,35.445,14.705,50.525
				c13.984,21.925,8.61,50.854-12.234,65.86c-40.919,29.46-65.349,77.107-65.349,127.458c0,15.937,2.383,31.661,7.083,46.736
				c5.114,16.406,0.917,34.508-10.953,47.238c-37.296,40.005-58.245,92.148-58.987,146.823
				c-0.797,58.663,21.79,114.365,63.602,156.843c41.788,42.456,97.087,65.91,155.711,66.043c0.168,0,0.341,0.001,0.51,0.001
				c58.633,0.001,113.755-22.792,155.271-64.214c41.636-41.542,64.566-96.811,64.566-155.626
				c0-55.847-20.968-109.084-59.041-149.904c-11.851-12.706-16.036-30.793-10.92-47.202c4.7-15.076,7.083-30.802,7.083-46.738
				c0-50.277-24.374-97.885-65.199-127.351c-21.062-15.2-26.662-43.928-12.749-65.399c9.57-14.769,14.777-31.909,15.057-49.569
				c0.398-25.06-9.074-48.845-26.671-66.975c-17.578-18.11-41.039-28.275-66.059-28.624
				C1135.605,196.874,1135.152,196.871,1134.703,196.871z"/>
		</g>
		<g>
			<path style="fill:#130F40;" d="M1134.714,1253.532c-0.552,0-1-0.447-1-1V287.64c0-0.553,0.448-1,1-1s1,0.447,1,1v964.892
				C1135.714,1253.084,1135.266,1253.532,1134.714,1253.532z"/>
		</g>
		<g>
			<path style="fill:#130F40;" d="M1132.845,520.778c-0.256,0-0.512-0.098-0.707-0.293l-50.972-50.972
				c-0.391-0.391-0.391-1.023,0-1.414s1.023-0.391,1.414,0l50.972,50.972c0.391,0.391,0.391,1.023,0,1.414
				C1133.356,520.68,1133.1,520.778,1132.845,520.778z"/>
		</g>
		<g>
			<path style="fill:#130F40;" d="M1132.845,564.864c-0.256,0-0.512-0.098-0.707-0.293l-109.003-109.003
				c-0.391-0.391-0.391-1.023,0-1.414c0.391-0.391,1.023-0.391,1.414,0l109.003,109.003c0.391,0.391,0.391,1.023,0,1.414
				C1133.356,564.766,1133.1,564.864,1132.845,564.864z"/>
		</g>
		<g>
			<path style="fill:#130F40;" d="M1132.845,780.24c-0.256,0-0.512-0.098-0.707-0.293l-131.831-131.831
				c-0.391-0.391-0.391-1.023,0-1.414c0.391-0.391,1.023-0.391,1.414,0l131.831,131.831c0.391,0.391,0.391,1.023,0,1.414
				C1133.356,780.142,1133.1,780.24,1132.845,780.24z"/>
		</g>
		<g>
			<path style="fill:#130F40;" d="M1134.714,921.808c-0.256,0-0.512-0.098-0.707-0.293L963.773,751.282
				c-0.391-0.391-0.391-1.023,0-1.414c0.391-0.391,1.023-0.391,1.414,0l170.233,170.233c0.391,0.391,0.391,1.023,0,1.414
				C1135.225,921.71,1134.97,921.808,1134.714,921.808z"/>
		</g>
		<g>
			<path style="fill:#130F40;" d="M1134.714,975.354c-0.256,0-0.512-0.098-0.707-0.293l-105.169-105.169
				c-0.391-0.391-0.391-1.023,0-1.414c0.391-0.391,1.023-0.391,1.414,0l105.169,105.169c0.391,0.391,0.391,1.023,0,1.414
				C1135.225,975.256,1134.97,975.354,1134.714,975.354z"/>
		</g>
		<g>
			<path style="fill:#130F40;" d="M1136.583,586.907c-0.256,0-0.512-0.098-0.707-0.293c-0.391-0.391-0.391-1.023,0-1.414
				l118.121-118.121c0.391-0.391,1.023-0.391,1.414,0c0.391,0.391,0.391,1.023,0,1.414L1137.29,586.614
				C1137.095,586.809,1136.839,586.907,1136.583,586.907z"/>
		</g>
		<g>
			<path style="fill:#130F40;" d="M1136.583,444.272c-0.256,0-0.512-0.098-0.707-0.293c-0.391-0.391-0.391-1.023,0-1.414
				l45.093-45.093c0.391-0.391,1.023-0.391,1.414,0c0.391,0.391,0.391,1.023,0,1.414l-45.093,45.093
				C1137.095,444.174,1136.839,444.272,1136.583,444.272z"/>
		</g>
		<g>
			<path style="fill:#130F40;" d="M1136.583,630.993c-0.256,0-0.512-0.098-0.707-0.293c-0.391-0.391-0.391-1.023,0-1.414
				l118.121-118.121c0.391-0.391,1.023-0.391,1.414,0c0.391,0.391,0.391,1.023,0,1.414L1137.29,630.7
				C1137.095,630.895,1136.839,630.993,1136.583,630.993z"/>
		</g>
		<g>
			<path style="fill:#130F40;" d="M1134.714,921.808c-0.256,0-0.512-0.098-0.707-0.293c-0.391-0.391-0.391-1.023,0-1.414
				l163.603-163.603c0.391-0.391,1.023-0.391,1.414,0c0.391,0.391,0.391,1.023,0,1.414l-163.603,163.602
				C1135.225,921.71,1134.97,921.808,1134.714,921.808z"/>
		</g>
		<g>
			<path style="fill:#130F40;" d="M1132.845,780.24c-0.256,0-0.512-0.098-0.707-0.293c-0.391-0.391-0.391-1.023,0-1.414
				l129.028-129.028c0.391-0.391,1.023-0.391,1.414,0c0.391,0.391,0.391,1.023,0,1.414l-129.028,129.028
				C1133.356,780.142,1133.1,780.24,1132.845,780.24z"/>
		</g>
	</g>
	<g>
		<g>
			<path style="fill:#FFFFFF;" d="M444.701,535.275c-14.778,18.466-19.001,53.017-19.001,77.576h-57.734
				c0-24.559-4.223-59.11-19.001-77.576H444.701z"/>
			<path d="M425.7,613.851h-57.735c-0.552,0-1-0.447-1-1c0-12.547-1.355-55.176-18.782-76.951c-0.24-0.301-0.287-0.712-0.121-1.058
				c0.167-0.347,0.517-0.567,0.901-0.567h95.736c0.384,0,0.735,0.221,0.901,0.566c0.167,0.347,0.12,0.758-0.121,1.059
				c-17.427,21.775-18.781,64.404-18.781,76.951C426.7,613.404,426.252,613.851,425.7,613.851z M368.962,611.851h55.741
				c0.074-13.501,1.742-53.454,17.972-75.576H350.99C367.221,558.396,368.888,598.349,368.962,611.851z"/>
		</g>
		<g>
			<path style="fill:#FFFFFF;" d="M422.522,535.275c-7.931,18.466-10.197,53.017-10.197,77.576H381.34
				c0-24.559-2.266-59.11-10.197-77.576H422.522z"/>
			<path d="M412.325,613.851H381.34c-0.552,0-1-0.447-1-1c0-12.58-0.73-55.326-10.116-77.182c-0.133-0.309-0.101-0.664,0.084-0.944
				c0.185-0.281,0.498-0.45,0.835-0.45h51.379c0.336,0,0.65,0.169,0.835,0.45c0.185,0.28,0.217,0.636,0.084,0.944
				c-9.387,21.855-10.116,64.601-10.116,77.182C413.325,613.404,412.877,613.851,412.325,613.851z M382.339,611.851h28.988
				c0.04-13.514,0.938-53.58,9.7-75.576h-48.388C381.4,558.272,382.299,598.337,382.339,611.851z"/>
		</g>
		<g>
			<polygon style="fill:#130F40;" points="387.226,612.851 406.441,612.851 401.091,589.892 392.576,589.892 			"/>
			<path style="fill:#130F40;" d="M406.441,613.851h-19.215c-0.305,0-0.594-0.14-0.783-0.378c-0.19-0.239-0.26-0.552-0.191-0.849
				l5.35-22.959c0.106-0.453,0.509-0.773,0.974-0.773h8.515c0.465,0,0.868,0.32,0.974,0.773l5.35,22.959
				c0.069,0.297-0.001,0.609-0.191,0.849C407.034,613.711,406.746,613.851,406.441,613.851z M388.486,611.851h16.695l-4.884-20.959
				h-6.927L388.486,611.851z"/>
		</g>
		<g>
			<path style="fill:#130F40;" d="M341.446,1272.596c2.504-2.892,12.112-5.369,25.573-6.865c-4.442,0-8.022-3.58-8.022-7.954
				c0-4.375,3.579-7.955,7.954-7.955h1.195l12.061-74.873c-3.82-0.575-6.776-3.883-6.776-7.857c0-4.375,3.579-7.955,7.954-7.955
				h1.543c-0.795-64.558,4.087-451.375,3.839-520.807c-5.718-1.81-9.547-5.114-9.547-8.892c0.006-0.12-11.32-0.12-11.32-0.12
				c-4.529,0-8.234-3.705-8.234-8.234c0-4.529,3.705-8.234,8.234-8.234h61.862c4.529,0,8.234,3.705,8.234,8.234
				c0,4.528-3.705,8.234-8.234,8.234h-11.326c0.006,3.893-3.812,7.194-9.517,9.005c-0.249,69.412,4.615,456.254,3.816,520.814h1.544
				c4.375,0,7.954,3.58,7.954,7.955c0,3.974-2.956,7.281-6.776,7.857l12.061,74.873h1.195c4.375,0,7.954,3.58,7.954,7.955
				c0,4.375-3.579,7.954-7.954,7.954c13.394,1.496,23.002,3.973,25.506,6.865c1.842,2.293,2.619,6.754,2.108,24.078H339.338
				C338.826,1279.35,339.603,1274.89,341.446,1272.596z"/>
			<path style="fill:#130F40;" d="M454.329,1297.673H339.338c-0.541,0-0.983-0.43-1-0.971c-0.529-17.91,0.329-22.245,2.328-24.732
				c2.984-3.447,13.343-5.513,21.507-6.643c-2.509-1.593-4.175-4.382-4.175-7.551c0-4.938,4.017-8.954,8.954-8.954h0.343
				l11.774-73.092c-3.846-1.04-6.637-4.59-6.637-8.638c0-4.938,4.017-8.955,8.954-8.955h0.532
				c-0.406-37.204,0.858-167.922,2.081-294.371c0.959-99.252,1.867-193.041,1.772-224.712c-5.517-1.906-8.966-5.074-9.482-8.67
				c-1.956-0.048-7.063-0.066-10.387-0.066c-5.091,0-9.234-4.143-9.234-9.233c0-5.092,4.143-9.234,9.234-9.234h61.862
				c5.091,0,9.234,4.143,9.234,9.234c0,5.091-4.143,9.233-9.234,9.233h-10.397c-0.529,3.637-3.964,6.824-9.448,8.728
				c-0.095,31.643,0.807,125.353,1.761,224.521c1.218,126.538,2.477,257.347,2.068,294.571h0.533c4.938,0,8.955,4.018,8.955,8.955
				c0,4.048-2.791,7.598-6.637,8.638l11.774,73.092h0.343c4.938,0,8.955,4.017,8.955,8.954c0,3.168-1.653,5.956-4.142,7.549
				c8.144,1.132,18.49,3.199,21.449,6.616c2.022,2.516,2.88,6.85,2.352,24.761C455.312,1297.244,454.87,1297.673,454.329,1297.673z
				 M340.31,1295.673h113.047c0.447-16.28-0.333-20.481-1.915-22.451c-2.228-2.57-11.522-5.01-24.838-6.496
				c-0.527-0.059-0.917-0.519-0.888-1.05c0.03-0.53,0.468-0.944,0.999-0.944c3.835,0,6.955-3.12,6.955-6.955
				c0-3.834-3.12-6.954-6.955-6.954h-1.195c-0.491,0-0.909-0.356-0.987-0.841l-12.061-74.873c-0.042-0.264,0.023-0.533,0.18-0.749
				c0.158-0.216,0.395-0.359,0.659-0.399c3.378-0.508,5.925-3.461,5.925-6.867c0-3.835-3.12-6.955-6.955-6.955h-1.544
				c-0.268,0-0.523-0.107-0.711-0.297c-0.188-0.191-0.292-0.448-0.289-0.716c0.443-35.783-0.828-167.835-2.057-295.54
				c-0.961-99.936-1.87-194.331-1.759-225.266c0.001-0.434,0.283-0.817,0.697-0.949c5.528-1.755,8.825-4.765,8.82-8.051
				c0-0.265,0.105-0.52,0.293-0.708c0.188-0.188,0.442-0.293,0.707-0.293h11.325c3.989,0,7.234-3.245,7.234-7.233
				c0-3.989-3.245-7.234-7.234-7.234h-61.862c-3.989,0-7.234,3.245-7.234,7.234c0,3.988,3.245,7.233,7.234,7.233
				c11.633,0,11.648,0.016,12.042,0.427c0.189,0.197,0.29,0.465,0.277,0.738c0.001,3.124,3.392,6.166,8.85,7.895
				c0.415,0.131,0.697,0.515,0.698,0.949c0.11,30.963-0.803,125.438-1.77,225.459c-1.234,127.615-2.51,259.575-2.069,295.339
				c0.003,0.267-0.101,0.525-0.289,0.716c-0.188,0.189-0.444,0.297-0.711,0.297h-1.544c-3.835,0-6.954,3.12-6.954,6.955
				c0,3.406,2.547,6.359,5.925,6.867c0.264,0.04,0.501,0.184,0.659,0.399c0.157,0.216,0.222,0.485,0.18,0.749l-12.061,74.873
				c-0.078,0.484-0.497,0.841-0.987,0.841h-1.195c-3.834,0-6.954,3.12-6.954,6.954c0,3.835,3.15,6.955,7.021,6.955
				c0.531,0,0.969,0.415,0.999,0.944c0.029,0.53-0.36,0.991-0.888,1.05c-13.332,1.481-22.642,3.914-24.916,6.512
				C340.639,1275.213,339.865,1279.435,340.31,1295.673z"/>
		</g>
		<g>
			<path style="fill:#130F40;" d="M343.489,518.807h14.796c0,0,19.008-27.987,32.763-35.324c-2.951-1.904-4.91-5.213-4.91-8.985
				c0-5.905,4.788-10.693,10.694-10.693c5.905,0,10.693,4.788,10.693,10.693c0,3.772-1.959,7.082-4.91,8.985
				c13.755,7.337,32.763,35.324,32.763,35.324h14.796c4.529,0,8.234,3.705,8.234,8.234c0,4.528-3.705,8.234-8.234,8.234H343.489
				c-4.529,0-8.234-3.705-8.234-8.234C335.255,522.512,338.96,518.807,343.489,518.807z"/>
			<path style="fill:#130F40;" d="M450.174,536.275H343.489c-5.091,0-9.233-4.142-9.233-9.233s4.142-9.234,9.233-9.234h14.269
				c2.48-3.599,18.63-26.605,31.471-34.435c-2.586-2.208-4.09-5.424-4.09-8.874c0-6.447,5.246-11.693,11.694-11.693
				c6.447,0,11.693,5.246,11.693,11.693c0,3.45-1.504,6.666-4.09,8.874c12.841,7.831,28.991,30.836,31.47,34.435h14.27
				c5.091,0,9.233,4.143,9.233,9.234S455.266,536.275,450.174,536.275z M343.489,519.807c-3.988,0-7.233,3.245-7.233,7.234
				c0,3.988,3.245,7.233,7.233,7.233h106.686c3.988,0,7.233-3.245,7.233-7.233c0-3.989-3.245-7.234-7.233-7.234h-14.796
				c-0.331,0-0.641-0.164-0.827-0.439c-0.189-0.277-19.028-27.866-32.407-35.004c-0.313-0.166-0.514-0.486-0.528-0.841
				c-0.015-0.353,0.159-0.689,0.457-0.882c2.788-1.798,4.452-4.842,4.452-8.144c0-5.345-4.348-9.693-9.693-9.693
				c-5.345,0-9.694,4.349-9.694,9.693c0,3.302,1.665,6.346,4.452,8.144c0.298,0.192,0.472,0.528,0.457,0.882
				c-0.015,0.354-0.216,0.675-0.528,0.842c-13.382,7.138-32.218,34.726-32.407,35.003c-0.186,0.274-0.496,0.439-0.827,0.439H343.489
				z"/>
		</g>
		<g>
			<path style="fill:#FFFFFF;" d="M396.833,564.019c5.816,3.366,9.732,9.651,9.732,16.854c0,0.3-0.007,0.599-0.02,0.896
				c-0.549,12.114-18.875,12.114-19.424,0c-0.013-0.297-0.02-0.595-0.02-0.896C387.1,573.669,391.016,567.385,396.833,564.019z"/>
			<path d="M396.833,591.854c-4.939,0-10.398-3.142-10.711-10.041c-0.014-0.313-0.021-0.625-0.021-0.94
				c0-7.277,3.92-14.066,10.231-17.719c0.31-0.18,0.692-0.18,1.002,0c6.311,3.652,10.231,10.441,10.231,17.719
				c0,0.316-0.007,0.629-0.021,0.941C407.231,588.711,401.772,591.854,396.833,591.854z M396.832,565.185
				c-5.401,3.359-8.732,9.316-8.732,15.688c0,0.286,0.006,0.569,0.019,0.852c0.253,5.585,4.694,8.13,8.713,8.13
				c4.019,0,8.46-2.545,8.712-8.131c0.013-0.282,0.02-0.565,0.02-0.851C405.565,574.501,402.233,568.544,396.832,565.185z"/>
		</g>
	</g>
	<g>
		<g>
			<g>
				<path style="fill:#130F40;" d="M2667.143,1453.125H1209.085c-0.552,0-1-0.447-1-1s0.448-1,1-1h1458.058c0.552,0,1,0.447,1,1
					S2667.695,1453.125,2667.143,1453.125z"/>
			</g>
			<g>
				<g>
					<g>
						
							<ellipse transform="matrix(0.9951 -0.0985 0.0985 0.9951 -124.4152 235.838)" style="fill:#130F40;" cx="2325.345" cy="1377.461" rx="74.665" ry="74.664"/>
						<path style="fill:#130F40;" d="M2325.345,1453.125c-41.722,0-75.665-33.942-75.665-75.664s33.943-75.665,75.665-75.665
							c41.722,0,75.664,33.943,75.664,75.665S2367.067,1453.125,2325.345,1453.125z M2325.345,1303.796
							c-40.619,0-73.665,33.046-73.665,73.665c0,40.618,33.046,73.664,73.665,73.664c40.618,0,73.664-33.046,73.664-73.664
							C2399.01,1336.842,2365.964,1303.796,2325.345,1303.796z"/>
					</g>
				</g>
				<g>
					<g>
						
							<ellipse transform="matrix(0.9951 -0.0985 0.0985 0.9951 -127.2955 177.5198)" style="fill:#130F40;" cx="1733.509" cy="1377.461" rx="74.665" ry="74.664"/>
						<path style="fill:#130F40;" d="M1733.509,1453.125c-41.722,0-75.665-33.942-75.665-75.664s33.943-75.665,75.665-75.665
							s75.665,33.943,75.665,75.665S1775.231,1453.125,1733.509,1453.125z M1733.509,1303.796
							c-40.619,0-73.665,33.046-73.665,73.665c0,40.618,33.046,73.664,73.665,73.664c40.619,0,73.665-33.046,73.665-73.664
							C1807.174,1336.842,1774.128,1303.796,1733.509,1303.796z"/>
					</g>
				</g>
				<g>
					<path style="fill:#FFFFFF;" d="M2552.264,1040.637l9.405,9.405c1.612,1.612,1.612,4.227,0,5.839l-9.132,9.132
						c-0.774,0.774-1.824,1.209-2.92,1.209h-12.22c-2.28,0-4.129-1.849-4.129-4.129v-18.537c0-2.28,1.848-4.129,4.129-4.129h11.948
						C2550.44,1039.428,2551.49,1039.863,2552.264,1040.637z"/>
					<path style="fill:#130F40;" d="M2549.617,1067.222h-12.22c-2.828,0-5.129-2.301-5.129-5.129v-18.537
						c0-2.828,2.301-5.129,5.129-5.129h11.948c1.369,0,2.657,0.534,3.626,1.503l9.405,9.404c2,2,2,5.253,0,7.253l-9.132,9.133
						C2552.276,1066.689,2550.988,1067.222,2549.617,1067.222z M2537.397,1040.427c-1.725,0-3.129,1.403-3.129,3.129v18.537
						c0,1.726,1.404,3.129,3.129,3.129h12.22c0.836,0,1.622-0.325,2.213-0.916l9.132-9.133c1.219-1.22,1.219-3.205,0-4.425
						l-9.405-9.404c-0.591-0.591-1.377-0.917-2.212-0.917H2537.397z"/>
				</g>
				<g>
					<path style="fill:#FFFFFF;" d="M2552.893,1052.482c0,1.465,1.187,2.652,2.652,2.652s2.652-1.187,2.652-2.652
						s-1.187-2.652-2.652-2.652S2552.893,1051.017,2552.893,1052.482z"/>
					<path style="fill:#130F40;" d="M2555.544,1056.133c-2.014,0-3.652-1.638-3.652-3.651c0-2.014,1.638-3.652,3.652-3.652
						c2.014,0,3.652,1.639,3.652,3.652C2559.196,1054.496,2557.558,1056.133,2555.544,1056.133z M2555.544,1050.83
						c-0.91,0-1.652,0.741-1.652,1.652c0,0.91,0.741,1.651,1.652,1.651c0.911,0,1.652-0.741,1.652-1.651
						C2557.196,1051.571,2556.455,1050.83,2555.544,1050.83z"/>
				</g>
				<g>
					<path style="fill:#FDD283;" d="M1259.712,909.891h1293.961c25.253,0,46.79,18.291,50.877,43.211l62.593,381.579
						c0.734,3.458,1.104,6.983,1.104,10.517c0,27.961-22.667,50.628-50.627,50.628H1259.712c-27.961,0-50.627-22.667-50.627-50.628
						v-384.68C1209.085,932.557,1231.751,909.891,1259.712,909.891z"/>
					<path d="M2617.62,1396.826H1259.712c-28.467,0-51.627-23.16-51.627-51.627V960.518c0-28.467,23.16-51.627,51.627-51.627
						h1293.961c25.865,0,47.677,18.525,51.864,44.049l62.593,381.579c0.739,3.474,1.117,7.082,1.117,10.68
						C2669.247,1373.666,2646.088,1396.826,2617.62,1396.826z M1259.712,910.891c-27.365,0-49.627,22.263-49.627,49.627v384.681
						c0,27.364,22.263,49.627,49.627,49.627H2617.62c27.365,0,49.627-22.263,49.627-49.627c0-3.458-0.364-6.927-1.083-10.31
						l-62.601-381.625c-4.027-24.553-25.009-42.373-49.89-42.373H1259.712z"/>
				</g>
				<g>
					<path style="fill:#130F40;" d="M2667.143,1335.681h-501.9c-0.552,0-1-0.447-1-1c0-0.553,0.448-1,1-1h501.9c0.552,0,1,0.447,1,1
						C2668.143,1335.234,2667.695,1335.681,2667.143,1335.681z"/>
				</g>
				<g>
					<path style="fill:#130F40;" d="M1336.682,1222.987h-127.597c-0.552,0-1-0.447-1-1c0-0.553,0.448-1,1-1h127.597
						c0.552,0,1,0.447,1,1C1337.682,1222.54,1337.234,1222.987,1336.682,1222.987z"/>
				</g>
				<g>
					<path style="fill:#130F40;" d="M1336.682,1145.112h-127.597c-0.552,0-1-0.447-1-1c0-0.553,0.448-1,1-1h127.597
						c0.552,0,1,0.447,1,1C1337.682,1144.665,1337.234,1145.112,1336.682,1145.112z"/>
				</g>
				<g>
					<path style="fill:#130F40;" d="M2165.242,1396.826c-0.552,0-1-0.447-1-1v-172.839h-826.561v172.839c0,0.553-0.448,1-1,1
						s-1-0.447-1-1v-173.839c0-0.553,0.448-1,1-1h828.561c0.552,0,1,0.447,1,1v173.839
						C2166.242,1396.378,2165.795,1396.826,2165.242,1396.826z"/>
				</g>
				<g>
					<path style="fill:#130F40;" d="M1996.564,1396.826c-0.552,0-1-0.447-1-1v-173.839c0-0.553,0.448-1,1-1s1,0.447,1,1v173.839
						C1997.564,1396.378,1997.116,1396.826,1996.564,1396.826z"/>
				</g>
				<g>
					<path style="fill:#130F40;" d="M1831.593,1396.826c-0.552,0-1-0.447-1-1v-173.839c0-0.553,0.448-1,1-1s1,0.447,1,1v173.839
						C1832.593,1396.378,1832.145,1396.826,1831.593,1396.826z"/>
				</g>
				<g>
					<path style="fill:#FFFFFF;" d="M1505.36,1395.826v-173.839V1395.826z"/>
					<path style="fill:#130F40;" d="M1505.36,1396.826c-0.552,0-1-0.447-1-1v-173.839c0-0.553,0.448-1,1-1s1,0.447,1,1v173.839
						C1506.36,1396.378,1505.912,1396.826,1505.36,1396.826z"/>
				</g>
				<g>
					<path style="fill:#99B4FF;" d="M1363.188,1008.785h1250.496l34.973,213.202h-313.083c0.054,0,0.054,126.98,0.054,126.98
						c0,8.828-7.157,15.985-15.986,15.985h-110.164c-8.828,0-15.985-7.157-15.985-15.985v-204.856h-431.318v205.023
						c0,8.736-7.082,15.818-15.818,15.818h-110.499c-8.736,0-15.818-7.082-15.818-15.818v-205.023h-285.477V1037.41
						C1334.563,1021.6,1347.379,1008.785,1363.188,1008.785z"/>
					<path style="fill:#130F40;" d="M2319.643,1365.953h-110.164c-9.366,0-16.986-7.62-16.986-16.985v-203.855h-429.318v204.023
						c0,9.273-7.544,16.817-16.818,16.817h-110.499c-9.274,0-16.818-7.544-16.818-16.817v-204.023h-284.477c-0.552,0-1-0.447-1-1
						V1037.41c0-16.335,13.29-29.625,29.625-29.625h1250.496c0.49,0,0.908,0.354,0.987,0.838l34.973,213.202
						c0.048,0.29-0.035,0.586-0.225,0.809c-0.19,0.224-0.469,0.353-0.762,0.353h-312.106c0.036,0.956,0.038,2.368,0.041,4.455
						c0.005,3.472,0.009,8.433,0.013,14.385c0.008,11.905,0.013,27.777,0.016,43.65c0.007,31.745,0.007,63.49,0.007,63.49
						C2336.628,1358.333,2329.009,1365.953,2319.643,1365.953z M1762.175,1143.112h431.318c0.552,0,1,0.447,1,1v204.855
						c0,8.263,6.722,14.985,14.986,14.985h110.164c8.263,0,14.985-6.723,14.985-14.985c0-1.25,0-124.613-0.052-126.915
						c-0.002-0.022-0.002-0.044-0.002-0.065c0-0.553,0.448-1,1-1h311.906l-34.645-211.202H1363.188
						c-15.232,0-27.625,12.393-27.625,27.625v105.702h284.477c0.552,0,1,0.447,1,1v205.023c0,8.17,6.647,14.817,14.818,14.817
						h110.499c8.171,0,14.818-6.648,14.818-14.817v-205.023C1761.175,1143.559,1761.623,1143.112,1762.175,1143.112z"/>
				</g>
				<g>
					<path style="fill:#130F40;" d="M1334.563,1037.41c0-15.809,12.816-28.625,28.625-28.625h1250.496l-1279.121,37.987V1037.41z"/>
					<path style="fill:#130F40;" d="M1334.563,1047.771c-0.26,0-0.51-0.101-0.696-0.282c-0.194-0.188-0.304-0.447-0.304-0.718
						v-9.361c0-16.335,13.29-29.625,29.625-29.625h1250.496c0.546,0,0.992,0.438,1,0.985c0.008,0.546-0.424,0.998-0.97,1.014
						l-1279.121,37.986C1334.583,1047.771,1334.573,1047.771,1334.563,1047.771z M1363.188,1009.785
						c-15.232,0-27.625,12.393-27.625,27.625v8.331l1210.762-35.956H1363.188z"/>
				</g>
				<g>
					<path style="fill:#FFFFFF;" d="M2301.981,909.891H1739.1l18.712-19.064c11.752-11.974,27.825-18.72,44.603-18.72h399.984
						c8.607,0,17.122,1.778,25.009,5.222L2301.981,909.891z"/>
					<path style="fill:#130F40;" d="M2301.981,910.891h-562.881c-0.403,0-0.766-0.241-0.922-0.613
						c-0.156-0.371-0.074-0.8,0.208-1.087l18.712-19.065c11.864-12.087,28.381-19.02,45.317-19.02h399.984
						c8.798,0,17.346,1.785,25.41,5.307l74.573,32.562c0.434,0.189,0.675,0.657,0.579,1.12
						C2302.863,910.559,2302.455,910.891,2301.981,910.891z M1741.482,908.891h555.71l-70.184-30.646
						c-7.809-3.409-16.089-5.139-24.609-5.139h-399.984c-16.402,0-32.399,6.714-43.889,18.42L1741.482,908.891z"/>
				</g>
				<g>
					<path style="fill:#FDD283;" d="M2086.341,909.891h-612.328l18.712-19.064c11.753-11.974,27.826-18.72,44.603-18.72h449.431
						c8.607,0,17.121,1.778,25.009,5.222L2086.341,909.891z"/>
					<path d="M2086.341,910.891h-612.328c-0.403,0-0.766-0.241-0.922-0.613c-0.156-0.371-0.074-0.8,0.208-1.087l18.712-19.065
						c11.864-12.087,28.381-19.02,45.317-19.02h449.431c8.797,0,17.346,1.785,25.41,5.307l74.573,32.562
						c0.434,0.189,0.675,0.657,0.578,1.12C2087.223,910.559,2086.814,910.891,2086.341,910.891z M1476.395,908.891h605.156
						l-70.184-30.646c-7.809-3.409-16.089-5.139-24.609-5.139h-449.431c-16.402,0-32.399,6.714-43.889,18.42L1476.395,908.891z"/>
				</g>
				<g>
					<path style="fill:#FFFFFF;" d="M1966.246,980.66h-13.564c-2.362,0-4.276-1.915-4.276-4.276c0-2.362,1.914-4.276,4.276-4.276
						h13.564c2.361,0,4.276,1.915,4.276,4.276C1970.522,978.745,1968.608,980.66,1966.246,980.66z"/>
					<path style="fill:#130F40;" d="M1966.246,981.66h-13.564c-2.909,0-5.276-2.366-5.276-5.275c0-2.909,2.367-5.276,5.276-5.276
						h13.564c2.909,0,5.276,2.367,5.276,5.276C1971.522,979.293,1969.155,981.66,1966.246,981.66z M1952.682,973.108
						c-1.806,0-3.276,1.47-3.276,3.276c0,1.806,1.47,3.275,3.276,3.275h13.564c1.807,0,3.276-1.47,3.276-3.275
						c0-1.807-1.47-3.276-3.276-3.276H1952.682z"/>
				</g>
				<g>
					<path style="fill:#FFFFFF;" d="M1826.014,980.66h-13.564c-2.362,0-4.276-1.915-4.276-4.276c0-2.362,1.914-4.276,4.276-4.276
						h13.564c2.362,0,4.276,1.915,4.276,4.276C1830.289,978.745,1828.375,980.66,1826.014,980.66z"/>
					<path style="fill:#130F40;" d="M1826.014,981.66h-13.564c-2.909,0-5.276-2.366-5.276-5.275c0-2.909,2.367-5.276,5.276-5.276
						h13.564c2.909,0,5.276,2.367,5.276,5.276C1831.289,979.293,1828.923,981.66,1826.014,981.66z M1812.45,973.108
						c-1.806,0-3.276,1.47-3.276,3.276c0,1.806,1.47,3.275,3.276,3.275h13.564c1.806,0,3.276-1.47,3.276-3.275
						c0-1.807-1.47-3.276-3.276-3.276H1812.45z"/>
				</g>
				<g>
					<path style="fill:#FFFFFF;" d="M1685.781,980.66h-13.564c-2.361,0-4.276-1.915-4.276-4.276c0-2.362,1.915-4.276,4.276-4.276
						h13.564c2.361,0,4.276,1.915,4.276,4.276C1690.057,978.745,1688.142,980.66,1685.781,980.66z"/>
					<path style="fill:#130F40;" d="M1685.781,981.66h-13.564c-2.909,0-5.276-2.366-5.276-5.275c0-2.909,2.367-5.276,5.276-5.276
						h13.564c2.909,0,5.276,2.367,5.276,5.276C1691.057,979.293,1688.69,981.66,1685.781,981.66z M1672.217,973.108
						c-1.806,0-3.276,1.47-3.276,3.276c0,1.806,1.47,3.275,3.276,3.275h13.564c1.806,0,3.276-1.47,3.276-3.275
						c0-1.807-1.47-3.276-3.276-3.276H1672.217z"/>
				</g>
				<g>
					<path style="fill:#FFFFFF;" d="M1295.558,1353.158h-13.564c-2.361,0-4.276-1.914-4.276-4.276s1.915-4.276,4.276-4.276h13.564
						c2.362,0,4.276,1.914,4.276,4.276S1297.92,1353.158,1295.558,1353.158z"/>
					<path style="fill:#130F40;" d="M1295.558,1354.158h-13.564c-2.909,0-5.276-2.366-5.276-5.275s2.367-5.276,5.276-5.276h13.564
						c2.909,0,5.276,2.367,5.276,5.276S1298.467,1354.158,1295.558,1354.158z M1281.994,1345.606c-1.806,0-3.276,1.47-3.276,3.276
						c0,1.806,1.47,3.275,3.276,3.275h13.564c1.806,0,3.276-1.47,3.276-3.275c0-1.807-1.47-3.276-3.276-3.276H1281.994z"/>
				</g>
				<g>
					<g>
						<path style="fill:#130F40;" d="M1485.053,1197.952c-0.552,0-1-0.447-1-1v-26.683c0-0.553,0.448-1,1-1s1,0.447,1,1v26.683
							C1486.053,1197.504,1485.605,1197.952,1485.053,1197.952z"/>
					</g>
					<g>
						<path style="fill:#130F40;" d="M1477.887,1197.952c-0.552,0-1-0.447-1-1v-26.683c0-0.553,0.448-1,1-1s1,0.447,1,1v26.683
							C1478.887,1197.504,1478.439,1197.952,1477.887,1197.952z"/>
					</g>
					<g>
						<path style="fill:#130F40;" d="M1470.721,1197.952c-0.552,0-1-0.447-1-1v-26.683c0-0.553,0.448-1,1-1s1,0.447,1,1v26.683
							C1471.721,1197.504,1471.273,1197.952,1470.721,1197.952z"/>
					</g>
					<g>
						<path style="fill:#130F40;" d="M1463.555,1197.952c-0.552,0-1-0.447-1-1v-26.683c0-0.553,0.448-1,1-1s1,0.447,1,1v26.683
							C1464.555,1197.504,1464.107,1197.952,1463.555,1197.952z"/>
					</g>
					<g>
						<path style="fill:#130F40;" d="M1456.389,1197.952c-0.552,0-1-0.447-1-1v-26.683c0-0.553,0.448-1,1-1s1,0.447,1,1v26.683
							C1457.389,1197.504,1456.941,1197.952,1456.389,1197.952z"/>
					</g>
					<g>
						<path style="fill:#130F40;" d="M1449.222,1197.952c-0.552,0-1-0.447-1-1v-26.683c0-0.553,0.448-1,1-1s1,0.447,1,1v26.683
							C1450.222,1197.504,1449.774,1197.952,1449.222,1197.952z"/>
					</g>
					<g>
						<path style="fill:#130F40;" d="M1442.056,1197.952c-0.552,0-1-0.447-1-1v-26.683c0-0.553,0.448-1,1-1s1,0.447,1,1v26.683
							C1443.056,1197.504,1442.608,1197.952,1442.056,1197.952z"/>
					</g>
					<g>
						<path style="fill:#130F40;" d="M1434.89,1197.952c-0.552,0-1-0.447-1-1v-26.683c0-0.553,0.448-1,1-1s1,0.447,1,1v26.683
							C1435.89,1197.504,1435.442,1197.952,1434.89,1197.952z"/>
					</g>
					<g>
						<path style="fill:#130F40;" d="M1427.724,1197.952c-0.552,0-1-0.447-1-1v-26.683c0-0.553,0.448-1,1-1s1,0.447,1,1v26.683
							C1428.724,1197.504,1428.276,1197.952,1427.724,1197.952z"/>
					</g>
					<g>
						<path style="fill:#130F40;" d="M1420.557,1197.952c-0.552,0-1-0.447-1-1v-26.683c0-0.553,0.448-1,1-1s1,0.447,1,1v26.683
							C1421.557,1197.504,1421.11,1197.952,1420.557,1197.952z"/>
					</g>
					<g>
						<path style="fill:#130F40;" d="M1413.391,1197.952c-0.552,0-1-0.447-1-1v-26.683c0-0.553,0.448-1,1-1s1,0.447,1,1v26.683
							C1414.391,1197.504,1413.943,1197.952,1413.391,1197.952z"/>
					</g>
					<g>
						<path style="fill:#130F40;" d="M1406.225,1197.952c-0.552,0-1-0.447-1-1v-26.683c0-0.553,0.448-1,1-1s1,0.447,1,1v26.683
							C1407.225,1197.504,1406.777,1197.952,1406.225,1197.952z"/>
					</g>
					<g>
						<path style="fill:#130F40;" d="M1399.059,1197.952c-0.552,0-1-0.447-1-1v-26.683c0-0.553,0.448-1,1-1s1,0.447,1,1v26.683
							C1400.059,1197.504,1399.611,1197.952,1399.059,1197.952z"/>
					</g>
					<g>
						<path style="fill:#130F40;" d="M1391.892,1197.952c-0.552,0-1-0.447-1-1v-26.683c0-0.553,0.448-1,1-1s1,0.447,1,1v26.683
							C1392.892,1197.504,1392.445,1197.952,1391.892,1197.952z"/>
					</g>
					<g>
						<path style="fill:#130F40;" d="M1384.726,1197.952c-0.552,0-1-0.447-1-1v-26.683c0-0.553,0.448-1,1-1s1,0.447,1,1v26.683
							C1385.726,1197.504,1385.279,1197.952,1384.726,1197.952z"/>
					</g>
					<g>
						<path style="fill:#130F40;" d="M1377.56,1197.952c-0.552,0-1-0.447-1-1v-26.683c0-0.553,0.448-1,1-1s1,0.447,1,1v26.683
							C1378.56,1197.504,1378.112,1197.952,1377.56,1197.952z"/>
					</g>
					<g>
						<path style="fill:#130F40;" d="M1370.394,1197.952c-0.552,0-1-0.447-1-1v-26.683c0-0.553,0.448-1,1-1s1,0.447,1,1v26.683
							C1371.394,1197.504,1370.946,1197.952,1370.394,1197.952z"/>
					</g>
					<g>
						<path style="fill:#130F40;" d="M1363.228,1197.952c-0.552,0-1-0.447-1-1v-26.683c0-0.553,0.448-1,1-1s1,0.447,1,1v26.683
							C1364.228,1197.504,1363.78,1197.952,1363.228,1197.952z"/>
					</g>
					<g>
						<path style="fill:#130F40;" d="M1356.061,1197.952c-0.552,0-1-0.447-1-1v-26.683c0-0.553,0.448-1,1-1s1,0.447,1,1v26.683
							C1357.061,1197.504,1356.614,1197.952,1356.061,1197.952z"/>
					</g>
					<g>
						<path style="fill:#130F40;" d="M1348.895,1197.952c-0.552,0-1-0.447-1-1v-26.683c0-0.553,0.448-1,1-1s1,0.447,1,1v26.683
							C1349.895,1197.504,1349.448,1197.952,1348.895,1197.952z"/>
					</g>
					<g>
						<path style="fill:#130F40;" d="M1341.729,1197.952c-0.552,0-1-0.447-1-1v-26.683c0-0.553,0.448-1,1-1s1,0.447,1,1v26.683
							C1342.729,1197.504,1342.281,1197.952,1341.729,1197.952z"/>
					</g>
					<g>
						<path style="fill:#130F40;" d="M1334.563,1197.952c-0.552,0-1-0.447-1-1v-26.683c0-0.553,0.448-1,1-1s1,0.447,1,1v26.683
							C1335.563,1197.504,1335.115,1197.952,1334.563,1197.952z"/>
					</g>
				</g>
				<g>
					<g>
						
							<ellipse transform="matrix(0.3827 -0.9239 0.9239 0.3827 -15.2698 2732.0696)" style="fill:#130F40;" cx="2036.778" cy="1377.461" rx="74.664" ry="74.664"/>
						<path style="fill:#130F40;" d="M2036.778,1453.125c-41.722,0-75.665-33.942-75.665-75.664s33.943-75.665,75.665-75.665
							c41.721,0,75.664,33.943,75.664,75.665S2078.5,1453.125,2036.778,1453.125z M2036.778,1303.796
							c-40.619,0-73.665,33.046-73.665,73.665c0,40.618,33.046,73.664,73.665,73.664c40.619,0,73.664-33.046,73.664-73.664
							C2110.442,1336.842,2077.397,1303.796,2036.778,1303.796z"/>
					</g>
					<g>
						<path style="fill:#FFFFFF;" d="M1983.983,1377.739c0.154,29.158,23.915,52.671,53.073,52.517
							c29.158-0.154,52.671-23.915,52.517-53.073c-0.154-29.158-23.915-52.671-53.073-52.517
							C2007.342,1324.82,1983.829,1348.582,1983.983,1377.739z"/>
						<path style="fill:#130F40;" d="M2036.774,1431.257c-29.534,0-53.635-23.944-53.791-53.513
							c-0.156-29.663,23.849-53.922,53.512-54.078c0.098-0.001,0.195-0.001,0.293-0.001c14.26,0,27.684,5.518,37.829,15.557
							c10.214,10.107,15.881,23.586,15.956,37.956c0.076,14.369-5.448,27.907-15.555,38.122
							c-10.108,10.214-23.587,15.881-37.956,15.956C2036.967,1431.256,2036.868,1431.257,2036.774,1431.257z M1984.983,1377.735
							c0.15,28.467,23.357,51.523,51.791,51.523c0.092,0,0.185,0,0.277-0.001c13.835-0.072,26.813-5.529,36.545-15.363
							c9.731-9.834,15.05-22.869,14.977-36.705c-0.073-13.835-5.529-26.813-15.363-36.545c-9.767-9.664-22.693-14.977-36.423-14.977
							c-0.094,0-0.187,0-0.282,0.001C2007.945,1325.817,1984.832,1349.174,1984.983,1377.735L1984.983,1377.735z"/>
					</g>
				</g>
				<g>
					<g>
						
							<ellipse transform="matrix(0.7071 -0.7071 0.7071 0.7071 -550.7985 1425.1775)" style="fill:#130F40;" cx="1444.942" cy="1377.461" rx="74.664" ry="74.664"/>
						<path style="fill:#130F40;" d="M1444.942,1453.125c-41.722,0-75.665-33.942-75.665-75.664s33.943-75.665,75.665-75.665
							c41.721,0,75.664,33.943,75.664,75.665S1486.663,1453.125,1444.942,1453.125z M1444.942,1303.796
							c-40.619,0-73.665,33.046-73.665,73.665c0,40.618,33.046,73.664,73.665,73.664s73.664-33.046,73.664-73.664
							C1518.606,1336.842,1485.561,1303.796,1444.942,1303.796z"/>
					</g>
					<g>
						
							<ellipse transform="matrix(0.6115 -0.7913 0.7913 0.6115 -528.5402 1678.5005)" style="fill:#FFFFFF;" cx="1444.942" cy="1377.461" rx="52.796" ry="52.796"/>
						<path style="fill:#130F40;" d="M1444.938,1431.257c-29.534,0-53.635-23.944-53.791-53.513
							c-0.156-29.663,23.849-53.922,53.512-54.078c0.098-0.001,0.195-0.001,0.293-0.001c14.26,0,27.684,5.518,37.829,15.557
							c10.214,10.107,15.881,23.586,15.957,37.956c0.076,14.369-5.449,27.907-15.556,38.122
							c-10.107,10.214-23.587,15.881-37.956,15.956C1445.131,1431.256,1445.032,1431.257,1444.938,1431.257z M1393.147,1377.735
							c0.15,28.467,23.357,51.523,51.791,51.523c0.092,0,0.185,0,0.277-0.001c13.835-0.072,26.813-5.529,36.545-15.363
							c9.731-9.834,15.05-22.869,14.978-36.705c-0.073-13.835-5.529-26.813-15.363-36.545c-9.767-9.664-22.693-14.977-36.423-14.977
							c-0.094,0-0.187,0-0.282,0.001C1416.109,1325.817,1392.996,1349.174,1393.147,1377.735L1393.147,1377.735z"/>
					</g>
				</g>
				<g>
					<path style="fill:#130F40;" d="M2050.958,1145.111c-0.552,0-1-0.447-1-1v-135.327c0-0.553,0.448-1,1-1c0.552,0,1,0.447,1,1
						v135.327C2051.958,1144.663,2051.51,1145.111,2050.958,1145.111z"/>
				</g>
				<g>
					<path style="fill:#130F40;" d="M1908.421,1145.111c-0.552,0-1-0.447-1-1v-135.327c0-0.553,0.448-1,1-1s1,0.447,1,1v135.327
						C1909.421,1144.663,1908.974,1145.111,1908.421,1145.111z"/>
				</g>
				<g>
					<path style="fill:#130F40;" d="M2193.493,1145.111c-0.552,0-1-0.447-1-1v-135.327c0-0.553,0.448-1,1-1c0.552,0,1,0.447,1,1
						v135.327C2194.493,1144.663,2194.046,1145.111,2193.493,1145.111z"/>
				</g>
				<g>
					<path style="fill:#130F40;" d="M2335.165,1008.784v213.203V1008.784z"/>
					<path style="fill:#130F40;" d="M2335.165,1222.987c-0.552,0-1-0.447-1-1v-213.203c0-0.553,0.448-1,1-1s1,0.447,1,1v213.203
						C2336.165,1222.54,2335.718,1222.987,2335.165,1222.987z"/>
				</g>
				<g>
					<path style="fill:#130F40;" d="M1762.175,1145.111c-0.552,0-1-0.447-1-1v-135.327c0-0.553,0.448-1,1-1s1,0.447,1,1v135.327
						C1763.175,1144.663,1762.727,1145.111,1762.175,1145.111z"/>
				</g>
				<g>
					<path style="fill:#130F40;" d="M1620.04,1145.111c-0.552,0-1-0.447-1-1v-135.327c0-0.553,0.448-1,1-1s1,0.447,1,1v135.327
						C1621.04,1144.663,1620.592,1145.111,1620.04,1145.111z"/>
				</g>
				<g>
					<path style="fill:#130F40;" d="M1480.809,1145.111c-0.552,0-1-0.447-1-1v-135.327c0-0.553,0.448-1,1-1s1,0.447,1,1v135.327
						C1481.809,1144.663,1481.361,1145.111,1480.809,1145.111z"/>
				</g>
				<g>
					
						<rect x="2048.204" y="956.346" transform="matrix(-1 -1.224647e-16 1.224647e-16 -1 4348.1479 1952.7686)" style="fill:#FFFFFF;" width="251.739" height="40.077"/>
					<path style="fill:#130F40;" d="M2299.943,997.423h-251.739c-0.552,0-1-0.447-1-1v-40.078c0-0.553,0.448-1,1-1h251.739
						c0.552,0,1,0.447,1,1v40.078C2300.943,996.976,2300.496,997.423,2299.943,997.423z M2049.205,995.423h249.739v-38.078h-249.739
						V995.423z"/>
				</g>
				<g>
					
						<rect x="2489.089" y="1346.656" transform="matrix(-1 -1.224647e-16 1.224647e-16 -1 5066.5371 2725.0603)" style="fill:#FFFFFF;" width="88.358" height="31.749"/>
					<path style="fill:#130F40;" d="M2577.448,1379.405h-88.358c-0.552,0-1-0.447-1-1v-31.749c0-0.553,0.448-1,1-1h88.358
						c0.552,0,1,0.447,1,1v31.749C2578.448,1378.958,2578,1379.405,2577.448,1379.405z M2490.089,1377.405h86.358v-29.749h-86.358
						V1377.405z"/>
				</g>
				<g>
					
						<rect x="1334.563" y="956.346" transform="matrix(-1 -1.224647e-16 1.224647e-16 -1 2920.8647 1952.7686)" style="fill:#FFFFFF;" width="251.739" height="40.077"/>
					<path style="fill:#130F40;" d="M1586.302,997.423h-251.739c-0.552,0-1-0.447-1-1v-40.078c0-0.553,0.448-1,1-1h251.739
						c0.552,0,1,0.447,1,1v40.078C1587.302,996.976,1586.854,997.423,1586.302,997.423z M1335.563,995.423h249.739v-38.078h-249.739
						V995.423z"/>
				</g>
				<g>
					<g>
						<path style="fill:#FFFFFF;" d="M2420.435,1140.211h21.658c2.747,0,4.974-2.227,4.974-4.974v-59.188
							c0-2.747-2.227-4.974-4.974-4.974h-21.658c-2.747,0-4.974,2.227-4.974,4.974v59.188
							C2415.461,1137.984,2417.688,1140.211,2420.435,1140.211z"/>
						<path style="fill:#130F40;" d="M2442.093,1141.21h-21.658c-3.294,0-5.974-2.68-5.974-5.974v-59.188
							c0-3.294,2.68-5.974,5.974-5.974h21.658c3.294,0,5.974,2.68,5.974,5.974v59.188
							C2448.066,1138.531,2445.387,1141.21,2442.093,1141.21z M2420.434,1072.076c-2.191,0-3.974,1.782-3.974,3.974v59.188
							c0,2.191,1.783,3.974,3.974,3.974h21.658c2.191,0,3.974-1.782,3.974-3.974v-59.188c0-2.191-1.783-3.974-3.974-3.974H2420.434z
							"/>
					</g>
					<g>
						<path style="fill:#130F40;" d="M2439.298,1083.885c-0.552,0-1-0.447-1-1v-19.679c0-5.362-4.363-9.725-9.726-9.725h-69.967
							c-0.552,0-1-0.447-1-1c0-0.553,0.448-1,1-1h69.967c6.466,0,11.726,5.26,11.726,11.725v19.679
							C2440.298,1083.438,2439.851,1083.885,2439.298,1083.885z"/>
					</g>
				</g>
				<g>
					<g>
						<path style="fill:#FFFFFF;" d="M2683.036,1140.211h21.658c2.747,0,4.974-2.227,4.974-4.974v-59.188
							c0-2.747-2.227-4.974-4.974-4.974h-21.658c-2.747,0-4.974,2.227-4.974,4.974v59.188
							C2678.062,1137.984,2680.289,1140.211,2683.036,1140.211z"/>
						<path style="fill:#130F40;" d="M2704.694,1141.21h-21.658c-3.294,0-5.973-2.68-5.973-5.974v-59.188
							c0-3.294,2.68-5.974,5.973-5.974h21.658c3.294,0,5.974,2.68,5.974,5.974v59.188
							C2710.667,1138.531,2707.988,1141.21,2704.694,1141.21z M2683.035,1072.076c-2.191,0-3.973,1.782-3.973,3.974v59.188
							c0,2.191,1.782,3.974,3.973,3.974h21.658c2.191,0,3.974-1.782,3.974-3.974v-59.188c0-2.191-1.783-3.974-3.974-3.974H2683.035z
							"/>
					</g>
					<g>
						<path style="fill:#130F40;" d="M2701.899,1083.885c-0.552,0-1-0.447-1-1v-19.679c0-5.362-4.363-9.725-9.726-9.725h-69.967
							c-0.552,0-1-0.447-1-1c0-0.553,0.448-1,1-1h69.967c6.466,0,11.726,5.26,11.726,11.725v19.679
							C2702.899,1083.438,2702.451,1083.885,2701.899,1083.885z"/>
					</g>
				</g>
				<g>
					<path style="fill:#FFFFFF;" d="M1209.085,1221.987v72.717h19.124c3.618,0,6.55-2.933,6.55-6.55v-59.616
						c0-3.618-2.932-6.55-6.55-6.55H1209.085z"/>
					<path style="fill:#130F40;" d="M1228.208,1295.705h-19.124c-0.552,0-1-0.447-1-1v-72.718c0-0.553,0.448-1,1-1h19.124
						c4.163,0,7.55,3.388,7.55,7.551v59.616C1235.759,1292.317,1232.371,1295.705,1228.208,1295.705z M1210.085,1293.705h18.124
						c3.061,0,5.55-2.49,5.55-5.551v-59.616c0-3.061-2.49-5.551-5.55-5.551h-18.124V1293.705z"/>
				</g>
				<g>
					<path style="fill:#130F40;" d="M2357.397,1396.826c-0.552,0-1-0.447-1-1c0-0.553,0.448-1,1-1
						c27.365,0,49.628-22.263,49.628-49.627c0-3.458-0.365-6.927-1.083-10.31l-65.948-384.719
						c-4.831-22.743-25.247-39.279-48.537-39.279c-0.552,0-1-0.447-1-1c0-0.553,0.448-1,1-1c24.229,0,45.468,17.202,50.501,40.902
						l65.948,384.719c0.74,3.48,1.119,7.089,1.119,10.687C2409.025,1373.666,2385.865,1396.826,2357.397,1396.826z"/>
				</g>
				<g>
					<path style="fill:#130F40;" d="M2667.143,1334.681h-275.795c-11.989,0-21.707-9.719-21.707-21.708s9.719-21.708,21.707-21.708
						h268.673L2667.143,1334.681z"/>
					<path style="fill:#130F40;" d="M2667.143,1335.681h-275.794c-12.521,0-22.707-10.187-22.707-22.707
						c0-12.521,10.186-22.708,22.707-22.708h268.673c0.49,0,0.908,0.354,0.987,0.838l7.122,43.415
						c0.047,0.29-0.035,0.586-0.225,0.81C2667.715,1335.552,2667.436,1335.681,2667.143,1335.681z M2391.348,1292.266
						c-11.418,0-20.707,9.29-20.707,20.708s9.289,20.707,20.707,20.707h274.617l-6.793-41.415H2391.348z"/>
				</g>
				<g>
					<g>
						<path style="fill:#FFFFFF;" d="M2608.513,1327.315c-0.552,0-1-0.447-1-1v-26.683c0-0.553,0.448-1,1-1s1,0.447,1,1v26.683
							C2609.513,1326.868,2609.066,1327.315,2608.513,1327.315z"/>
					</g>
					<g>
						<path style="fill:#FFFFFF;" d="M2601.347,1327.315c-0.552,0-1-0.447-1-1v-26.683c0-0.553,0.448-1,1-1c0.552,0,1,0.447,1,1
							v26.683C2602.347,1326.868,2601.9,1327.315,2601.347,1327.315z"/>
					</g>
					<g>
						<path style="fill:#FFFFFF;" d="M2594.181,1327.315c-0.552,0-1-0.447-1-1v-26.683c0-0.553,0.448-1,1-1c0.552,0,1,0.447,1,1
							v26.683C2595.181,1326.868,2594.733,1327.315,2594.181,1327.315z"/>
					</g>
					<g>
						<path style="fill:#FFFFFF;" d="M2587.015,1327.315c-0.552,0-1-0.447-1-1v-26.683c0-0.553,0.448-1,1-1c0.552,0,1,0.447,1,1
							v26.683C2588.015,1326.868,2587.567,1327.315,2587.015,1327.315z"/>
					</g>
					<g>
						<path style="fill:#FFFFFF;" d="M2579.849,1327.315c-0.552,0-1-0.447-1-1v-26.683c0-0.553,0.448-1,1-1s1,0.447,1,1v26.683
							C2580.849,1326.868,2580.401,1327.315,2579.849,1327.315z"/>
					</g>
					<g>
						<path style="fill:#FFFFFF;" d="M2572.682,1327.315c-0.552,0-1-0.447-1-1v-26.683c0-0.553,0.448-1,1-1s1,0.447,1,1v26.683
							C2573.682,1326.868,2573.235,1327.315,2572.682,1327.315z"/>
					</g>
					<g>
						<path style="fill:#FFFFFF;" d="M2565.517,1327.315c-0.552,0-1-0.447-1-1v-26.683c0-0.553,0.448-1,1-1c0.552,0,1,0.447,1,1
							v26.683C2566.517,1326.868,2566.069,1327.315,2565.517,1327.315z"/>
					</g>
					<g>
						<path style="fill:#FFFFFF;" d="M2558.351,1327.315c-0.552,0-1-0.447-1-1v-26.683c0-0.553,0.448-1,1-1c0.552,0,1,0.447,1,1
							v26.683C2559.351,1326.868,2558.903,1327.315,2558.351,1327.315z"/>
					</g>
					<g>
						<path style="fill:#FFFFFF;" d="M2551.184,1327.315c-0.552,0-1-0.447-1-1v-26.683c0-0.553,0.448-1,1-1c0.552,0,1,0.447,1,1
							v26.683C2552.184,1326.868,2551.736,1327.315,2551.184,1327.315z"/>
					</g>
					<g>
						<path style="fill:#FFFFFF;" d="M2544.018,1327.315c-0.552,0-1-0.447-1-1v-26.683c0-0.553,0.448-1,1-1c0.552,0,1,0.447,1,1
							v26.683C2545.018,1326.868,2544.57,1327.315,2544.018,1327.315z"/>
					</g>
					<g>
						<path style="fill:#FFFFFF;" d="M2536.851,1327.315c-0.552,0-1-0.447-1-1v-26.683c0-0.553,0.448-1,1-1c0.552,0,1,0.447,1,1
							v26.683C2537.851,1326.868,2537.404,1327.315,2536.851,1327.315z"/>
					</g>
					<g>
						<path style="fill:#FFFFFF;" d="M2529.685,1327.315c-0.552,0-1-0.447-1-1v-26.683c0-0.553,0.448-1,1-1c0.552,0,1,0.447,1,1
							v26.683C2530.685,1326.868,2530.238,1327.315,2529.685,1327.315z"/>
					</g>
					<g>
						<path style="fill:#FFFFFF;" d="M2522.519,1327.315c-0.552,0-1-0.447-1-1v-26.683c0-0.553,0.448-1,1-1c0.552,0,1,0.447,1,1
							v26.683C2523.519,1326.868,2523.072,1327.315,2522.519,1327.315z"/>
					</g>
					<g>
						<path style="fill:#FFFFFF;" d="M2515.353,1327.315c-0.552,0-1-0.447-1-1v-26.683c0-0.553,0.448-1,1-1c0.552,0,1,0.447,1,1
							v26.683C2516.353,1326.868,2515.905,1327.315,2515.353,1327.315z"/>
					</g>
					<g>
						<path style="fill:#FFFFFF;" d="M2508.187,1327.315c-0.552,0-1-0.447-1-1v-26.683c0-0.553,0.448-1,1-1c0.552,0,1,0.447,1,1
							v26.683C2509.187,1326.868,2508.739,1327.315,2508.187,1327.315z"/>
					</g>
					<g>
						<path style="fill:#FFFFFF;" d="M2501.021,1327.315c-0.552,0-1-0.447-1-1v-26.683c0-0.553,0.448-1,1-1c0.552,0,1,0.447,1,1
							v26.683C2502.021,1326.868,2501.573,1327.315,2501.021,1327.315z"/>
					</g>
					<g>
						<path style="fill:#FFFFFF;" d="M2493.854,1327.315c-0.552,0-1-0.447-1-1v-26.683c0-0.553,0.448-1,1-1c0.552,0,1,0.447,1,1
							v26.683C2494.854,1326.868,2494.406,1327.315,2493.854,1327.315z"/>
					</g>
					<g>
						<path style="fill:#FFFFFF;" d="M2486.688,1327.315c-0.552,0-1-0.447-1-1v-26.683c0-0.553,0.448-1,1-1c0.552,0,1,0.447,1,1
							v26.683C2487.688,1326.868,2487.24,1327.315,2486.688,1327.315z"/>
					</g>
					<g>
						<path style="fill:#FFFFFF;" d="M2479.522,1327.315c-0.552,0-1-0.447-1-1v-26.683c0-0.553,0.448-1,1-1c0.552,0,1,0.447,1,1
							v26.683C2480.522,1326.868,2480.074,1327.315,2479.522,1327.315z"/>
					</g>
					<g>
						<path style="fill:#FFFFFF;" d="M2472.356,1327.315c-0.552,0-1-0.447-1-1v-26.683c0-0.553,0.448-1,1-1c0.552,0,1,0.447,1,1
							v26.683C2473.356,1326.868,2472.908,1327.315,2472.356,1327.315z"/>
					</g>
					<g>
						<path style="fill:#FFFFFF;" d="M2465.189,1327.315c-0.552,0-1-0.447-1-1v-26.683c0-0.553,0.448-1,1-1c0.552,0,1,0.447,1,1
							v26.683C2466.189,1326.868,2465.742,1327.315,2465.189,1327.315z"/>
					</g>
					<g>
						<path style="fill:#FFFFFF;" d="M2458.023,1327.315c-0.552,0-1-0.447-1-1v-26.683c0-0.553,0.448-1,1-1c0.552,0,1,0.447,1,1
							v26.683C2459.023,1326.868,2458.576,1327.315,2458.023,1327.315z"/>
					</g>
				</g>
				<g>
					<path style="fill:#FFFFFF;" d="M2381.113,1312.974c0,6.757,5.478,12.234,12.234,12.234c6.757,0,12.235-5.478,12.235-12.234
						s-5.478-12.235-12.235-12.235C2386.591,1300.739,2381.113,1306.217,2381.113,1312.974z M2410.588,1312.974
						c0,6.757,5.478,12.234,12.235,12.234c6.757,0,12.234-5.478,12.234-12.234s-5.478-12.235-12.234-12.235
						C2416.065,1300.739,2410.588,1306.217,2410.588,1312.974z"/>
					<path style="fill:#130F40;" d="M2422.823,1326.208c-7.297,0-13.234-5.937-13.234-13.234c0-7.298,5.937-13.234,13.234-13.234
						c7.298,0,13.234,5.936,13.234,13.234C2436.057,1320.272,2430.12,1326.208,2422.823,1326.208z M2422.823,1301.74
						c-6.195,0-11.234,5.04-11.234,11.234c0,6.194,5.039,11.234,11.234,11.234c6.195,0,11.234-5.04,11.234-11.234
						C2434.057,1306.78,2429.018,1301.74,2422.823,1301.74z M2393.347,1326.208c-7.297,0-13.234-5.937-13.234-13.234
						c0-7.298,5.937-13.234,13.234-13.234c7.298,0,13.234,5.936,13.234,13.234
						C2406.582,1320.272,2400.645,1326.208,2393.347,1326.208z M2393.347,1301.74c-6.195,0-11.234,5.04-11.234,11.234
						c0,6.194,5.039,11.234,11.234,11.234c6.195,0,11.234-5.04,11.234-11.234C2404.582,1306.78,2399.542,1301.74,2393.347,1301.74z"
						/>
				</g>
				<g>
					<path style="fill:#FFFFFF;" d="M2621.685,1312.974c0,6.757,5.478,12.234,12.235,12.234c6.757,0,12.234-5.478,12.234-12.234
						s-5.478-12.235-12.234-12.235C2627.163,1300.739,2621.685,1306.217,2621.685,1312.974z M2651.16,1312.974
						c0,6.757,5.478,12.234,12.235,12.234c0.739,0,1.459-0.077,2.161-0.202l-3.957-24.121
						C2655.696,1301.756,2651.16,1306.828,2651.16,1312.974z"/>
					<path style="fill:#130F40;" d="M2663.394,1326.208c-7.297,0-13.234-5.937-13.234-13.234c0-6.506,4.855-12.128,11.294-13.078
						c0.54-0.088,1.044,0.289,1.133,0.827l3.957,24.121c0.088,0.54-0.273,1.051-0.812,1.146
						C2664.908,1326.137,2664.144,1326.208,2663.394,1326.208z M2660.779,1302.061c-4.977,1.194-8.619,5.723-8.619,10.913
						c0,6.194,5.04,11.234,11.234,11.234c0.33,0,0.664-0.017,1.01-0.051L2660.779,1302.061z M2633.92,1326.208
						c-7.298,0-13.235-5.937-13.235-13.234c0-7.298,5.937-13.234,13.235-13.234c7.298,0,13.235,5.936,13.235,13.234
						C2647.154,1320.272,2641.217,1326.208,2633.92,1326.208z M2633.92,1301.74c-6.195,0-11.235,5.04-11.235,11.234
						c0,6.194,5.04,11.234,11.235,11.234c6.195,0,11.235-5.04,11.235-11.234C2645.154,1306.78,2640.115,1301.74,2633.92,1301.74z"/>
				</g>
				<g>
					<polygon style="fill:#130F40;" points="2351.056,1008.785 2335.165,1008.784 2335.574,1221.987 2387.603,1221.987 					"/>
					<path style="fill:#130F40;" d="M2387.603,1222.987h-52.029c-0.552,0-0.999-0.446-1-0.998l-0.409-213.203
						c0-0.266,0.104-0.521,0.292-0.708c0.188-0.188,0.442-0.294,0.708-0.294l15.891,0.001c0.487,0,0.903,0.351,0.986,0.831
						l36.546,213.202c0.05,0.29-0.031,0.588-0.221,0.814C2388.177,1222.857,2387.898,1222.987,2387.603,1222.987z
						 M2336.572,1220.987h49.845l-36.204-211.202l-14.046-0.001L2336.572,1220.987z"/>
				</g>
			</g>
		</g>
	</g>
	<path style="fill:#FFFFFF;" d="M3000,1800H0l0-435.047c175.393-128.125,376.781-149.268,530.312-149.268
		c492.551,0,975.048,482.395,1479.152,482.395c371.649,0,728.713-90.599,990.536-355.658V1800z"/>
	<g>
		<g>
			<path style="fill:#8FB3DC;" d="M1197.68,1453.125H490.333c-0.552,0-1-0.447-1-1s0.448-1,1-1h707.347c0.552,0,1,0.447,1,1
				S1198.232,1453.125,1197.68,1453.125z"/>
		</g>
		<g>
			<g>
				<path style="fill:#130F40;" d="M579.206,399.521v997.931c0,30.195,24.478,54.673,54.674,54.673h444.292
					c30.195,0,54.673-24.478,54.673-54.673V399.521c0-30.195-24.478-54.673-54.673-54.673H633.879
					C603.684,344.848,579.206,369.326,579.206,399.521z"/>
				<path style="fill:#130F40;" d="M1078.171,1453.125H633.879c-30.698,0-55.673-24.975-55.673-55.673V399.521
					c0-30.698,24.975-55.673,55.673-55.673h444.292c30.699,0,55.674,24.975,55.674,55.673v997.932
					C1133.845,1428.151,1108.87,1453.125,1078.171,1453.125z M633.879,345.848c-29.596,0-53.673,24.077-53.673,53.673v997.932
					c0,29.596,24.078,53.673,53.673,53.673h444.292c29.596,0,53.674-24.077,53.674-53.673V399.521
					c0-29.596-24.078-53.673-53.674-53.673H633.879z"/>
			</g>
			<g>
				<path style="fill:#FFFFFF;" d="M555.169,399.521v997.931c0,30.195,24.478,54.673,54.673,54.673h444.292
					c30.195,0,54.673-24.478,54.673-54.673V399.521c0-30.195-24.478-54.673-54.673-54.673H609.842
					C579.647,344.848,555.169,369.326,555.169,399.521z"/>
				<path style="fill:#130F40;" d="M1054.134,1453.125H609.842c-30.699,0-55.674-24.975-55.674-55.673V399.521
					c0-30.698,24.975-55.673,55.674-55.673h444.291c30.698,0,55.673,24.975,55.673,55.673v997.932
					C1109.807,1428.151,1084.832,1453.125,1054.134,1453.125z M609.842,345.848c-29.596,0-53.674,24.077-53.674,53.673v997.932
					c0,29.596,24.078,53.673,53.674,53.673h444.291c29.596,0,53.673-24.077,53.673-53.673V399.521
					c0-29.596-24.078-53.673-53.673-53.673H609.842z"/>
			</g>
			<g>
				<path style="fill:#130F40;" d="M669.348,1261.002h-35.078c-13.638,0-24.694-11.056-24.694-24.694v-35.078
					c0-13.638,11.056-24.694,24.694-24.694h35.078c13.638,0,24.694,11.056,24.694,24.694v35.078
					C694.042,1249.947,682.987,1261.002,669.348,1261.002z"/>
				<path style="fill:#130F40;" d="M669.349,1262.002H634.27c-14.167,0-25.694-11.526-25.694-25.694v-35.077
					c0-14.168,11.526-25.694,25.694-25.694h35.078c14.167,0,25.694,11.526,25.694,25.694v35.077
					C695.042,1250.476,683.516,1262.002,669.349,1262.002z M634.27,1177.537c-13.065,0-23.694,10.629-23.694,23.694v35.077
					c0,13.065,10.629,23.694,23.694,23.694h35.078c13.065,0,23.694-10.629,23.694-23.694v-35.077
					c0-13.065-10.629-23.694-23.694-23.694H634.27z"/>
			</g>
			<g>
				<path style="fill:#130F40;" d="M789.467,1261.002h-35.078c-13.638,0-24.694-11.056-24.694-24.694v-35.078
					c0-13.638,11.056-24.694,24.694-24.694h35.078c13.638,0,24.694,11.056,24.694,24.694v35.078
					C814.161,1249.947,803.105,1261.002,789.467,1261.002z"/>
				<path style="fill:#130F40;" d="M789.467,1262.002h-35.078c-14.167,0-25.694-11.526-25.694-25.694v-35.077
					c0-14.168,11.526-25.694,25.694-25.694h35.078c14.167,0,25.694,11.526,25.694,25.694v35.077
					C815.161,1250.476,803.635,1262.002,789.467,1262.002z M754.389,1177.537c-13.065,0-23.694,10.629-23.694,23.694v35.077
					c0,13.065,10.629,23.694,23.694,23.694h35.078c13.065,0,23.694-10.629,23.694-23.694v-35.077
					c0-13.065-10.629-23.694-23.694-23.694H754.389z"/>
			</g>
			<g>
				<path style="fill:#130F40;" d="M909.586,1261.002h-35.078c-13.638,0-24.694-11.056-24.694-24.694v-35.078
					c0-13.638,11.056-24.694,24.694-24.694h35.078c13.638,0,24.694,11.056,24.694,24.694v35.078
					C934.28,1249.947,923.224,1261.002,909.586,1261.002z"/>
				<path style="fill:#130F40;" d="M909.586,1262.002h-35.078c-14.167,0-25.694-11.526-25.694-25.694v-35.077
					c0-14.168,11.526-25.694,25.694-25.694h35.078c14.167,0,25.694,11.526,25.694,25.694v35.077
					C935.28,1250.476,923.753,1262.002,909.586,1262.002z M874.508,1177.537c-13.065,0-23.694,10.629-23.694,23.694v35.077
					c0,13.065,10.629,23.694,23.694,23.694h35.078c13.065,0,23.694-10.629,23.694-23.694v-35.077
					c0-13.065-10.629-23.694-23.694-23.694H874.508z"/>
			</g>
			<g>
				<path style="fill:#130F40;" d="M1029.704,1261.002h-35.078c-13.638,0-24.694-11.056-24.694-24.694v-35.078
					c0-13.638,11.056-24.694,24.694-24.694h35.078c13.638,0,24.694,11.056,24.694,24.694v35.078
					C1054.399,1249.947,1043.343,1261.002,1029.704,1261.002z"/>
				<path style="fill:#130F40;" d="M1029.704,1262.002h-35.078c-14.167,0-25.694-11.526-25.694-25.694v-35.077
					c0-14.168,11.526-25.694,25.694-25.694h35.078c14.167,0,25.694,11.526,25.694,25.694v35.077
					C1055.398,1250.476,1043.872,1262.002,1029.704,1262.002z M994.626,1177.537c-13.065,0-23.694,10.629-23.694,23.694v35.077
					c0,13.065,10.629,23.694,23.694,23.694h35.078c13.065,0,23.694-10.629,23.694-23.694v-35.077
					c0-13.065-10.629-23.694-23.694-23.694H994.626z"/>
			</g>
			<g>
				<path style="fill:#FDD283;" d="M937.416,1400.845H726.559c-22.185,0-40.17-17.985-40.17-40.17s17.985-40.17,40.17-40.17h210.858
					c22.185,0,40.17,17.985,40.17,40.17S959.602,1400.845,937.416,1400.845z"/>
				<path d="M937.416,1401.845H726.558c-22.701,0-41.17-18.469-41.17-41.17c0-22.701,18.469-41.17,41.17-41.17h210.858
					c22.701,0,41.17,18.469,41.17,41.17C978.586,1383.376,960.117,1401.845,937.416,1401.845z M726.558,1321.505
					c-21.598,0-39.17,17.571-39.17,39.17s17.572,39.17,39.17,39.17h210.858c21.598,0,39.17-17.571,39.17-39.17
					s-17.572-39.17-39.17-39.17H726.558z"/>
			</g>
			<g>
				<path style="fill:#FFFFFF;" d="M892.047,1243.287c-0.825,0-1.631-0.336-2.212-0.922l-20.97-21.165
					c-2.807-3.032-4.339-6.908-4.339-10.938c0-8.827,7.183-16.009,16.013-16.009c4.381,0,8.514,1.767,11.51,4.886
					c2.997-3.119,7.131-4.886,11.513-4.886c8.827,0,16.008,7.182,16.008,16.009c0,4.032-1.515,7.891-4.267,10.863l-21.043,21.24
					C893.679,1242.951,892.872,1243.287,892.047,1243.287z M880.537,1196.252c-7.727,0-14.013,6.284-14.013,14.009
					c0,3.525,1.344,6.919,3.784,9.555l20.946,21.141c0.415,0.42,1.169,0.42,1.584,0l21.019-21.216
					c2.385-2.577,3.711-5.952,3.711-9.479c0-7.725-6.284-14.009-14.008-14.009c-4.174,0-8.09,1.831-10.744,5.024
					c-0.19,0.228-0.472,0.36-0.769,0.36c-0.297,0-0.579-0.132-0.769-0.36C888.625,1198.083,884.71,1196.252,880.537,1196.252z"/>
			</g>
			<g>
				<path style="fill:#FFFFFF;" d="M651.81,1247.617c-0.287,0-0.559-0.123-0.749-0.338c-0.858-0.97-21.01-23.89-21.01-35.599
					c0-11.998,9.761-21.759,21.759-21.759c11.998,0,21.758,9.761,21.758,21.759c0,11.709-20.151,34.629-21.009,35.599
					C652.369,1247.494,652.097,1247.617,651.81,1247.617z M651.81,1191.921c-10.895,0-19.759,8.863-19.759,19.759
					c0,9.749,16.065,29.09,19.759,33.408c3.694-4.318,19.758-23.663,19.758-33.408
					C671.568,1200.785,662.705,1191.921,651.81,1191.921z M651.809,1220.472c-4.848,0-8.792-3.944-8.792-8.792
					c0-4.848,3.944-8.791,8.792-8.791c4.848,0,8.792,3.943,8.792,8.791C660.601,1216.528,656.657,1220.472,651.809,1220.472z
					 M651.809,1204.889c-3.745,0-6.792,3.047-6.792,6.791c0,3.745,3.047,6.792,6.792,6.792c3.745,0,6.792-3.047,6.792-6.792
					C658.601,1207.936,655.554,1204.889,651.809,1204.889z"/>
			</g>
			<path style="fill:#B8E6E6;" d="M609.842,364.078c-19.544,0-35.444,15.899-35.444,35.444v734.816h515.178V399.522
				c0-19.545-15.899-35.444-35.443-35.444H609.842z"/>
			<path style="fill:#FFFFFF;" d="M936.666,802.517h152.91v-22.339h-52.879v-416.1h-22.339v416.1h-71.15v-416.1h-22.339v351.548
				l-43.451-43.451C830.783,625.541,805.1,563.538,805.1,497.586V364.078h-22.339v133.508c0,2.404,0.038,4.803,0.101,7.199H574.399
				v22.339H784.39c2.765,25.211,9.064,49.833,18.867,73.499c13.6,32.832,33.237,62.221,58.366,87.35l59.247,59.247v32.959H817.327
				c-65.952,0-127.955-25.683-174.589-72.318l-68.339-68.916v32.17l52.543,52.542c25.129,25.129,54.517,44.766,87.349,58.366
				c12.137,5.027,24.526,9.132,37.116,12.317l-95.163,95.163c-16.052,16.052-37.395,24.893-60.095,24.893h-21.75v22.338h21.75
				c28.668,0,55.62-11.164,75.892-31.435l105.687-105.687c13.044,1.933,26.26,2.905,39.601,2.905h87.745l-66.401,66.401
				c-28.398,28.398-44.038,66.156-44.038,106.317v159.102h22.339V975.236c0-34.195,13.316-66.343,37.496-90.521l3.8-3.8l51.34,51.34
				c-39.897,27.063-66.164,72.778-66.164,124.514v77.568h22.339v-77.568c0-70.588,57.428-128.017,128.017-128.017h95.775v-22.339
				h-95.775c-22.908,0-44.631,5.158-64.082,14.36l-55.654-55.655L936.666,802.517z"/>
			<g>
				<path style="fill:#99B4FF;" d="M743.552,364.078H638.929v121.951h104.623V364.078z M708.303,803.921l-68.539-37.51
					l-24.408,24.408l53.025,53.025L708.303,803.921z M761.984,631.548v101.763h95.867l-65.253-101.763H761.984z M743.552,562.623
					H597.109v50.493h146.443V562.623z M743.552,631.548H604.285l139.267,95.447V631.548z M574.416,805.693l48.502-48.501
					l-48.487-26.536L574.416,805.693z M761.984,583.805v29.311h18.795L761.984,583.805z M1003.229,498.183h-40.732v114.934h40.732
					V498.183z M1003.229,442.365h-40.732v37.386h40.732V442.365z M906.428,498.183H828.97v32.067l77.458,129.875V498.183z
					 M1003.229,631.548h-40.732v109.016h40.732V631.548z M906.428,416.433H828.97v63.318h77.458V416.433z M982.863,827.424h-31.836
					l-36.535,59.679h68.371V827.424z M1054.133,364.078h-1.272v187.304h36.716v-151.86
					C1089.576,379.977,1073.677,364.078,1054.133,364.078z M892.047,1134.337h30.626v-64.106h-30.626V1134.337z M941.105,1134.337
					h148.471v-64.106H941.105V1134.337z M1001.295,887.103h88.281v-59.679h-88.281V887.103z M941.105,1051.8h148.471v-97.28H941.105
					V1051.8z M1052.86,740.565h36.716v-37.385h-36.716V740.565z M620.497,364.078h-10.655c-19.544,0-35.444,15.899-35.444,35.444
					v86.507h46.098V364.078z M1052.86,684.747h36.716V569.813h-36.716V684.747z M574.43,983.08l21.113,21.113l49.674-49.674H574.43
					V983.08z M655.347,856.877l-53.024-53.025l-27.913,27.912l-0.012,60.999h45.061L655.347,856.877z M574.43,1134.337h64.778
					l30.206-30.206l-94.984-94.985V1134.337z M608.577,1017.227l77.493,77.493h75.914v-140.2h-90.7L608.577,1017.227z
					 M710.156,888.751v45.389l56.217-0.341l82.86-105.222H770.33L710.156,888.751z"/>
				<path style="fill:#130F40;" d="M1089.576,1135.337H941.105c-0.552,0-1-0.447-1-1v-64.106c0-0.552,0.448-1,1-1h148.471
					c0.552,0,1,0.448,1,1v64.106C1090.576,1134.89,1090.128,1135.337,1089.576,1135.337z M942.105,1133.337h146.471v-62.106H942.105
					V1133.337z M922.673,1135.337h-30.627c-0.552,0-1-0.447-1-1v-64.106c0-0.552,0.448-1,1-1h30.627c0.552,0,1,0.448,1,1v64.106
					C923.673,1134.89,923.226,1135.337,922.673,1135.337z M893.047,1133.337h28.627v-62.106h-28.627V1133.337z M639.208,1135.337
					H574.43c-0.552,0-1-0.447-1-1v-125.191c0-0.404,0.244-0.77,0.617-0.924c0.374-0.156,0.803-0.07,1.09,0.217l94.984,94.985
					c0.391,0.391,0.391,1.023,0,1.414l-30.206,30.206C639.728,1135.232,639.474,1135.337,639.208,1135.337z M575.43,1133.337h63.364
					L668,1104.131l-92.57-92.571V1133.337z M761.984,1095.72H686.07c-0.265,0-0.519-0.105-0.707-0.293l-77.493-77.493
					c-0.391-0.391-0.391-1.023,0-1.414l62.707-62.708c0.188-0.188,0.442-0.293,0.707-0.293h90.7c0.552,0,1,0.447,1,1v140.201
					C762.984,1095.273,762.536,1095.72,761.984,1095.72z M686.484,1093.72h74.5V955.519h-89.286l-61.707,61.708L686.484,1093.72z
					 M1089.576,1052.799H941.105c-0.552,0-1-0.447-1-1v-97.28c0-0.553,0.448-1,1-1h148.471c0.552,0,1,0.447,1,1v97.28
					C1090.576,1052.352,1090.128,1052.799,1089.576,1052.799z M942.105,1050.799h146.471v-95.28H942.105V1050.799z
					 M595.543,1005.193c-0.256,0-0.512-0.098-0.707-0.293l-21.113-21.113c-0.188-0.188-0.293-0.441-0.293-0.707v-28.561
					c0-0.553,0.448-1,1-1h70.787c0.404,0,0.769,0.244,0.924,0.617c0.155,0.374,0.069,0.804-0.217,1.09L596.25,1004.9
					C596.055,1005.095,595.799,1005.193,595.543,1005.193z M575.43,982.666l20.113,20.113l47.26-47.26H575.43V982.666z
					 M710.156,935.14c-0.264,0-0.517-0.104-0.705-0.291c-0.189-0.188-0.295-0.442-0.295-0.709v-45.39
					c0-0.266,0.106-0.52,0.293-0.707l60.175-60.174c0.188-0.188,0.442-0.293,0.707-0.293h78.903c0.383,0,0.732,0.219,0.899,0.563
					c0.167,0.345,0.123,0.754-0.114,1.056l-82.86,105.223c-0.189,0.238-0.475,0.379-0.78,0.381l-56.217,0.341
					C710.159,935.14,710.158,935.14,710.156,935.14z M711.156,889.164v43.97l54.729-0.332l81.288-103.226h-76.428L711.156,889.164z
					 M619.46,893.764h-45.062c-0.265,0-0.52-0.105-0.707-0.293s-0.293-0.442-0.293-0.707l0.012-60.999
					c0-0.266,0.105-0.519,0.293-0.707l27.913-27.913c0.375-0.375,1.039-0.375,1.414,0l53.025,53.024
					c0.391,0.391,0.391,1.023,0,1.414l-35.887,35.888C619.98,893.659,619.726,893.764,619.46,893.764z M575.399,891.764h43.648
					l34.887-34.888l-51.61-51.61l-26.913,26.913L575.399,891.764z M1089.576,888.103h-88.281c-0.552,0-1-0.447-1-1v-59.679
					c0-0.553,0.448-1,1-1h88.281c0.552,0,1,0.447,1,1v59.679C1090.576,887.656,1090.128,888.103,1089.576,888.103z
					 M1002.295,886.103h86.281v-57.679h-86.281V886.103z M982.863,888.103h-68.371c-0.362,0-0.695-0.195-0.873-0.511
					c-0.177-0.316-0.169-0.703,0.019-1.012l36.536-59.679c0.182-0.297,0.505-0.477,0.853-0.477h31.835c0.552,0,1,0.447,1,1v59.679
					C983.863,887.656,983.415,888.103,982.863,888.103z M916.276,886.103h65.586v-57.679h-30.275L916.276,886.103z M668.381,844.843
					c-0.256,0-0.512-0.098-0.707-0.293l-53.024-53.024c-0.188-0.188-0.293-0.441-0.293-0.707c0-0.266,0.105-0.519,0.293-0.707
					l24.408-24.407c0.314-0.315,0.797-0.385,1.187-0.17l68.54,37.509c0.276,0.15,0.465,0.424,0.51,0.735
					c0.045,0.311-0.06,0.626-0.283,0.849l-39.923,39.923C668.893,844.746,668.637,844.843,668.381,844.843z M616.77,790.819
					l51.61,51.61l38.272-38.273l-66.711-36.508L616.77,790.819z M574.415,806.693c-0.129,0-0.259-0.024-0.383-0.076
					c-0.373-0.154-0.617-0.52-0.617-0.924l0.015-75.037c0-0.354,0.187-0.681,0.49-0.86s0.681-0.187,0.99-0.017l48.487,26.536
					c0.276,0.15,0.465,0.424,0.51,0.735c0.045,0.312-0.06,0.626-0.283,0.849L575.122,806.4
					C574.931,806.591,574.675,806.693,574.415,806.693z M575.43,732.343l-0.014,70.935l45.851-45.85L575.43,732.343z
					 M1089.576,741.565h-36.716c-0.552,0-1-0.447-1-1v-37.386c0-0.553,0.448-1,1-1h36.716c0.552,0,1,0.447,1,1v37.386
					C1090.576,741.118,1090.128,741.565,1089.576,741.565z M1053.86,739.565h34.716v-35.386h-34.716V739.565z M1003.229,741.565
					h-40.732c-0.552,0-1-0.447-1-1V631.548c0-0.553,0.448-1,1-1h40.732c0.552,0,1,0.447,1,1v109.017
					C1004.229,741.118,1003.781,741.565,1003.229,741.565z M963.497,739.565h38.732V632.548h-38.732V739.565z M857.851,734.311
					h-95.868c-0.552,0-1-0.447-1-1V631.548c0-0.553,0.448-1,1-1h30.614c0.341,0,0.658,0.174,0.842,0.46l65.253,101.763
					c0.197,0.308,0.211,0.699,0.036,1.02C858.554,734.112,858.217,734.311,857.851,734.311z M762.984,732.311h93.038l-63.971-99.763
					h-29.067V732.311z M743.552,727.995c-0.198,0-0.396-0.059-0.565-0.175L603.72,632.373c-0.361-0.248-0.52-0.702-0.39-1.121
					c0.129-0.419,0.517-0.704,0.955-0.704h139.267c0.552,0,1,0.447,1,1v95.446c0,0.371-0.206,0.712-0.534,0.885
					C743.872,727.956,743.712,727.995,743.552,727.995z M607.513,632.548l135.039,92.549v-92.549H607.513z M1089.576,685.747
					h-36.716c-0.552,0-1-0.448-1-1V569.814c0-0.552,0.448-1,1-1h36.716c0.552,0,1,0.448,1,1v114.933
					C1090.576,685.298,1090.128,685.747,1089.576,685.747z M1053.86,683.747h34.716V570.814h-34.716V683.747z M906.428,661.125
					c-0.346,0-0.675-0.18-0.859-0.487l-77.458-129.875c-0.092-0.155-0.141-0.332-0.141-0.513v-32.066c0-0.553,0.448-1,1-1h77.458
					c0.552,0,1,0.447,1,1v161.941c0,0.45-0.3,0.845-0.734,0.964C906.605,661.113,906.516,661.125,906.428,661.125z M829.97,529.974
					l75.458,126.521V499.183H829.97V529.974z M1003.229,614.116h-40.732c-0.552,0-1-0.447-1-1V498.183c0-0.553,0.448-1,1-1h40.732
					c0.552,0,1,0.447,1,1v114.933C1004.229,613.668,1003.781,614.116,1003.229,614.116z M963.497,612.116h38.732V499.183h-38.732
					V612.116z M780.779,614.116h-18.795c-0.552,0-1-0.447-1-1v-29.311c0-0.444,0.292-0.835,0.719-0.96
					c0.425-0.124,0.883,0.046,1.123,0.42l18.795,29.311c0.197,0.308,0.211,0.699,0.036,1.02
					C781.481,613.917,781.144,614.116,780.779,614.116z M762.984,612.116h15.966l-15.966-24.898V612.116z M743.552,614.116H597.109
					c-0.552,0-1-0.447-1-1v-50.493c0-0.552,0.448-1,1-1h146.443c0.552,0,1,0.448,1,1v50.493
					C744.552,613.668,744.104,614.116,743.552,614.116z M598.109,612.116h144.443v-48.493H598.109V612.116z M1089.576,552.381
					h-36.716c-0.552,0-1-0.447-1-1V364.078c0-0.553,0.448-1,1-1h1.272c20.095,0,36.443,16.349,36.443,36.444v151.859
					C1090.576,551.934,1090.128,552.381,1089.576,552.381z M1053.86,550.381h34.716V399.522c0-18.992-15.451-34.444-34.443-34.444
					h-0.272V550.381z M743.552,487.029H638.929c-0.552,0-1-0.447-1-1V364.078c0-0.553,0.448-1,1-1h104.623c0.552,0,1,0.447,1,1
					v121.951C744.552,486.582,744.104,487.029,743.552,487.029z M639.929,485.029h102.623V365.078H639.929V485.029z
					 M620.497,487.029h-46.098c-0.552,0-1-0.447-1-1v-86.507c0-20.096,16.348-36.444,36.443-36.444h10.655c0.552,0,1,0.447,1,1
					v121.951C621.497,486.582,621.049,487.029,620.497,487.029z M575.399,485.029h44.098V365.078h-9.655
					c-18.992,0-34.443,15.452-34.443,34.444V485.029z M1003.229,480.75h-40.732c-0.552,0-1-0.447-1-1v-37.386c0-0.553,0.448-1,1-1
					h40.732c0.552,0,1,0.447,1,1v37.386C1004.229,480.303,1003.781,480.75,1003.229,480.75z M963.497,478.75h38.732v-35.386h-38.732
					V478.75z M906.428,480.75H828.97c-0.552,0-1-0.447-1-1v-63.317c0-0.553,0.448-1,1-1h77.458c0.552,0,1,0.447,1,1v63.317
					C907.428,480.303,906.98,480.75,906.428,480.75z M829.97,478.75h75.458v-61.317H829.97V478.75z"/>
			</g>
			<g>
				<path style="fill:#FDD283;" d="M793.583,397.444c-23.847,0-43.178,19.331-43.178,43.176c0,23.846,43.178,72.666,43.178,72.666
					s43.176-48.82,43.176-72.666C836.76,416.775,817.429,397.444,793.583,397.444z M793.583,456.826
					c-8.951,0-16.206-7.255-16.206-16.206c0-8.95,7.255-16.206,16.206-16.206c8.95,0,16.206,7.256,16.206,16.206
					C809.789,449.57,802.533,456.826,793.583,456.826z"/>
				<path d="M793.583,514.287c-0.287,0-0.559-0.123-0.749-0.338c-1.773-2.005-43.429-49.379-43.429-73.328
					c0-24.359,19.818-44.177,44.178-44.177c24.359,0,44.176,19.817,44.176,44.177c0,23.949-41.654,71.323-43.427,73.328
					C794.143,514.164,793.87,514.287,793.583,514.287z M793.583,398.444c-23.257,0-42.178,18.92-42.178,42.177
					c0,21.482,36.453,64.517,42.178,71.142c5.725-6.625,42.176-49.66,42.176-71.142C835.76,417.364,816.839,398.444,793.583,398.444
					z M793.583,457.826c-9.487,0-17.206-7.718-17.206-17.205s7.719-17.206,17.206-17.206s17.206,7.719,17.206,17.206
					S803.07,457.826,793.583,457.826z M793.583,425.414c-8.385,0-15.206,6.821-15.206,15.206c0,8.384,6.821,15.205,15.206,15.205
					c8.384,0,15.206-6.821,15.206-15.205C808.788,432.236,801.967,425.414,793.583,425.414z"/>
			</g>
			<g>
				<path style="fill:#130F40;" d="M856.026,951.225c-23.847,0-43.178,19.331-43.178,43.176c0,23.846,43.178,72.666,43.178,72.666
					s43.176-48.82,43.176-72.666C899.202,970.556,879.872,951.225,856.026,951.225z M856.026,1010.607
					c-8.951,0-16.206-7.255-16.206-16.206c0-8.95,7.255-16.206,16.206-16.206c8.95,0,16.206,7.256,16.206,16.206
					C872.231,1003.352,864.976,1010.607,856.026,1010.607z"/>
				<path style="fill:#130F40;" d="M856.026,1068.068c-0.287,0-0.559-0.123-0.749-0.338c-1.773-2.005-43.429-49.379-43.429-73.328
					c0-24.359,19.818-44.177,44.178-44.177c24.359,0,44.176,19.817,44.176,44.177c0,23.949-41.654,71.323-43.427,73.328
					C856.585,1067.945,856.312,1068.068,856.026,1068.068z M856.026,952.225c-23.257,0-42.178,18.92-42.178,42.177
					c0,21.482,36.453,64.518,42.178,71.143c5.725-6.625,42.176-49.66,42.176-71.143
					C898.202,971.145,879.282,952.225,856.026,952.225z M856.026,1011.607c-9.487,0-17.206-7.718-17.206-17.205
					s7.719-17.206,17.206-17.206c9.487,0,17.206,7.719,17.206,17.206S865.513,1011.607,856.026,1011.607z M856.026,979.196
					c-8.385,0-15.206,6.821-15.206,15.206c0,8.384,6.821,15.205,15.206,15.205c8.384,0,15.206-6.821,15.206-15.205
					C871.231,986.017,864.41,979.196,856.026,979.196z"/>
			</g>
			<g>
				<path style="fill:#130F40;" d="M1054.133,1433.895h-444.29c-20.095,0-36.443-16.349-36.443-36.443V399.521
					c0-20.095,16.348-36.443,36.443-36.443h444.29c20.095,0,36.443,16.349,36.443,36.443v997.931
					C1090.576,1417.546,1074.227,1433.895,1054.133,1433.895z M609.842,365.078c-18.992,0-34.443,15.451-34.443,34.443v997.931
					c0,18.992,15.451,34.443,34.443,34.443h444.29c18.992,0,34.443-15.451,34.443-34.443V399.521
					c0-18.992-15.451-34.443-34.443-34.443H609.842z"/>
			</g>
			<g>
				<path style="fill:#99B4FF;" d="M609.578,1290.442c-0.34,0-0.671-0.173-0.859-0.486c-0.284-0.474-0.13-1.088,0.344-1.371
					l9.403-5.633c6.099-3.653,13.685-3.647,19.8,0.016c5.466,3.274,12.262,3.271,17.734-0.01c6.101-3.658,13.686-3.655,19.796,0.007
					c5.466,3.274,12.261,3.273,17.732-0.005c0.475-0.285,1.088-0.131,1.372,0.344c0.284,0.474,0.13,1.088-0.344,1.371
					c-6.106,3.661-13.688,3.662-19.789,0.005c-5.475-3.28-12.273-3.283-17.74-0.007c-6.105,3.662-13.689,3.666-19.791,0.01
					c-5.482-3.281-12.281-3.287-17.745-0.016l-9.402,5.633C609.93,1290.396,609.752,1290.442,609.578,1290.442z"/>
			</g>
			<g>
				<path style="fill:#99B4FF;" d="M729.696,1290.442c-0.34,0-0.671-0.173-0.859-0.486c-0.284-0.474-0.13-1.088,0.344-1.371
					l9.403-5.633c6.099-3.653,13.685-3.647,19.8,0.016c5.466,3.274,12.262,3.271,17.734-0.01c6.101-3.658,13.686-3.655,19.796,0.007
					c5.466,3.274,12.261,3.273,17.732-0.005c0.475-0.285,1.088-0.131,1.372,0.344c0.284,0.474,0.13,1.088-0.344,1.371
					c-6.105,3.661-13.688,3.662-19.789,0.005c-5.475-3.28-12.273-3.283-17.74-0.007c-6.106,3.662-13.689,3.666-19.79,0.01
					c-5.482-3.281-12.281-3.287-17.745-0.016l-9.402,5.633C730.048,1290.396,729.871,1290.442,729.696,1290.442z"/>
			</g>
			<g>
				<path style="fill:#99B4FF;" d="M849.815,1290.442c-0.34,0-0.671-0.173-0.859-0.486c-0.284-0.474-0.13-1.088,0.344-1.371
					l9.403-5.633c6.099-3.653,13.685-3.647,19.8,0.016c5.467,3.274,12.263,3.271,17.734-0.01c6.101-3.658,13.686-3.655,19.796,0.007
					c5.466,3.274,12.261,3.273,17.732-0.005c0.475-0.285,1.088-0.131,1.372,0.344c0.284,0.474,0.13,1.088-0.344,1.371
					c-6.106,3.661-13.688,3.662-19.789,0.005c-5.475-3.28-12.272-3.283-17.74-0.007c-6.106,3.662-13.69,3.666-19.791,0.01
					c-5.482-3.281-12.281-3.287-17.745-0.016l-9.402,5.633C850.167,1290.396,849.99,1290.442,849.815,1290.442z"/>
			</g>
			<g>
				<path style="fill:#130F40;" d="M762.224,1365.788c-0.34,0-0.671-0.173-0.859-0.486c-0.284-0.474-0.13-1.088,0.344-1.371
					l9.403-5.633c6.099-3.654,13.687-3.648,19.8,0.016c5.468,3.273,12.263,3.271,17.735-0.01c6.1-3.658,13.685-3.653,19.796,0.007
					c5.467,3.277,12.262,3.274,17.731-0.013c6.1-3.652,13.688-3.648,19.801,0.016c5.467,3.273,12.263,3.271,17.735-0.01
					c6.101-3.658,13.686-3.655,19.796,0.007c5.465,3.274,12.261,3.273,17.732-0.005c0.475-0.285,1.088-0.131,1.372,0.343
					c0.284,0.475,0.13,1.088-0.344,1.372c-6.105,3.661-13.688,3.662-19.789,0.005c-5.475-3.28-12.273-3.283-17.74-0.007
					c-6.106,3.662-13.69,3.666-19.791,0.01c-5.481-3.281-12.28-3.288-17.745-0.016c-6.103,3.665-13.685,3.671-19.789,0.013
					c-5.477-3.282-12.274-3.284-17.74-0.007c-6.106,3.662-13.689,3.666-19.79,0.01c-5.482-3.281-12.28-3.288-17.746-0.016
					l-9.402,5.633C762.576,1365.742,762.398,1365.788,762.224,1365.788z"/>
			</g>
			<g>
				<path style="fill:#99B4FF;" d="M969.933,1290.442c-0.34,0-0.671-0.173-0.859-0.486c-0.284-0.474-0.13-1.088,0.344-1.371
					l9.403-5.633c6.099-3.653,13.685-3.647,19.8,0.016c5.466,3.274,12.263,3.271,17.735-0.01c6.101-3.658,13.686-3.655,19.796,0.007
					c5.466,3.274,12.261,3.273,17.732-0.005c0.475-0.285,1.088-0.131,1.372,0.344c0.284,0.474,0.13,1.088-0.344,1.371
					c-6.106,3.661-13.688,3.662-19.789,0.005c-5.477-3.282-12.274-3.284-17.739-0.007c-6.106,3.662-13.69,3.666-19.791,0.01
					c-5.482-3.281-12.281-3.287-17.745-0.016l-9.402,5.633C970.286,1290.396,970.108,1290.442,969.933,1290.442z"/>
			</g>
			<g>
				<path style="fill:#FFFFFF;" d="M1015.225,1250.29h-6.119c-0.552,0-1-0.447-1-1v-4.089c-1.938-0.295-3.83-0.799-5.644-1.505
					l-2.04,3.534c-0.277,0.479-0.887,0.642-1.366,0.366l-5.299-3.059c-0.229-0.133-0.397-0.352-0.466-0.608
					c-0.069-0.256-0.033-0.529,0.1-0.759l2.043-3.539c-1.523-1.222-2.907-2.607-4.13-4.13l-3.538,2.043
					c-0.48,0.275-1.09,0.111-1.366-0.366l-3.06-5.299c-0.276-0.478-0.112-1.09,0.366-1.366l3.535-2.041
					c-0.705-1.814-1.209-3.705-1.504-5.645h-4.089c-0.552,0-1-0.447-1-1v-6.119c0-0.553,0.448-1,1-1h4.089
					c0.295-1.939,0.799-3.831,1.504-5.643l-3.535-2.041c-0.479-0.276-0.642-0.888-0.366-1.366l3.06-5.299
					c0.276-0.479,0.886-0.643,1.366-0.366l3.538,2.043c1.223-1.524,2.607-2.907,4.13-4.13l-2.043-3.539
					c-0.276-0.478-0.112-1.09,0.366-1.366l5.299-3.059c0.229-0.133,0.503-0.169,0.759-0.1c0.256,0.068,0.475,0.236,0.608,0.466
					l2.04,3.535c1.814-0.706,3.706-1.21,5.644-1.505v-4.089c0-0.553,0.448-1,1-1h6.119c0.552,0,1,0.447,1,1v4.089
					c1.938,0.295,3.83,0.799,5.644,1.505l2.04-3.535c0.133-0.229,0.351-0.397,0.607-0.466c0.254-0.069,0.528-0.033,0.759,0.1
					l5.299,3.059c0.478,0.276,0.642,0.888,0.366,1.366l-2.043,3.539c1.524,1.223,2.908,2.606,4.131,4.13l3.538-2.043
					c0.478-0.277,1.089-0.113,1.366,0.366l3.06,5.299c0.276,0.479,0.112,1.09-0.366,1.366l-3.535,2.041
					c0.706,1.813,1.21,3.704,1.505,5.643h4.089c0.552,0,1,0.447,1,1v6.119c0,0.553-0.448,1-1,1h-4.089
					c-0.295,1.939-0.799,3.831-1.505,5.645l3.535,2.041c0.479,0.276,0.642,0.888,0.366,1.366l-3.06,5.299
					c-0.277,0.478-0.887,0.642-1.366,0.366l-3.538-2.043c-1.224,1.523-2.608,2.908-4.13,4.13l2.043,3.539
					c0.132,0.229,0.168,0.503,0.1,0.759c-0.068,0.256-0.236,0.475-0.466,0.608l-5.299,3.059c-0.48,0.275-1.09,0.112-1.366-0.366
					l-2.04-3.534c-1.814,0.706-3.706,1.21-5.644,1.505v4.089C1016.225,1249.842,1015.777,1250.29,1015.225,1250.29z
					 M1010.106,1248.29h4.119v-3.963c0-0.507,0.379-0.934,0.882-0.993c2.354-0.278,4.641-0.889,6.797-1.813
					c0.466-0.199,1.007-0.02,1.26,0.419l1.977,3.424l3.567-2.059l-1.979-3.428c-0.253-0.439-0.139-0.996,0.266-1.3
					c1.886-1.414,3.561-3.089,4.978-4.978c0.303-0.404,0.862-0.52,1.3-0.266l3.427,1.979l2.06-3.567l-3.424-1.977
					c-0.438-0.254-0.619-0.795-0.419-1.261c0.924-2.154,1.534-4.441,1.813-6.797c0.06-0.504,0.486-0.883,0.993-0.883h3.963v-4.119
					h-3.963c-0.507,0-0.934-0.379-0.993-0.883c-0.279-2.355-0.889-4.642-1.813-6.796c-0.2-0.466-0.02-1.007,0.419-1.261l3.424-1.978
					l-2.06-3.566l-3.427,1.979c-0.438,0.254-0.997,0.14-1.3-0.267c-1.415-1.887-3.09-3.561-4.978-4.977
					c-0.405-0.304-0.519-0.861-0.266-1.3l1.979-3.428l-3.567-2.059l-1.977,3.425c-0.253,0.439-0.794,0.618-1.26,0.419
					c-2.157-0.924-4.443-1.534-6.797-1.813c-0.503-0.059-0.882-0.486-0.882-0.993v-3.963h-4.119v3.963
					c0,0.507-0.379,0.934-0.882,0.993c-2.354,0.278-4.641,0.889-6.797,1.813c-0.466,0.199-1.007,0.021-1.26-0.419l-1.977-3.425
					l-3.567,2.059l1.979,3.428c0.253,0.438,0.139,0.996-0.267,1.3c-1.888,1.416-3.563,3.09-4.977,4.977
					c-0.304,0.406-0.862,0.521-1.3,0.267l-3.427-1.979l-2.06,3.566l3.424,1.978c0.438,0.254,0.619,0.795,0.419,1.26
					c-0.923,2.155-1.533,4.442-1.813,6.798c-0.06,0.503-0.486,0.882-0.993,0.882h-3.963v4.119h3.963
					c0.507,0,0.934,0.379,0.993,0.882c0.279,2.356,0.889,4.644,1.813,6.799c0.2,0.465,0.02,1.006-0.419,1.26l-3.424,1.977
					l2.06,3.567l3.427-1.979c0.438-0.254,0.997-0.14,1.3,0.267c1.417,1.888,3.091,3.563,4.977,4.977
					c0.405,0.304,0.52,0.861,0.267,1.3l-1.979,3.428l3.567,2.059l1.977-3.424c0.253-0.439,0.794-0.618,1.26-0.419
					c2.156,0.924,4.443,1.534,6.797,1.813c0.503,0.059,0.882,0.486,0.882,0.993V1248.29z M1012.165,1227.947
					c-5.06,0-9.178-4.117-9.178-9.178s4.117-9.178,9.178-9.178s9.178,4.117,9.178,9.178S1017.226,1227.947,1012.165,1227.947z
					 M1012.165,1211.591c-3.958,0-7.178,3.22-7.178,7.178s3.22,7.178,7.178,7.178s7.178-3.22,7.178-7.178
					S1016.123,1211.591,1012.165,1211.591z"/>
			</g>
			<g>
				<g>
					<path style="fill:#FFFFFF;" d="M801.02,1198.451c-0.186,0-0.375-0.052-0.542-0.16c-8.503-5.507-18.376-8.417-28.55-8.417
						s-20.046,2.91-28.55,8.417c-0.464,0.299-1.083,0.166-1.383-0.296c-0.3-0.464-0.168-1.083,0.296-1.384
						c8.828-5.716,19.076-8.737,29.637-8.737c10.56,0,20.809,3.021,29.637,8.737c0.464,0.301,0.596,0.92,0.296,1.384
						C801.669,1198.29,801.348,1198.451,801.02,1198.451z"/>
				</g>
				<g>
					<path style="fill:#FFFFFF;" d="M749.274,1208.416c-0.328,0-0.649-0.161-0.84-0.456c-0.3-0.464-0.168-1.083,0.296-1.384
						c6.92-4.48,14.942-6.85,23.198-6.85c8.256,0,16.278,2.369,23.198,6.85c0.464,0.301,0.596,0.92,0.296,1.384
						c-0.3,0.463-0.919,0.598-1.383,0.295c-6.595-4.271-14.241-6.528-22.111-6.528s-15.516,2.258-22.111,6.529
						C749.649,1208.364,749.46,1208.416,749.274,1208.416z"/>
				</g>
				<g>
					<path style="fill:#FFFFFF;" d="M788.15,1218.37c-0.186,0-0.374-0.052-0.542-0.16c-4.677-3.029-10.099-4.63-15.679-4.63
						s-11.002,1.6-15.679,4.63c-0.463,0.3-1.083,0.167-1.383-0.296c-0.3-0.464-0.168-1.083,0.296-1.384
						c5.001-3.238,10.799-4.95,16.766-4.95s11.765,1.712,16.766,4.95c0.464,0.301,0.596,0.92,0.296,1.384
						C788.799,1218.208,788.477,1218.37,788.15,1218.37z"/>
				</g>
				<g>
					<path style="fill:#FFFFFF;" d="M781.718,1228.324c-0.186,0-0.374-0.052-0.542-0.161c-2.758-1.786-5.956-2.73-9.248-2.73
						s-6.489,0.944-9.248,2.73c-0.463,0.302-1.082,0.168-1.383-0.295c-0.3-0.464-0.168-1.083,0.296-1.383
						c3.082-1.997,6.656-3.053,10.334-3.053s7.252,1.056,10.334,3.053c0.464,0.3,0.596,0.919,0.296,1.383
						C782.367,1228.163,782.046,1228.324,781.718,1228.324z"/>
				</g>
				<path style="fill:#FFFFFF;" d="M778.118,1242.476c0,3.419-2.771,6.19-6.19,6.19c-3.419,0-6.19-2.771-6.19-6.19
					c0-3.419,2.771-6.19,6.19-6.19C775.347,1236.286,778.118,1239.057,778.118,1242.476z"/>
			</g>
			<g>
				<path style="fill:#130F40;" d="M736.885,1360.675c0,3.419-2.771,6.19-6.19,6.19s-6.19-2.771-6.19-6.19s2.771-6.19,6.19-6.19
					S736.885,1357.257,736.885,1360.675z"/>
				<path style="fill:#130F40;" d="M730.695,1367.866c-3.965,0-7.19-3.226-7.19-7.19c0-3.964,3.225-7.189,7.19-7.189
					c3.964,0,7.19,3.226,7.19,7.189C737.885,1364.64,734.659,1367.866,730.695,1367.866z M730.695,1355.486
					c-2.862,0-5.19,2.328-5.19,5.189c0,2.862,2.329,5.19,5.19,5.19s5.19-2.328,5.19-5.19
					C735.885,1357.814,733.557,1355.486,730.695,1355.486z"/>
			</g>
			<g>
				<path style="fill:#130F40;" d="M1089.576,1135.337H574.399c-0.552,0-1-0.447-1-1c0-0.553,0.448-1,1-1h515.177
					c0.552,0,1,0.447,1,1C1090.576,1134.89,1090.128,1135.337,1089.576,1135.337z"/>
			</g>
			<g>
				<g>
					<path style="fill:#130F40;" d="M891.782,968.067c-0.26,0-0.53-0.03-0.78-0.08c-0.26-0.051-0.51-0.13-0.75-0.231
						c-0.24-0.1-0.48-0.229-0.69-0.37c-0.22-0.149-0.43-0.31-0.61-0.5c-0.18-0.18-0.35-0.39-0.5-0.609
						c-0.14-0.21-0.27-0.44-0.37-0.69c-0.09-0.24-0.17-0.49-0.22-0.74c-0.05-0.26-0.08-0.529-0.08-0.79
						c0-0.26,0.03-0.519,0.08-0.779c0.05-0.25,0.12-0.5,0.22-0.75c0.1-0.24,0.23-0.471,0.37-0.69c0.15-0.21,0.31-0.42,0.5-0.6
						c0.18-0.19,0.39-0.351,0.61-0.5c0.21-0.141,0.45-0.271,0.69-0.37c0.24-0.101,0.49-0.17,0.75-0.23c0.51-0.1,1.04-0.1,1.56,0
						c0.25,0.06,0.51,0.13,0.75,0.23c0.24,0.1,0.47,0.229,0.69,0.37c0.22,0.149,0.42,0.31,0.61,0.5
						c0.74,0.739,1.17,1.769,1.17,2.819c0,0.261-0.03,0.53-0.08,0.79c-0.05,0.25-0.13,0.5-0.23,0.74c-0.1,0.25-0.22,0.48-0.37,0.69
						c-0.14,0.22-0.31,0.43-0.5,0.609c-0.18,0.19-0.38,0.351-0.6,0.5c-0.22,0.141-0.45,0.27-0.69,0.37
						c-0.24,0.101-0.5,0.18-0.75,0.231C892.302,968.037,892.042,968.067,891.782,968.067z"/>
				</g>
				<g>
					<path style="fill:#130F40;" d="M899.522,955.796c-1.53-1.59-1.48-4.12,0.11-5.66c1.6-1.52,4.13-1.48,5.66,0.12
						c1.53,1.59,1.48,4.12-0.11,5.65c-0.78,0.75-1.78,1.12-2.77,1.12C901.362,957.027,900.312,956.617,899.522,955.796z
						 M910.792,945.417c-1.37-1.74-1.08-4.26,0.65-5.62c1.74-1.38,4.25-1.08,5.62,0.65c1.37,1.729,1.08,4.25-0.65,5.62
						c-0.74,0.579-1.61,0.859-2.48,0.859C912.752,946.926,911.582,946.407,910.792,945.417z"/>
				</g>
				<g>
					<path style="fill:#130F40;" d="M926.472,938.136c-0.26,0-0.53-0.02-0.78-0.08c-0.26-0.05-0.51-0.12-0.75-0.22
						c-0.24-0.1-0.48-0.23-0.69-0.37c-0.22-0.149-0.43-0.31-0.61-0.5c-0.19-0.18-0.35-0.38-0.5-0.6c-0.14-0.221-0.27-0.45-0.37-0.7
						c-0.1-0.24-0.17-0.49-0.22-0.74c-0.06-0.26-0.08-0.52-0.08-0.78c0-0.27,0.02-0.529,0.07-0.789c0.06-0.25,0.13-0.5,0.23-0.74
						c0.1-0.25,0.23-0.48,0.37-0.7c0.15-0.22,0.31-0.42,0.5-0.6c0.18-0.19,0.39-0.36,0.61-0.5c0.21-0.15,0.45-0.271,0.69-0.37
						c0.24-0.101,0.49-0.181,0.75-0.23c0.51-0.1,1.04-0.1,1.56,0c0.26,0.05,0.51,0.13,0.75,0.23c0.24,0.1,0.47,0.22,0.69,0.37
						c0.22,0.14,0.42,0.31,0.61,0.5c0.18,0.18,0.35,0.38,0.49,0.6c0.15,0.22,0.27,0.45,0.37,0.7c0.1,0.24,0.18,0.49,0.23,0.74
						c0.05,0.26,0.08,0.52,0.08,0.789c0,0.261-0.03,0.521-0.08,0.78c-0.05,0.25-0.13,0.5-0.23,0.74c-0.1,0.25-0.22,0.479-0.37,0.7
						c-0.14,0.22-0.31,0.42-0.49,0.6c-0.19,0.19-0.39,0.351-0.61,0.5c-0.22,0.141-0.45,0.271-0.69,0.37
						c-0.24,0.1-0.49,0.17-0.75,0.22C926.992,938.117,926.732,938.136,926.472,938.136z"/>
				</g>
				<g>
					<path style="fill:#130F40;" d="M913.782,926.737c-1.53-1.591-1.48-4.12,0.11-5.65c1.59-1.53,4.12-1.49,5.66,0.1
						c1.53,1.591,1.48,4.131-0.11,5.66c-0.78,0.75-1.78,1.12-2.78,1.12C915.622,927.966,914.572,927.556,913.782,926.737z
						 M903.982,916.567c-1.53-1.591-1.48-4.131,0.11-5.66c1.59-1.53,4.12-1.48,5.65,0.109c1.54,1.591,1.49,4.12-0.1,5.65
						c-0.78,0.75-1.78,1.12-2.78,1.12C905.812,917.787,904.772,917.376,903.982,916.567z M894.182,906.386
						c-1.54-1.59-1.49-4.12,0.11-5.649c1.59-1.54,4.12-1.49,5.65,0.1c1.53,1.6,1.48,4.12-0.11,5.66c-0.77,0.75-1.77,1.12-2.77,1.12
						C896.012,907.617,894.972,907.206,894.182,906.386z M884.382,896.216c-1.54-1.59-1.49-4.12,0.1-5.66
						c1.59-1.529,4.12-1.479,5.66,0.11c1.53,1.59,1.48,4.12-0.11,5.65c-0.77,0.75-1.77,1.119-2.77,1.119
						C886.212,897.436,885.162,897.027,884.382,896.216z M874.572,886.037c-1.53-1.59-1.48-4.12,0.11-5.65
						c1.59-1.529,4.12-1.49,5.65,0.101c1.54,1.59,1.49,4.13-0.1,5.659c-0.78,0.75-1.78,1.12-2.78,1.12
						C876.412,887.266,875.362,886.857,874.572,886.037z M864.772,875.867c-1.53-1.59-1.48-4.13,0.11-5.66
						c1.59-1.53,4.12-1.48,5.65,0.11c1.54,1.59,1.49,4.119-0.1,5.649c-0.78,0.75-1.78,1.12-2.78,1.12
						C866.602,877.086,865.562,876.676,864.772,875.867z"/>
				</g>
				<g>
					<path style="fill:#130F40;" d="M857.852,866.917c-0.26,0-0.52-0.03-0.78-0.08c-0.26-0.05-0.51-0.13-0.75-0.23
						c-0.24-0.101-0.47-0.221-0.69-0.37c-0.22-0.141-0.42-0.311-0.61-0.49c-0.74-0.75-1.17-1.78-1.17-2.83
						c0-0.26,0.03-0.53,0.08-0.78c0.05-0.26,0.13-0.51,0.23-0.75c0.1-0.24,0.22-0.48,0.36-0.69c0.15-0.221,0.32-0.431,0.5-0.61
						c0.18-0.18,0.39-0.35,0.61-0.5c0.21-0.14,0.45-0.26,0.69-0.36c0.24-0.1,0.49-0.18,0.75-0.229c0.51-0.11,1.04-0.11,1.56,0
						c0.26,0.05,0.51,0.13,0.75,0.229c0.24,0.101,0.47,0.221,0.69,0.36c0.22,0.15,0.42,0.32,0.61,0.5c0.18,0.18,0.35,0.39,0.5,0.61
						c0.14,0.21,0.26,0.449,0.36,0.69c0.1,0.24,0.18,0.49,0.23,0.75c0.05,0.25,0.08,0.52,0.08,0.78c0,1.05-0.43,2.08-1.17,2.83
						c-0.19,0.18-0.39,0.35-0.61,0.49c-0.22,0.149-0.45,0.269-0.69,0.37c-0.24,0.1-0.49,0.18-0.75,0.23
						C858.372,866.886,858.112,866.917,857.852,866.917z"/>
				</g>
				<g>
					<path style="fill:#130F40;" d="M864.522,856.516c-1.53-1.59-1.48-4.12,0.11-5.649c1.6-1.53,4.13-1.48,5.66,0.12
						c1.53,1.59,1.47,4.12-0.12,5.649c-0.769,0.74-1.769,1.11-2.769,1.11C866.352,857.747,865.302,857.336,864.522,856.516z
						 M874.072,847.357c-1.53-1.601-1.48-4.131,0.12-5.66c1.59-1.53,4.12-1.471,5.65,0.12c1.53,1.6,1.48,4.13-0.12,5.659
						c-0.77,0.74-1.77,1.11-2.76,1.11C875.902,848.586,874.852,848.176,874.072,847.357z M883.622,838.197
						c-1.53-1.601-1.47-4.13,0.12-5.66c1.6-1.53,4.13-1.481,5.66,0.12c1.519,1.59,1.47,4.12-0.12,5.649
						c-0.78,0.75-1.77,1.12-2.77,1.12C885.462,839.426,884.412,839.006,883.622,838.197z M893.182,829.027
						c-1.53-1.591-1.48-4.12,0.11-5.66c1.6-1.521,4.13-1.471,5.66,0.12c1.53,1.6,1.48,4.13-0.12,5.659
						c-0.77,0.74-1.77,1.11-2.77,1.11C895.012,830.256,893.962,829.846,893.182,829.027z M902.732,819.867
						c-1.53-1.601-1.48-4.13,0.12-5.66c1.59-1.53,4.12-1.47,5.65,0.12c1.53,1.59,1.48,4.12-0.12,5.649
						c-0.77,0.75-1.77,1.12-2.76,1.12C904.562,821.096,903.512,820.686,902.732,819.867z M912.282,810.697
						c-1.52-1.59-1.47-4.12,0.12-5.65c1.6-1.53,4.13-1.479,5.66,0.11c1.53,1.6,1.47,4.13-0.12,5.66
						c-0.78,0.739-1.77,1.109-2.77,1.109C914.122,811.926,913.072,811.516,912.282,810.697z M921.842,801.537
						c-1.53-1.601-1.48-4.13,0.11-5.66c1.6-1.52,4.13-1.47,5.66,0.12c1.53,1.6,1.48,4.13-0.12,5.66
						c-0.77,0.739-1.77,1.109-2.77,1.109C923.672,802.766,922.622,802.357,921.842,801.537z"/>
				</g>
				<g>
					<path style="fill:#130F40;" d="M934.282,793.607c-0.26,0-0.53-0.03-0.78-0.08c-0.26-0.051-0.51-0.131-0.75-0.23
						c-0.24-0.1-0.48-0.22-0.69-0.37c-0.22-0.14-0.43-0.31-0.61-0.49c-0.19-0.189-0.35-0.39-0.5-0.609
						c-0.14-0.22-0.27-0.45-0.37-0.69c-0.1-0.24-0.17-0.5-0.22-0.75c-0.06-0.26-0.08-0.52-0.08-0.779c0-0.27,0.02-0.53,0.08-0.79
						c0.05-0.25,0.12-0.5,0.22-0.74c0.1-0.25,0.23-0.48,0.37-0.69c0.15-0.22,0.31-0.43,0.5-0.609c0.18-0.19,0.39-0.351,0.61-0.5
						c0.21-0.141,0.45-0.271,0.69-0.37c0.24-0.101,0.49-0.17,0.75-0.23c1.3-0.26,2.68,0.17,3.61,1.101
						c0.74,0.739,1.17,1.77,1.17,2.83c0,0.26-0.03,0.52-0.08,0.779c-0.05,0.25-0.13,0.5-0.23,0.75c-0.1,0.24-0.22,0.471-0.37,0.69
						c-0.14,0.22-0.31,0.42-0.49,0.609c-0.19,0.181-0.39,0.351-0.61,0.49c-0.22,0.15-0.45,0.271-0.69,0.37
						c-0.24,0.1-0.5,0.18-0.75,0.23C934.802,793.577,934.542,793.607,934.282,793.607z"/>
				</g>
				<g>
					<path style="fill:#130F40;" d="M930.282,777.346c0-2.21,1.79-4,4-4s4,1.79,4,4c0,2.21-1.79,4-4,4
						S930.282,779.556,930.282,777.346z M930.282,765.086c0-2.21,1.79-4,4-4s4,1.79,4,4c0,2.21-1.79,4-4,4
						S930.282,767.296,930.282,765.086z M930.282,752.827c0-2.21,1.79-4,4-4s4,1.79,4,4c0,2.2-1.79,4-4,4
						S930.282,755.027,930.282,752.827z"/>
				</g>
				<g>
					<path style="fill:#130F40;" d="M934.282,744.567c-1.06,0-2.09-0.431-2.83-1.171c-0.19-0.19-0.35-0.39-0.5-0.609
						c-0.14-0.22-0.27-0.45-0.37-0.69c-0.1-0.239-0.17-0.489-0.22-0.75c-0.06-0.26-0.08-0.52-0.08-0.779
						c0-1.061,0.42-2.091,1.17-2.83c0.18-0.181,0.39-0.351,0.61-0.5c0.21-0.141,0.45-0.261,0.69-0.36c0.24-0.1,0.49-0.18,0.75-0.23
						c0.51-0.109,1.04-0.109,1.56,0c0.25,0.051,0.51,0.131,0.75,0.23c0.24,0.1,0.47,0.22,0.69,0.36c0.22,0.149,0.42,0.319,0.61,0.5
						c0.74,0.739,1.17,1.769,1.17,2.83c0,0.26-0.03,0.52-0.08,0.779c-0.05,0.261-0.13,0.511-0.23,0.75
						c-0.1,0.24-0.22,0.471-0.37,0.69c-0.14,0.22-0.31,0.42-0.49,0.609c-0.19,0.181-0.39,0.351-0.61,0.49
						c-0.22,0.15-0.45,0.27-0.69,0.37c-0.24,0.101-0.5,0.18-0.75,0.231C934.802,744.537,934.542,744.567,934.282,744.567z"/>
				</g>
				<g>
					<path style="fill:#130F40;" d="M920.942,735.146c-1.71-1.39-1.97-3.909-0.58-5.619c1.39-1.721,3.91-1.98,5.63-0.591
						c1.71,1.391,1.97,3.91,0.58,5.631c-0.79,0.97-1.94,1.479-3.11,1.479C922.582,736.046,921.682,735.747,920.942,735.146z
						 M910.292,726.237c-1.67-1.44-1.86-3.96-0.41-5.641c1.44-1.67,3.96-1.859,5.64-0.42c1.67,1.44,1.86,3.97,0.42,5.641
						c-0.8,0.92-1.91,1.39-3.04,1.39C911.982,727.206,911.052,726.886,910.292,726.237z M899.912,717.016
						c-1.63-1.489-1.74-4.02-0.25-5.649c1.49-1.63,4.03-1.74,5.65-0.25c1.63,1.49,1.75,4.02,0.25,5.649
						c-0.79,0.86-1.87,1.301-2.95,1.301C901.652,718.067,900.682,717.716,899.912,717.016z M889.812,707.476
						c-1.58-1.54-1.61-4.069-0.07-5.649c1.54-1.59,4.07-1.62,5.65-0.08c1.58,1.54,1.62,4.08,0.08,5.66
						c-0.79,0.8-1.83,1.21-2.87,1.21C891.602,708.617,890.592,708.237,889.812,707.476z M880.012,697.626
						c-1.53-1.59-1.48-4.12,0.11-5.66c1.59-1.53,4.12-1.479,5.66,0.11c1.53,1.59,1.48,4.12-0.11,5.649
						c-0.78,0.75-1.78,1.12-2.78,1.12C881.842,698.846,880.802,698.447,880.012,697.626z M870.532,687.456
						c-1.48-1.64-1.35-4.17,0.3-5.65c1.63-1.479,4.16-1.35,5.65,0.29c1.47,1.65,1.34,4.17-0.3,5.65c-0.76,0.689-1.72,1.03-2.68,1.03
						C872.412,688.777,871.322,688.336,870.532,687.456z M861.402,676.966c-1.42-1.69-1.21-4.21,0.48-5.63
						c1.7-1.43,4.22-1.21,5.64,0.48c1.42,1.689,1.2,4.22-0.49,5.64c-0.75,0.63-1.66,0.94-2.57,0.94
						C863.322,678.396,862.192,677.907,861.402,676.966z M852.632,666.167c-1.36-1.75-1.05-4.26,0.69-5.62
						c1.74-1.36,4.26-1.05,5.62,0.69c1.35,1.739,1.05,4.25-0.69,5.609c-0.73,0.57-1.6,0.851-2.46,0.851
						C854.602,667.697,853.422,667.167,852.632,666.167z M844.272,655.037c-1.3-1.8-0.9-4.3,0.9-5.59
						c1.78-1.29,4.29-0.891,5.58,0.899c1.29,1.79,0.89,4.29-0.9,5.59c-0.71,0.511-1.53,0.761-2.34,0.75
						C846.272,656.686,845.052,656.117,844.272,655.037z M836.332,643.586c-1.22-1.84-0.72-4.33,1.12-5.55
						c1.84-1.22,4.32-0.72,5.54,1.12c1.22,1.84,0.73,4.319-1.11,5.55c-0.69,0.45-1.461,0.67-2.22,0.67
						C838.372,645.376,837.102,644.747,836.332,643.586z M828.862,631.817c-1.15-1.891-0.54-4.351,1.34-5.49
						c1.9-1.15,4.36-0.54,5.5,1.35c1.14,1.891,0.54,4.34-1.35,5.49c-0.65,0.39-1.36,0.58-2.07,0.58
						C830.932,633.747,829.612,633.056,828.862,631.817z M821.892,619.737c-1.06-1.94-0.35-4.37,1.59-5.431
						c1.94-1.06,4.37-0.35,5.43,1.59c1.06,1.931,0.35,4.36-1.59,5.431c-0.61,0.33-1.27,0.49-1.92,0.49
						C823.992,621.817,822.622,621.067,821.892,619.737z M815.472,607.346c-0.97-1.989-0.15-4.38,1.83-5.35
						c1.99-0.97,4.39-0.15,5.36,1.83c0.97,1.99,0.14,4.38-1.84,5.35c-0.57,0.28-1.17,0.41-1.76,0.41
						C817.582,609.586,816.162,608.766,815.472,607.346z M809.642,594.657c-0.88-2.03,0.06-4.38,2.09-5.25
						c2.03-0.88,4.38,0.06,5.26,2.09c0.87,2.03-0.07,4.38-2.09,5.25c-0.52,0.229-1.06,0.33-1.59,0.33
						C811.762,597.077,810.292,596.176,809.642,594.657z M804.442,581.686c-0.76-2.069,0.29-4.369,2.36-5.14
						c2.07-0.77,4.38,0.29,5.14,2.36c0.77,2.069-0.28,4.37-2.35,5.14c-0.46,0.17-0.93,0.25-1.39,0.25
						C806.572,584.296,805.042,583.296,804.442,581.686z M799.932,568.456c-0.66-2.11,0.52-4.35,2.63-5.01
						c2.11-0.66,4.35,0.52,5.01,2.63c0.66,2.109-0.52,4.35-2.63,5.01c-0.4,0.12-0.8,0.18-1.19,0.18
						C802.042,571.266,800.462,570.167,799.932,568.456z M796.152,554.987c-0.54-2.141,0.76-4.311,2.9-4.851
						c2.15-0.54,4.32,0.76,4.86,2.91c0.53,2.14-0.77,4.311-2.91,4.85c-0.32,0.08-0.65,0.12-0.97,0.12
						C798.242,558.016,796.602,556.806,796.152,554.987z M793.142,541.317c-0.41-2.16,1.01-4.261,3.18-4.671
						c2.17-0.409,4.26,1.011,4.68,3.181c0.41,2.17-1.02,4.27-3.19,4.68c-0.25,0.05-0.5,0.07-0.74,0.07
						C795.182,544.577,793.502,543.237,793.142,541.317z M790.942,527.497c-0.28-2.19,1.27-4.2,3.46-4.48
						c2.19-0.279,4.2,1.271,4.48,3.46c0.28,2.19-1.27,4.2-3.461,4.48c-0.17,0.02-0.35,0.03-0.51,0.03
						C792.922,530.987,791.202,529.516,790.942,527.497z"/>
				</g>
				<g>
					<path style="fill:#130F40;" d="M793.582,517.287c-0.26,0-0.52-0.03-0.78-0.08c-0.26-0.05-0.51-0.13-0.75-0.23
						c-0.24-0.1-0.47-0.22-0.69-0.359c-0.22-0.15-0.42-0.32-0.61-0.5c-0.74-0.75-1.17-1.78-1.17-2.83c0-0.26,0.03-0.521,0.08-0.78
						c0.05-0.26,0.13-0.51,0.23-0.75c0.1-0.24,0.22-0.479,0.37-0.689c0.14-0.221,0.31-0.421,0.49-0.61
						c0.75-0.74,1.78-1.17,2.83-1.17c1.05,0,2.08,0.43,2.83,1.17c0.18,0.189,0.35,0.39,0.5,0.61c0.14,0.21,0.27,0.449,0.37,0.689
						c0.1,0.24,0.17,0.49,0.22,0.75c0.06,0.26,0.08,0.521,0.08,0.78c0,1.05-0.43,2.08-1.17,2.83
						C795.672,516.857,794.642,517.287,793.582,517.287z"/>
				</g>
			</g>
		</g>
	</g>
</g>
</svg>
