<?xml version="1.0" encoding="utf-8"?>
<!-- Generator: Adobe Illustrator 27.5.0, SVG Export Plug-In . SVG Version: 6.00 Build 0)  -->
<svg version="1.1" xmlns="http://www.w3.org/2000/svg" xmlns:xlink="http://www.w3.org/1999/xlink" x="0px" y="0px"
	 viewBox="0 0 3710 3710" style="enable-background:new 0 0 3710 3710;" xml:space="preserve">
<g id="Background">
	<g>
		<g>
			<rect style="fill:#FFFFFF;" width="3710" height="3710"/>
		</g>
	</g>
</g>
<g id="Illustration">
	<g>
		<linearGradient id="SVGID_1_" gradientUnits="userSpaceOnUse" x1="3598.8462" y1="4061.0181" x2="1124.0409" y2="987.4653">
			<stop  offset="0" style="stop-color:#B37CFF"/>
			<stop  offset="1" style="stop-color:#F895E7"/>
		</linearGradient>
		<path style="opacity:0.3;fill:url(#SVGID_1_);" d="M2929.465,2840.955c-57.473,59.41-111.854,97.722-154.819,127.992
			c-505.045,355.814-1102.647,252.096-1229.655,226.767c-187.55-37.403-550.08-109.701-812.182-412.348
			c-396.539-457.879-334.792-1179.254-27.21-1655.443c56.262-87.103,353.452-570.546,957.491-648.075
			c365.558-46.92,791.681,47.712,1100.267,301.565C3411.108,1314.273,3364.995,2390.745,2929.465,2840.955z"/>
		<g>
			
				<linearGradient id="SVGID_00000062191109509297010020000000426724130577257642_" gradientUnits="userSpaceOnUse" x1="1297.3829" y1="685.5782" x2="877.4919" y2="2865.9795">
				<stop  offset="0" style="stop-color:#A737D5"/>
				<stop  offset="1" style="stop-color:#EF497A"/>
			</linearGradient>
			<path style="fill:url(#SVGID_00000062191109509297010020000000426724130577257642_);" d="M971.479,590.533
				c-92.839,180.64-590.183,1253.929,333.143,1901.538c0,0,509.312-622.299-303.363-1902.942
				C994.15,577.925,977.544,578.732,971.479,590.533z"/>
			<path style="opacity:0.86;fill:#FFFFFF;" d="M1010.526,792.462c-4.586,36.498-7.314,73.408-9.387,110.247
				c-2.113,36.863-3.113,73.788-3.656,110.709c-0.88,73.853,0.868,147.738,5.048,221.479c4.177,73.744,10.785,147.342,19.54,220.674
				c8.755,73.33,19.507,146.436,32.845,219.072l4.853,27.264l5.385,27.164c3.659,18.096,7.031,36.249,10.922,54.296
				c7.943,36.058,15.578,72.185,24.568,108l6.5,26.916l3.274,13.452l3.539,13.386l14.153,53.539l3.569,13.375l3.832,13.303
				l7.663,26.607l7.663,26.606l3.832,13.303l4.122,13.215c43.191,141.202,94.178,280.001,152.924,415.442l0.008,0.02
				c1.482,3.417-0.087,7.39-3.505,8.872c-3.417,1.482-7.39-0.086-8.873-3.505l-0.011-0.026
				c-58.357-136.174-108.9-275.652-151.598-417.468l-4.076-13.273l-3.784-13.36l-7.569-26.719l-7.569-26.718l-3.784-13.359
				l-3.521-13.43l-13.959-53.755l-3.49-13.438l-3.224-13.504l-6.401-27.02c-8.855-35.952-16.353-72.213-24.158-108.401
				c-3.822-18.111-7.124-36.328-10.713-54.487l-5.28-27.257l-4.746-27.356c-13.052-72.878-23.509-146.21-31.962-219.751
				c-8.453-73.543-14.754-147.337-18.616-221.262c-3.865-73.924-5.291-147.976-4.086-221.995
				c0.708-37.006,1.872-74.011,4.152-110.965c2.246-36.969,5.125-73.84,9.921-110.695c0.203-1.565,1.637-2.669,3.201-2.465
				c1.565,0.203,2.668,1.637,2.465,3.201L1010.526,792.462z"/>
		</g>
		<g>
			
				<linearGradient id="SVGID_00000104695489504109293540000002123502430237848213_" gradientUnits="userSpaceOnUse" x1="2366.3464" y1="820.8674" x2="1554.4951" y2="3069.0725" gradientTransform="matrix(-0.9275 -0.3739 -0.3739 0.9275 3513.7261 1160.9246)">
				<stop  offset="0" style="stop-color:#CB236D"/>
				<stop  offset="1" style="stop-color:#4C246D"/>
			</linearGradient>
			<path style="fill:url(#SVGID_00000104695489504109293540000002123502430237848213_);" d="M570.158,810.971
				c4.255-18.708,30.821-19.279,35.794-0.748c48.078,179.153,188.862,644.971,410.804,893.829
				c361.373,405.201,597.502,1059.195,359.285,1393.838C1376.042,3097.89,106.554,2849.395,570.158,810.971z"/>
			<path style="opacity:0.43;fill:#FFFFFF;" d="M607.429,1066.302c0.463,4.722,1.337,9.917,2.063,14.933l2.47,15.145l5.278,30.25
				c3.633,20.15,7.482,40.263,11.383,60.364c7.925,40.18,16.347,80.262,25.136,120.26c17.501,80.013,36.556,159.682,57.135,238.95
				c41.404,158.456,87.992,315.6,142.408,470.041c6.561,19.389,13.86,38.513,20.803,57.764l10.489,28.851
				c3.487,9.62,7.258,19.133,10.874,28.705c7.352,19.096,14.499,38.276,22.022,57.306l22.979,56.927l5.776,14.219l6.029,14.112
				l12.06,28.224l12.06,28.225c4.091,9.376,8.409,18.652,12.604,27.982c8.513,18.604,16.747,37.341,25.487,55.838l26.584,55.322
				c2.228,4.605,4.374,9.25,6.667,13.822l6.976,13.666l13.951,27.333l13.951,27.335c4.763,9.053,9.766,17.976,14.637,26.971
				l14.707,26.935c4.977,8.934,9.623,18.061,14.927,26.809l31.037,52.95c42.323,70.027,87.747,138.219,137.446,203.316l0.012,0.017
				c0.565,0.739,0.423,1.798-0.316,2.363c-0.734,0.56-1.78,0.425-2.349-0.298c-50.734-64.48-97.403-132.091-140.758-201.772
				l-31.572-52.836c-5.394-8.733-10.128-17.839-15.196-26.759l-14.975-26.885c-4.962-8.979-10.056-17.886-14.907-26.925
				l-14.221-27.289l-14.222-27.293l-7.109-13.648c-2.34-4.564-4.531-9.203-6.802-13.801
				c-72.818-147.113-135.05-299.284-189.267-454.114l-20.033-58.171l-19.153-58.463c-6.518-19.445-12.35-39.108-18.541-58.656
				l-9.16-29.363l-8.771-29.48c-23.517-78.572-45.437-157.624-65.341-237.18c-19.968-79.537-38.667-159.394-55.328-239.683
				c-8.282-40.154-16.195-80.382-23.606-120.704c-3.648-20.173-7.24-40.355-10.617-60.576l-4.895-30.364l-2.279-15.216
				c-0.662-5.132-1.484-10.047-1.904-15.536c-0.071-0.922,0.619-1.726,1.542-1.797c0.909-0.07,1.705,0.601,1.794,1.504
				L607.429,1066.302z"/>
		</g>
		<g>
			<g>
				
					<linearGradient id="SVGID_00000016792722030574056600000008052576452297735565_" gradientUnits="userSpaceOnUse" x1="1986.1929" y1="1849.2687" x2="5823.46" y2="4482.0947">
					<stop  offset="0" style="stop-color:#2B3582"/>
					<stop  offset="1" style="stop-color:#150E42"/>
				</linearGradient>
				<path style="fill:url(#SVGID_00000016792722030574056600000008052576452297735565_);" d="M2404.926,2785.618
					c-0.479,47.275-41.094,85.604-90.729,85.712l-1199.857,2.614c-49.994,0.109-91.493-38.193-92.681-85.654l-55.91-2234.819
					c-1.33-53.137,40.632-96.108,93.712-95.854l1273.634,6.089c52.676,0.252,94.93,43.443,94.393,96.348L2404.926,2785.618z"/>
				
					<linearGradient id="SVGID_00000045619046374943742260000011383921589198094727_" gradientUnits="userSpaceOnUse" x1="1738.2126" y1="227.2729" x2="1637.0297" y2="3269.5425">
					<stop  offset="0" style="stop-color:#53D8FF"/>
					<stop  offset="1" style="stop-color:#3840F7"/>
				</linearGradient>
				<path style="fill:url(#SVGID_00000045619046374943742260000011383921589198094727_);" d="M2296.778,689.036
					c0.358-51.061-41.535-92.732-93.584-92.96l-1010.875-4.444c-52.371-0.23-93.926,41.218-92.806,92.462l41.556,1900.128
					c1.018,46.541,42.179,84.126,91.925,84.047l960.371-1.524c49.458-0.079,89.803-37.669,90.129-84.059L2296.778,689.036z"/>
				
					<linearGradient id="SVGID_00000008149230516904614650000008984213153186662061_" gradientUnits="userSpaceOnUse" x1="1706.3542" y1="170.8074" x2="1700.2229" y2="544.8212">
					<stop  offset="0" style="stop-color:#8D55D1"/>
					<stop  offset="0.9964" style="stop-color:#1C2873"/>
				</linearGradient>
				<path style="fill:url(#SVGID_00000008149230516904614650000008984213153186662061_);" d="M1850.069,523.77
					c0.026,9.907-7.942,17.898-17.797,17.854l-263.078-1.192c-9.876-0.045-17.98-8.118-18.099-18.037l0,0
					c-0.12-9.925,7.799-17.939,17.686-17.893l263.377,1.23C1842.024,505.777,1850.043,513.856,1850.069,523.77L1850.069,523.77z"/>
			</g>
			<g style="opacity:0.27;">
				<polygon style="fill:#FFFFFF;" points="2080.777,2036.81 2232.321,1886.352 2226.702,2203.777 2081.103,2037.169 				"/>
				<path style="fill:#FFFFFF;" d="M2007.584,2109.496l214.19,245.248l2.17,2.514l-6.174,194.331
					c-0.492,18.643-10.47,36.579-26.268,49.84c-13.926,11.659-32.005,18.813-50.924,20.34l-302.647-343.781L2007.584,2109.496z"/>
				<polygon style="fill:#FFFFFF;" points="2187.186,1788.269 2014.196,1960.716 1941.221,2033.48 1771.551,2202.615 
					1492.603,1885.805 1492.644,1885.765 1661.66,1714.442 1661.167,1714.435 1660.249,1713.953 1660.249,1713.912 
					1733.908,1640.14 1734.6,1640.221 1734.777,1640.282 1734.901,1640.221 1735.016,1640.14 1908.091,1464.866 2253.013,1116.051 
					2239.994,1688.253 				"/>
				<polygon style="fill:#FFFFFF;" points="2007.112,2622.178 1490.906,2622.56 1766.043,2349.351 				"/>
				<path style="fill:#FFFFFF;" d="M1699.716,2274.248l-349.502,348.416l-31.934,0.023c-21.272,0.016-41.897-7.167-57.378-20.049
					c-15.53-12.889-24.654-30.406-25.313-48.723l-14.537-392.856l199.766-202.514L1699.716,2274.248z"/>
				<polygon style="fill:#FFFFFF;" points="1353.399,1882.114 1216.15,2021.958 1204.999,1714.3 1353.275,1882.114 				"/>
				<path style="fill:#FFFFFF;" d="M1913.982,1311.494l-277.379-322.558l292.244-302.357l241.22-1.551
					c51.353-0.33,91.475,40.317,90.223,91.141l-4.589,187.566L1913.982,1311.494z"/>
				<polygon style="fill:#FFFFFF;" points="1379.6,690.11 1780.895,687.53 1567.804,908.909 				"/>
				<polygon style="fill:#FFFFFF;" points="1562.897,1065.211 1840.229,1386.532 1667.364,1562.484 1594.614,1636.541 
					1427.784,1808.813 1204.272,1551.686 1204.272,1551.645 1196.902,1446.298 1196.297,1445.72 				"/>
				<path style="fill:#FFFFFF;" d="M1241.569,692.87l252.5,292.614l-304.873,316.657l-19.186-517.393
					C1168.316,739.801,1199.118,701.866,1241.569,692.87z"/>
			</g>
			<g>
				<path style="fill:#FFFFFF;" d="M1701.807,798.974c0,7.778-6.306,14.084-14.084,14.084h-439.915
					c-7.778,0-14.084-6.305-14.084-14.084v-0.079c0-7.778,6.305-14.084,14.084-14.084h439.915c7.778,0,14.084,6.305,14.084,14.084
					V798.974z"/>
				<path style="fill:#FFFFFF;" d="M1701.807,875.642c0,7.778-6.306,14.084-14.084,14.084h-439.915
					c-7.778,0-14.084-6.306-14.084-14.084v-0.079c0-7.778,6.305-14.084,14.084-14.084h439.915c7.778,0,14.084,6.305,14.084,14.084
					V875.642z"/>
				<path style="fill:#FFFFFF;" d="M1701.807,952.311c0,7.778-6.306,14.084-14.084,14.084h-439.915
					c-7.778,0-14.084-6.305-14.084-14.084v-0.079c0-7.778,6.305-14.084,14.084-14.084h439.915c7.778,0,14.084,6.305,14.084,14.084
					V952.311z"/>
			</g>
			<g>
				<g>
					<g>
						<path style="fill:#FFFFFF;" d="M2005.126,935.375c-15.902,0-29.96-8.326-37.606-22.271
							c-39.761-72.52-87.16-168.019-87.16-211.143c0-68.796,55.97-124.765,124.766-124.765c68.796,0,124.765,55.97,124.765,124.765
							c0,43.129-47.398,138.626-87.16,211.143C2035.087,927.05,2021.029,935.375,2005.126,935.375z M2005.127,597.187
							c-57.774,0-104.776,47.002-104.776,104.775c0,29.905,30.872,103.36,84.698,201.532c4.083,7.446,11.589,11.891,20.077,11.891
							c8.49,0,15.996-4.445,20.078-11.891c53.826-98.168,84.697-171.624,84.697-201.532
							C2109.902,644.189,2062.9,597.187,2005.127,597.187z"/>
					</g>
					<g>
						<path style="fill:#FFFFFF;" d="M2005.127,780.369c-41.715,0-75.651-33.937-75.651-75.651s33.937-75.651,75.651-75.651
							c41.714,0,75.65,33.937,75.65,75.651S2046.841,780.369,2005.127,780.369z M2005.127,649.057
							c-30.691,0-55.661,24.969-55.661,55.661c0,30.692,24.97,55.661,55.661,55.661s55.66-24.969,55.66-55.661
							C2060.787,674.026,2035.818,649.057,2005.127,649.057z"/>
					</g>
				</g>
				<g>
					<circle style="fill:#FFFFFF;" cx="2004.406" cy="1024.485" r="47.478"/>
				</g>
			</g>
			<path style="fill:#FFFFFF;" d="M2090.863,2657.355c-3.216,0-6.421-1.306-8.751-3.878l-22.648-24.993
				c-4.377-4.83-4.01-12.296,0.822-16.675c4.83-4.375,12.296-4.012,16.675,0.822l22.648,24.993c4.377,4.83,4.01,12.296-0.822,16.675
				C2096.527,2656.346,2093.691,2657.355,2090.863,2657.355z M2034.245,2594.871c-3.216,0-6.421-1.306-8.752-3.878l-22.648-24.995
				c-4.377-4.832-4.01-12.297,0.822-16.675c4.83-4.376,12.296-4.012,16.675,0.822l22.648,24.995
				c4.377,4.832,4.01,12.297-0.822,16.675C2039.909,2593.862,2037.073,2594.871,2034.245,2594.871z M1977.627,2532.387
				c-3.216,0-6.421-1.306-8.752-3.878l-22.648-24.995c-4.377-4.832-4.01-12.297,0.822-16.675c4.829-4.376,12.296-4.012,16.675,0.822
				l22.648,24.995c4.377,4.832,4.01,12.297-0.822,16.675C1983.291,2531.378,1980.455,2532.387,1977.627,2532.387z M1921.01,2469.903
				c-3.216,0-6.421-1.306-8.751-3.878l-22.648-24.995c-4.377-4.832-4.01-12.297,0.822-16.675c4.83-4.376,12.296-4.013,16.675,0.822
				l22.648,24.995c4.377,4.832,4.01,12.297-0.822,16.675C1926.673,2468.894,1923.837,2469.903,1921.01,2469.903z M1864.392,2407.419
				c-3.216,0-6.421-1.306-8.751-3.878l-22.648-24.995c-4.377-4.832-4.01-12.297,0.822-16.675c4.832-4.377,12.297-4.01,16.675,0.822
				l22.648,24.995c4.377,4.832,4.01,12.297-0.822,16.675C1870.055,2406.41,1867.218,2407.419,1864.392,2407.419z M1807.774,2344.935
				c-3.216,0-6.421-1.308-8.751-3.878l-22.646-24.995c-4.377-4.832-4.01-12.297,0.822-16.675c4.829-4.376,12.296-4.008,16.675,0.822
				l22.646,24.995c4.377,4.832,4.01,12.297-0.822,16.675C1813.437,2343.926,1810.601,2344.935,1807.774,2344.935z
				 M1751.156,2282.449c-3.216,0-6.421-1.306-8.751-3.878l-22.646-24.993c-4.377-4.832-4.01-12.297,0.822-16.675
				c4.829-4.376,12.296-4.012,16.675,0.822l22.646,24.993c4.377,4.832,4.01,12.297-0.822,16.675
				C1756.82,2281.44,1753.984,2282.449,1751.156,2282.449z M1694.538,2219.966c-3.216,0-6.421-1.306-8.751-3.878l-22.646-24.993
				c-4.377-4.832-4.01-12.297,0.822-16.675c4.83-4.376,12.296-4.012,16.675,0.822l22.646,24.993
				c4.377,4.832,4.01,12.297-0.822,16.675C1700.202,2218.956,1697.366,2219.966,1694.538,2219.966z M1637.92,2157.481
				c-3.216,0-6.421-1.306-8.751-3.878l-22.646-24.993c-4.377-4.832-4.01-12.297,0.822-16.675c4.832-4.376,12.296-4.01,16.675,0.822
				l22.646,24.993c4.377,4.832,4.01,12.297-0.822,16.675C1643.584,2156.472,1640.746,2157.481,1637.92,2157.481z M1581.302,2094.998
				c-3.216,0-6.421-1.306-8.751-3.878l-22.646-24.993c-4.377-4.832-4.01-12.297,0.822-16.675c4.829-4.374,12.296-4.013,16.675,0.822
				l22.646,24.993c4.377,4.832,4.01,12.297-0.822,16.675C1586.966,2093.988,1584.13,2094.998,1581.302,2094.998z M1524.685,2032.514
				c-3.216,0-6.421-1.306-8.751-3.878l-22.646-24.993c-4.377-4.832-4.01-12.297,0.822-16.675c4.829-4.376,12.296-4.012,16.675,0.822
				l22.646,24.993c4.377,4.832,4.01,12.297-0.822,16.675C1530.348,2031.504,1527.512,2032.514,1524.685,2032.514z
				 M1468.067,1970.029c-3.216,0-6.421-1.306-8.751-3.878l-12.92-14.259c-3.898-4.302-7.259-9.058-9.99-14.137
				c-3.088-5.741-0.935-12.9,4.807-15.986c5.741-3.088,12.9-0.935,15.986,4.806c1.825,3.394,4.076,6.578,6.691,9.463l12.921,14.26
				c4.377,4.832,4.01,12.297-0.822,16.675C1473.73,1969.02,1470.895,1970.029,1468.067,1970.029z M1443.439,1895.003
				c-1.365,0-2.754-0.239-4.109-0.743c-6.111-2.269-9.226-9.064-6.955-15.176c3.412-9.191,8.606-17.457,15.438-24.57l6.47-6.736
				c4.516-4.7,11.988-4.853,16.691-0.334c4.702,4.516,4.852,11.989,0.334,16.691l-6.469,6.734
				c-4.575,4.764-8.053,10.295-10.333,16.436C1452.741,1892.062,1448.232,1895.003,1443.439,1895.003z M1497.845,1831.277
				c-2.941,0-5.887-1.094-8.177-3.292c-4.702-4.516-4.852-11.989-0.334-16.691l23.366-24.323c4.516-4.7,11.989-4.853,16.691-0.334
				c4.702,4.516,4.852,11.989,0.334,16.691l-23.366,24.323C1504.043,1830.063,1500.947,1831.277,1497.845,1831.277z
				 M1556.26,1770.47c-2.941,0-5.888-1.094-8.177-3.292c-4.702-4.516-4.852-11.989-0.334-16.691l23.366-24.323
				c4.514-4.7,11.989-4.853,16.691-0.334c4.702,4.516,4.852,11.989,0.334,16.691l-23.366,24.323
				C1562.457,1769.256,1559.361,1770.47,1556.26,1770.47z M1614.675,1709.662c-2.941,0-5.888-1.094-8.177-3.292
				c-4.702-4.516-4.852-11.989-0.334-16.691l23.366-24.323c4.514-4.702,11.988-4.855,16.691-0.334
				c4.702,4.516,4.852,11.989,0.334,16.691l-23.366,24.323C1620.872,1708.448,1617.776,1709.662,1614.675,1709.662z
				 M1673.089,1648.855c-2.941,0-5.888-1.094-8.177-3.292c-4.702-4.516-4.852-11.989-0.334-16.691l23.366-24.323
				c4.516-4.702,11.988-4.852,16.691-0.334c4.702,4.516,4.852,11.989,0.334,16.691l-23.366,24.323
				C1679.286,1647.641,1676.19,1648.855,1673.089,1648.855z M1731.504,1588.047c-2.941,0-5.888-1.094-8.177-3.292
				c-4.702-4.516-4.852-11.989-0.334-16.691l23.366-24.323c4.516-4.702,11.989-4.852,16.691-0.334
				c4.702,4.516,4.852,11.989,0.334,16.691l-23.366,24.323C1737.701,1586.833,1734.605,1588.047,1731.504,1588.047z
				 M1789.918,1527.24c-2.941,0-5.888-1.092-8.177-3.292c-4.702-4.516-4.852-11.989-0.334-16.691l23.366-24.323
				c4.514-4.7,11.989-4.852,16.691-0.334c4.702,4.516,4.852,11.989,0.334,16.691l-23.366,24.323
				C1796.116,1526.026,1793.02,1527.24,1789.918,1527.24z M1848.333,1466.432c-2.941,0-5.888-1.092-8.177-3.292
				c-4.702-4.516-4.852-11.989-0.334-16.691l23.366-24.323c4.516-4.7,11.988-4.85,16.691-0.334
				c4.702,4.516,4.852,11.989,0.334,16.691l-23.366,24.323C1854.53,1465.219,1851.434,1466.432,1848.333,1466.432z
				 M1906.749,1405.625c-2.941,0-5.887-1.092-8.177-3.292c-4.702-4.516-4.852-11.989-0.334-16.691l23.366-24.323
				c4.516-4.7,11.988-4.85,16.691-0.334c4.702,4.516,4.852,11.989,0.334,16.691l-23.366,24.323
				C1912.946,1404.411,1909.85,1405.625,1906.749,1405.625z M1965.164,1344.817c-2.941,0-5.888-1.094-8.177-3.292
				c-4.702-4.516-4.852-11.989-0.334-16.691l23.366-24.323c4.516-4.702,11.989-4.855,16.691-0.334
				c4.702,4.516,4.852,11.989,0.334,16.691l-23.366,24.323C1971.361,1343.604,1968.265,1344.817,1965.164,1344.817z
				 M2023.578,1284.01c-2.941,0-5.888-1.094-8.177-3.292c-4.702-4.516-4.852-11.989-0.334-16.691l23.366-24.323
				c4.514-4.702,11.989-4.855,16.691-0.334c4.702,4.516,4.852,11.989,0.334,16.691l-23.366,24.323
				C2029.776,1282.796,2026.679,1284.01,2023.578,1284.01z M2081.993,1223.202c-2.941,0-5.887-1.092-8.177-3.292
				c-4.702-4.516-4.852-11.989-0.334-16.691l9.965-10.374c3.616-3.765,6.573-8.043,8.786-12.72c2.79-5.891,9.832-8.404,15.721-5.619
				c5.892,2.79,8.409,9.828,5.619,15.721c-3.307,6.986-7.716,13.369-13.101,18.975l-9.965,10.374
				C2088.19,1221.989,2085.094,1223.202,2081.993,1223.202z M2103.873,1147.891c-4.588,0-8.951-2.691-10.865-7.179
				c-1.968-4.615-4.651-8.892-7.977-12.712l-9.82-11.276c-4.282-4.918-3.768-12.373,1.148-16.655
				c4.921-4.283,12.376-3.766,16.655,1.148l9.822,11.278c4.954,5.69,8.954,12.067,11.892,18.959
				c2.556,5.996-0.232,12.931-6.23,15.489C2106.988,1147.586,2105.418,1147.891,2103.873,1147.891z"/>
		</g>
		<g>
			<g>
				
					<linearGradient id="SVGID_00000151508140279407015430000006592430917984875139_" gradientUnits="userSpaceOnUse" x1="3098.4163" y1="1029.0114" x2="2725.2539" y2="1219.1125">
					<stop  offset="0" style="stop-color:#53D8FF"/>
					<stop  offset="1" style="stop-color:#3840F7"/>
				</linearGradient>
				<path style="fill:url(#SVGID_00000151508140279407015430000006592430917984875139_);" d="M2750.427,1101.814
					c0,0,282.393-7.632,301.474,5.724c19.081,13.356,7.632,43.885,0,49.61c-7.632,5.724-211.795,36.253-211.795,36.253
					L2750.427,1101.814z"/>
				
					<linearGradient id="SVGID_00000118389094989912340070000006151183782050138552_" gradientUnits="userSpaceOnUse" x1="2565.5391" y1="915.4511" x2="2539.3435" y2="1032.14">
					<stop  offset="0" style="stop-color:#53D8FF"/>
					<stop  offset="1" style="stop-color:#3840F7"/>
				</linearGradient>
				<path style="fill:url(#SVGID_00000118389094989912340070000006151183782050138552_);" d="M2536.518,1286.589
					c-25.207,10.448-49.093,23.71-70.348,40.115c-21.271,16.368-39.804,35.89-54.728,57.8l0,0l-1.442-17.101l107.034,111.228
					l-10.794,11.128l-114.435-103.598l-8.194-7.418l6.752-9.684v0c8.994-11.529,18.896-22.327,29.564-32.236
					c10.666-9.913,22.094-18.935,34.081-27.014c23.986-16.183,50.135-28.527,77.042-37.726L2536.518,1286.589z"/>
				
					<linearGradient id="SVGID_00000180357564178760111830000012989364530008090041_" gradientUnits="userSpaceOnUse" x1="2488.4116" y1="1187.2676" x2="2290.7551" y2="1668.3119">
					<stop  offset="0" style="stop-color:#53D8FF"/>
					<stop  offset="1" style="stop-color:#3840F7"/>
				</linearGradient>
				<path style="fill:url(#SVGID_00000180357564178760111830000012989364530008090041_);" d="M2375.433,1377.337
					c0,19.264,15.617,34.881,34.882,34.881c19.265,0,34.881-15.617,34.881-34.881c0-19.265-15.617-34.882-34.881-34.882
					C2391.05,1342.455,2375.433,1358.072,2375.433,1377.337z"/>
				
					<linearGradient id="SVGID_00000100369243795155750760000009119107067800173247_" gradientUnits="userSpaceOnUse" x1="75.2713" y1="1324.637" x2="54.6362" y2="1372.7855" gradientTransform="matrix(-1 0 0 1 2463 0)">
					<stop  offset="0" style="stop-color:#53D8FF"/>
					<stop  offset="1" style="stop-color:#3840F7"/>
				</linearGradient>
				<path style="fill:url(#SVGID_00000100369243795155750760000009119107067800173247_);" d="M2386.506,1377.337
					c0,13.149,10.66,23.808,23.808,23.808c13.149,0,23.808-10.659,23.808-23.808c0-13.149-10.659-23.808-23.808-23.808
					C2397.166,1353.528,2386.506,1364.188,2386.506,1377.337z"/>
				
					<linearGradient id="SVGID_00000093150834938872961970000006188169446531751346_" gradientUnits="userSpaceOnUse" x1="2837.6904" y1="1025.7308" x2="3014.7908" y2="1025.7308">
					<stop  offset="0" style="stop-color:#9CFFFB"/>
					<stop  offset="1" style="stop-color:#9BFFFA"/>
				</linearGradient>
				<path style="fill:url(#SVGID_00000093150834938872961970000006188169446531751346_);" d="M3014.791,1039.389
					c0,0-18.721-20.422-34.038-25.528c-15.317-5.105-137.851-11.913-142.957-3.403S3013.089,1059.811,3014.791,1039.389z"/>
				
					<linearGradient id="SVGID_00000112627028406467191170000016292687093866709656_" gradientUnits="userSpaceOnUse" x1="2987.9802" y1="1088.2753" x2="3055.9758" y2="1088.2753">
					<stop  offset="0" style="stop-color:#2B3582"/>
					<stop  offset="1" style="stop-color:#150E42"/>
				</linearGradient>
				<path style="fill:url(#SVGID_00000112627028406467191170000016292687093866709656_);" d="M2987.98,1103.105v-31.894
					c0-8.616,6.487-15.811,15.049-16.78c11.906-1.349,28.756-1.758,42.498,3.694c6.767,2.685,10.925,9.556,10.406,16.818
					l-2.228,31.189c-0.549,7.678-6.208,14.015-13.78,15.402c-9.956,1.823-24.617,2.743-40.214-2.342
					C2992.735,1116.917,2987.98,1110.443,2987.98,1103.105z"/>
				
					<linearGradient id="SVGID_00000153687121467757842240000012036670211592356225_" gradientUnits="userSpaceOnUse" x1="3040.7244" y1="993.9961" x2="3026.7275" y2="1033.1877">
					<stop  offset="0" style="stop-color:#53D8FF"/>
					<stop  offset="1" style="stop-color:#3840F7"/>
				</linearGradient>
				<path style="fill:url(#SVGID_00000153687121467757842240000012036670211592356225_);" d="M3003.245,1062.699l-2.76-22.079
					c-0.79-6.322,2.697-12.45,8.594-14.861c6.213-2.541,15.118-3.657,25.802,2.133c4.034,2.187,6.526,6.448,6.526,11.036v23.771
					C3029.459,1071.383,3016.821,1072.301,3003.245,1062.699z"/>
				
					<linearGradient id="SVGID_00000080190019344623880250000003271094931900628373_" gradientUnits="userSpaceOnUse" x1="2908.3147" y1="802.9519" x2="2934.5103" y2="976.7947">
					<stop  offset="0" style="stop-color:#53D8FF"/>
					<stop  offset="1" style="stop-color:#3840F7"/>
				</linearGradient>
				<path style="fill:url(#SVGID_00000080190019344623880250000003271094931900628373_);" d="M2921.875,1272.083
					c26.907,9.199,53.057,21.543,77.042,37.726c11.987,8.079,23.415,17.101,34.082,27.014c10.668,9.909,20.57,20.708,29.564,32.236
					l0,0l6.751,9.684l-8.194,7.418l-114.435,103.598l-10.794-11.128l107.035-111.228l-1.443,17.101l-0.001,0
					c-14.923-21.911-33.457-41.432-54.728-57.8c-21.254-16.405-45.141-29.667-70.348-40.115L2921.875,1272.083z"/>
				
					<linearGradient id="SVGID_00000002365022623337037490000016490564881809900988_" gradientUnits="userSpaceOnUse" x1="3026.6619" y1="1069.7568" x2="3220.9658" y2="1069.7568">
					<stop  offset="0" style="stop-color:#9CFFFB"/>
					<stop  offset="1" style="stop-color:#9BFFFA"/>
				</linearGradient>
				<path style="fill:url(#SVGID_00000002365022623337037490000016490564881809900988_);" d="M3026.703,1049.6
					c0,0,13.615,25.528,27.23,30.633c13.615,5.106,163.644,21.593,166.783,15.317c6.807-13.615-127.64-49.354-144.658-51.056
					C3076.058,1044.495,3025.002,1037.687,3026.703,1049.6z"/>
				
					<linearGradient id="SVGID_00000096767872994694171410000011923192213807948221_" gradientUnits="userSpaceOnUse" x1="2375.5427" y1="1046.4462" x2="2776.8694" y2="1223.8749">
					<stop  offset="0" style="stop-color:#53D8FF"/>
					<stop  offset="1" style="stop-color:#3840F7"/>
				</linearGradient>
				<path style="fill:url(#SVGID_00000096767872994694171410000011923192213807948221_);" d="M2714.174,1101.814
					c0,0-282.393-7.632-301.474,5.724c-19.08,13.356-7.632,43.885,0,49.61c7.632,5.724,211.795,36.253,211.795,36.253
					L2714.174,1101.814z"/>
				
					<linearGradient id="SVGID_00000073710216389580973040000017649305743236414357_" gradientUnits="userSpaceOnUse" x1="2681.0471" y1="693.9158" x2="2859.4028" y2="693.9158" gradientTransform="matrix(0.9899 0.1415 -0.1415 0.9899 -97.8672 -37.3657)">
					<stop  offset="0" style="stop-color:#9CFFFB"/>
					<stop  offset="1" style="stop-color:#9BFFFA"/>
				</linearGradient>
				<path style="fill:url(#SVGID_00000073710216389580973040000017649305743236414357_);" d="M2455.966,1042.524
					c0,0,21.573-17.691,37.571-20.598c15.997-2.907,139.123,7.771,143,16.982
					C2640.414,1048.119,2454.752,1063.126,2455.966,1042.524z"/>
				
					<linearGradient id="SVGID_00000160912659406025161700000017022413642459437214_" gradientUnits="userSpaceOnUse" x1="2408.6248" y1="1088.2753" x2="2476.6204" y2="1088.2753">
					<stop  offset="0" style="stop-color:#2B3582"/>
					<stop  offset="1" style="stop-color:#150E42"/>
				</linearGradient>
				<path style="fill:url(#SVGID_00000160912659406025161700000017022413642459437214_);" d="M2476.62,1103.105v-31.894
					c0-8.616-6.488-15.811-15.048-16.78c-11.906-1.349-28.756-1.758-42.498,3.694c-6.767,2.685-10.924,9.556-10.406,16.818
					l2.228,31.189c0.548,7.678,6.208,14.015,13.78,15.402c9.955,1.823,24.617,2.743,40.214-2.342
					C2471.865,1116.917,2476.62,1110.443,2476.62,1103.105z"/>
				
					<linearGradient id="SVGID_00000150822264652833289780000011723451726399706298_" gradientUnits="userSpaceOnUse" x1="2423.1946" y1="1046.6254" x2="2464.2266" y2="1046.6254">
					<stop  offset="0" style="stop-color:#53D8FF"/>
					<stop  offset="1" style="stop-color:#3840F7"/>
				</linearGradient>
				<path style="fill:url(#SVGID_00000150822264652833289780000011723451726399706298_);" d="M2461.817,1059.009l2.298-18.388
					c0.79-6.322-2.697-12.45-8.593-14.861c-6.213-2.541-15.118-3.657-25.802,2.133c-4.034,2.187-6.526,6.448-6.526,11.036v23.771
					c10.981,7.981,22.545,9.403,34.886,2.125C2460.167,1063.594,2461.517,1061.412,2461.817,1059.009z"/>
				
					<linearGradient id="SVGID_00000024709947804780559570000007579897563516789384_" gradientUnits="userSpaceOnUse" x1="2473.4102" y1="738.2491" x2="2669.0916" y2="738.2491" gradientTransform="matrix(0.9899 0.1415 -0.1415 0.9899 -97.8672 -37.3657)">
					<stop  offset="0" style="stop-color:#9CFFFB"/>
					<stop  offset="1" style="stop-color:#9BFFFA"/>
				</linearGradient>
				<path style="fill:url(#SVGID_00000024709947804780559570000007579897563516789384_);" d="M2442.635,1051.006
					c0,0-17.211,23.508-31.511,26.658c-14.301,3.149-166.217-1.797-168.45-8.501c-4.846-14.543,134.28-31.009,151.488-30.281
					C2394.161,1038.881,2446.03,1039.372,2442.635,1051.006z"/>
				
					<linearGradient id="SVGID_00000029007560438386062820000004609137900466630276_" gradientUnits="userSpaceOnUse" x1="2724.1943" y1="1353.407" x2="2746.7249" y2="652.1424">
					<stop  offset="0" style="stop-color:#53D8FF"/>
					<stop  offset="1" style="stop-color:#3840F7"/>
				</linearGradient>
				<path style="fill:url(#SVGID_00000029007560438386062820000004609137900466630276_);" d="M2753.17,1095.136
					c18.98,0,37.547,5.449,53.512,15.711c49.645,31.913,161.78,102.3,202.856,114.036c53.426,15.265,87.771,20.988,89.679,43.885
					c1.908,22.897-36.253,43.885-89.679,28.621c-55.124-15.749-165.1,9.541-200.611,19.611c-7.723,2.19-15.715,3.286-23.743,3.286
					h-116.646c-8.028,0-16.02-1.096-23.743-3.286c-35.511-10.07-145.487-35.36-200.611-19.611
					c-53.426,15.265-91.587-5.724-89.679-28.621c1.908-22.897,36.253-28.62,89.679-43.885
					c41.076-11.736,153.211-82.123,202.856-114.036c15.965-10.263,34.532-15.711,53.512-15.711H2753.17z"/>
				<path style="opacity:0.33;fill:#FFFFFF;" d="M2378.004,1278.408c7.451,2.48,15.068,4.39,22.785,5.68
					c7.709,1.241,15.528,1.902,23.238,1.398c3.849-0.26,7.663-0.797,11.368-1.699c3.69-0.947,7.248-2.292,10.534-4.087
					c1.668-0.865,3.178-1.96,4.702-3.032c1.416-1.206,2.854-2.386,4.078-3.788c2.483-2.745,4.656-5.819,6.154-9.267l0.608-1.266
					l0.489-1.325l0.995-2.656l2.185-5.777c0.902-1.848,1.779-3.712,2.711-5.543l3.189-5.271c4.543-6.849,10.229-12.836,16.468-18.03
					c12.547-10.364,27.035-17.901,41.972-23.704c29.995-11.605,61.74-17.208,93.418-20.51c31.751-3.131,63.693-3.629,95.517-2.212
					c31.823,1.553,63.541,5.068,94.926,10.572c31.349,5.624,62.452,13.11,92.497,24.005c7.493,2.761,14.944,5.664,22.24,8.955
					c7.312,3.245,14.52,6.762,21.499,10.734c6.985,3.952,13.803,8.254,20.221,13.164l4.719,3.813
					c1.55,1.301,3.021,2.706,4.533,4.055c1.497,1.368,2.866,2.887,4.304,4.325c1.421,1.445,2.681,2.837,4.063,4.214
					c5.483,5.408,11.674,10.031,18.742,12.997c7.017,3.054,14.631,4.755,22.356,5.623c7.733,0.87,15.595,1.006,23.446,0.614
					c7.856-0.28,15.704-1.143,23.539-2.062l0.042-0.005c1.046-0.123,1.994,0.626,2.117,1.673c0.122,1.04-0.618,1.983-1.654,2.115
					c-7.914,1.007-15.848,1.957-23.855,2.322c-7.99,0.477-16.055,0.423-24.099-0.402c-8.03-0.825-16.096-2.524-23.68-5.736
					c-7.635-3.116-14.441-8.093-20.281-13.759c-1.446-1.405-2.849-2.959-4.219-4.334c-1.374-1.36-2.668-2.794-4.104-4.097
					c-1.454-1.285-2.857-2.621-4.35-3.865l-4.552-3.652c-6.208-4.717-12.856-8.884-19.691-12.72
					c-6.829-3.857-13.914-7.286-21.116-10.453c-7.183-3.212-14.541-6.051-21.946-8.751c-29.699-10.659-60.575-17.988-91.699-23.463
					c-31.162-5.371-62.677-8.714-94.262-10.207c-31.579-1.51-63.277-1.117-94.723,1.88c-31.364,3.158-62.761,8.626-92.111,19.88
					c-14.618,5.616-28.676,12.913-40.667,22.754c-5.964,4.93-11.338,10.567-15.599,16.947l-2.988,4.902l-2.534,5.14l-2.043,5.349
					l-1.101,2.914l-0.559,1.46l-0.689,1.411c-3.536,7.568-9.591,14.176-17.056,18.019c-3.694,1.974-7.629,3.407-11.635,4.393
					c-4.018,0.939-8.092,1.469-12.161,1.705c-8.146,0.452-16.239-0.321-24.171-1.674c-7.926-1.401-15.73-3.44-23.313-6.045
					l-0.015-0.005c-0.997-0.342-1.527-1.427-1.185-2.424C2375.938,1278.608,2377.013,1278.078,2378.004,1278.408z"/>
				
					<linearGradient id="SVGID_00000034795102265508364870000005869554072539897001_" gradientUnits="userSpaceOnUse" x1="2197.1792" y1="1167.5334" x2="2398.356" y2="1167.5334">
					<stop  offset="0" style="stop-color:#9CFFFB"/>
					<stop  offset="1" style="stop-color:#9BFFFA"/>
				</linearGradient>
				<path style="fill:url(#SVGID_00000034795102265508364870000005869554072539897001_);" d="M2398.356,1178.317
					c0,0-21.266-16.124-38.665-20.155c-17.399-4.031-156.591-9.405-162.391-2.687
					C2191.5,1162.193,2396.423,1194.44,2398.356,1178.317z"/>
				
					<linearGradient id="SVGID_00000114777662505956035880000011966047095974140300_" gradientUnits="userSpaceOnUse" x1="2361.1421" y1="1225.9692" x2="2439.738" y2="1225.9692">
					<stop  offset="0" style="stop-color:#2B3582"/>
					<stop  offset="1" style="stop-color:#150E42"/>
				</linearGradient>
				<path style="fill:url(#SVGID_00000114777662505956035880000011966047095974140300_);" d="M2439.738,1243.111v-36.866
					c0-9.959-7.499-18.276-17.395-19.396c-13.762-1.559-33.239-2.032-49.123,4.27c-7.823,3.103-12.628,11.045-12.028,19.439
					l2.575,36.052c0.634,8.875,7.176,16.2,15.928,17.803c11.508,2.108,28.455,3.171,46.483-2.707
					C2434.242,1259.076,2439.738,1251.592,2439.738,1243.111z"/>
				
					<linearGradient id="SVGID_00000093152486244754498890000014530994452699910025_" gradientUnits="userSpaceOnUse" x1="2381.3389" y1="1137.6178" x2="2416.0784" y2="1208.2174">
					<stop  offset="0" style="stop-color:#53D8FF"/>
					<stop  offset="1" style="stop-color:#3840F7"/>
				</linearGradient>
				<path style="fill:url(#SVGID_00000093152486244754498890000014530994452699910025_);" d="M2422.094,1196.406l3.19-25.521
					c0.905-7.24-3.028-14.311-9.767-17.109c-7.188-2.984-17.546-4.348-29.99,2.397c-4.663,2.528-7.544,7.453-7.544,12.757
					l0.292,22.256c0.054,4.106,2.38,7.845,6.028,9.73C2396.262,1207.094,2408.643,1205.919,2422.094,1196.406z"/>
				
					<linearGradient id="SVGID_00000086661094513631873790000000830517404144701342_" gradientUnits="userSpaceOnUse" x1="2409.8965" y1="1194.4464" x2="2634.9983" y2="1194.4464">
					<stop  offset="0" style="stop-color:#9CFFFB"/>
					<stop  offset="1" style="stop-color:#9BFFFA"/>
				</linearGradient>
				<path style="fill:url(#SVGID_00000086661094513631873790000000830517404144701342_);" d="M2410.04,1183.5
					c0,0,18.56,27.122,34.57,31.186c16.01,4.064,187.462,3.942,190.221-3.536c5.986-16.222-150.277-39.783-169.705-39.578
					C2465.126,1171.572,2406.63,1170.262,2410.04,1183.5z"/>
				
					<linearGradient id="SVGID_00000007389774132301462590000014091991099596095872_" gradientUnits="userSpaceOnUse" x1="2703.4524" y1="1588.624" x2="2902.6448" y2="1588.624" gradientTransform="matrix(0.9845 -0.1756 0.1756 0.9845 120.4231 83.1841)">
					<stop  offset="0" style="stop-color:#9CFFFB"/>
					<stop  offset="1" style="stop-color:#9BFFFA"/>
				</linearGradient>
				<path style="fill:url(#SVGID_00000007389774132301462590000014091991099596095872_);" d="M3062.81,1182.971
					c0,0,17.926-19.415,34.185-26.37c16.26-6.955,151.008-36.398,157.83-30.858
					C3261.646,1131.284,3067.498,1198.352,3062.81,1182.971z"/>
				
					<linearGradient id="SVGID_00000016047410776661859170000006065664560194457240_" gradientUnits="userSpaceOnUse" x1="3013.9839" y1="1225.9692" x2="3092.5798" y2="1225.9692">
					<stop  offset="0" style="stop-color:#2B3582"/>
					<stop  offset="1" style="stop-color:#150E42"/>
				</linearGradient>
				<path style="fill:url(#SVGID_00000016047410776661859170000006065664560194457240_);" d="M3013.984,1243.111v-36.866
					c0-9.959,7.499-18.276,17.394-19.396c13.762-1.559,33.239-2.032,49.123,4.27c7.823,3.103,12.628,11.045,12.029,19.439
					l-2.575,36.052c-0.634,8.875-7.176,16.2-15.927,17.803c-11.508,2.108-28.455,3.171-46.484-2.707
					C3019.479,1259.076,3013.984,1251.592,3013.984,1243.111z"/>
				
					<linearGradient id="SVGID_00000021837710414741124740000003741606660221819014_" gradientUnits="userSpaceOnUse" x1="3051.0542" y1="1149.6993" x2="3056.6514" y2="1260.5226">
					<stop  offset="0" style="stop-color:#53D8FF"/>
					<stop  offset="1" style="stop-color:#3840F7"/>
				</linearGradient>
				<path style="fill:url(#SVGID_00000021837710414741124740000003741606660221819014_);" d="M3031.628,1196.406l-3.19-25.521
					c-0.914-7.307,3.117-14.391,9.933-17.178c7.181-2.937,17.475-4.228,29.824,2.465c4.663,2.528,7.543,7.453,7.543,12.757v27.476
					C3061.929,1206.443,3047.32,1207.505,3031.628,1196.406z"/>
				
					<linearGradient id="SVGID_00000033334952109549228690000007064298361639068308_" gradientUnits="userSpaceOnUse" x1="2464.1768" y1="1613.6196" x2="2687.0579" y2="1613.6196" gradientTransform="matrix(0.9845 -0.1756 0.1756 0.9845 120.4231 83.1841)">
					<stop  offset="0" style="stop-color:#9CFFFB"/>
					<stop  offset="1" style="stop-color:#9BFFFA"/>
				</linearGradient>
				<path style="fill:url(#SVGID_00000033334952109549228690000007064298361639068308_);" d="M3047.14,1189.298
					c0,0-13.376,29.666-28.275,36.411c-14.899,6.746-182.05,36.44-186.04,29.63c-8.656-14.772,139.571-64.911,158.543-68.091
					C2991.368,1187.249,3048.161,1175.801,3047.14,1189.298z"/>
				<path style="fill:#FFFFFF;" d="M3209.656,1094.684c-0.071,0-0.142-0.005-0.214-0.013
					c-1.072-0.137-107.613-13.677-139.604-18.728c-33.033-5.214-38.584-24.24-38.805-25.049c-0.246-0.898,0.285-1.825,1.184-2.07
					c0.887-0.255,1.818,0.28,2.068,1.176l0,0c0.05,0.178,5.351,17.761,36.08,22.613c31.939,5.043,138.43,18.575,139.502,18.712
					c0.924,0.117,1.578,0.962,1.461,1.886C3211.219,1094.061,3210.493,1094.684,3209.656,1094.684z"/>
				<path style="opacity:0.65;fill:#FFFFFF;" d="M3023.217,1040.953c-1.469,0-3.068-0.097-4.814-0.315
					c-7.185-0.898-11.709-2.752-13.448-5.51c-1.065-1.69-0.654-3.073-0.603-3.225c0.15-0.44,0.631-0.675,1.067-0.534
					c0.437,0.147,0.675,0.616,0.537,1.054c-0.015,0.059-0.211,0.843,0.469,1.874c0.845,1.28,3.554,3.589,12.187,4.667
					c14.4,1.793,18.074-4.979,18.224-5.268c0.212-0.408,0.718-0.578,1.133-0.367c0.413,0.209,0.581,0.711,0.374,1.126
					C3038.195,1034.752,3034.943,1040.953,3023.217,1040.953z"/>
				<path style="opacity:0.54;fill:#FFFFFF;" d="M3052.948,1170.7c-1.792,0-3.753-0.095-5.902-0.311
					c-7.686-0.767-11.923-2.597-12.954-5.594c-1.044-3.037,1.84-5.833,1.963-5.95c0.339-0.323,0.873-0.306,1.189,0.026
					c0.323,0.336,0.311,0.87-0.025,1.192c-0.021,0.021-2.228,2.176-1.53,4.19c0.443,1.28,2.53,3.561,11.525,4.46
					c18.135,1.82,22.025-5.199,22.063-5.27c0.214-0.408,0.719-0.572,1.133-0.364c0.412,0.211,0.58,0.711,0.372,1.125
					C3070.634,1164.5,3067.347,1170.7,3052.948,1170.7z"/>
				<path style="opacity:0.6;fill:#FFFFFF;" d="M2443.113,1041.728c-1.168,0-2.418-0.041-3.757-0.13
					c-5.937-0.397-9.535-1.841-10.697-4.293c-1.107-2.34,0.461-4.577,0.527-4.672c0.27-0.38,0.797-0.464,1.177-0.196
					c0.377,0.27,0.466,0.795,0.198,1.174c-0.028,0.041-1.056,1.558-0.372,2.984c0.611,1.273,2.716,2.882,9.278,3.32
					c16.176,1.092,18.195-5.049,18.213-5.113c0.133-0.44,0.598-0.703,1.041-0.575c0.443,0.127,0.705,0.578,0.586,1.023
					C2459.231,1035.535,2457.394,1041.728,2443.113,1041.728z"/>
				<path style="fill:#FFFFFF;" d="M2849.574,1252.55l-0.563-3.327c0,0,117.583-19.873,147.394-24.842
					c27.676-4.611,38.902-31.432,39.579-33.198c0.079-0.674,0.562-1.262,1.256-1.441c0.61-0.153,1.245,0.036,1.665,0.491
					c0.712,0.769,0.402,1.677,0.252,2.111c-0.102,0.301-11.653,30.274-42.199,35.363
					C2967.151,1232.677,2849.574,1252.55,2849.574,1252.55z"/>
				<path style="fill:#FFFFFF;" d="M3082.796,1181.362c-0.756,0-1.443-0.51-1.634-1.278c-0.227-0.902,0.323-1.818,1.227-2.044
					c1.123-0.281,112.962-28.374,158.635-51.211c0.835-0.415,1.844-0.079,2.263,0.754c0.417,0.833,0.079,1.846-0.754,2.263
					c-46.002,23.002-158.199,51.183-159.327,51.465C3083.069,1181.345,3082.931,1181.362,3082.796,1181.362z"/>
				<path style="fill:#FFFFFF;" d="M2619.821,1211.676c-0.008,0-0.017,0-0.025,0c-1.122-0.016-112.574-1.713-152.313-5.025
					c-40.778-3.398-48.001-23.698-48.288-24.562c-0.295-0.884,0.183-1.839,1.065-2.133c0.888-0.298,1.835,0.18,2.131,1.059
					c0.101,0.283,7.11,19.086,45.371,22.276c39.625,3.3,150.962,4.995,152.082,5.011c0.932,0.015,1.675,0.781,1.662,1.711
					C2621.494,1210.938,2620.741,1211.676,2619.821,1211.676z"/>
				<path style="fill:#FFFFFF;" d="M2385.655,1073.092c-34.81,0-125.974-6.77-130.226-7.088c-0.929-0.069-1.625-0.878-1.556-1.807
					c0.069-0.929,0.883-1.629,1.807-1.556c1.148,0.086,114.986,8.516,138.578,6.854c23.012-1.644,39.838-19.837,40.006-20.019
					c0.627-0.687,1.695-0.74,2.381-0.112c0.688,0.626,0.74,1.693,0.114,2.381c-0.718,0.79-17.874,19.372-42.26,21.113
					C2392.26,1073.017,2389.258,1073.092,2385.655,1073.092z"/>
				
					<linearGradient id="SVGID_00000041267646115639726530000012376981565131430795_" gradientUnits="userSpaceOnUse" x1="2652.9067" y1="1260.2469" x2="2722.9141" y2="1309.0892">
					<stop  offset="0" style="stop-color:#53D8FF"/>
					<stop  offset="1" style="stop-color:#3840F7"/>
				</linearGradient>
				<path style="fill:url(#SVGID_00000041267646115639726530000012376981565131430795_);" d="M2686.172,1304.805h-10.221
					c-0.847,0-1.534-0.687-1.534-1.534v-46.764c0-0.847,0.687-1.534,1.534-1.534h10.221c0.847,0,1.534,0.687,1.534,1.534v46.763
					C2687.706,1304.119,2687.019,1304.805,2686.172,1304.805z"/>
				
					<linearGradient id="SVGID_00000027592314521678099600000011158100304678995102_" gradientUnits="userSpaceOnUse" x1="2676.1614" y1="1260.2472" x2="2746.168" y2="1309.089">
					<stop  offset="0" style="stop-color:#53D8FF"/>
					<stop  offset="1" style="stop-color:#3840F7"/>
				</linearGradient>
				<path style="fill:url(#SVGID_00000027592314521678099600000011158100304678995102_);" d="M2709.426,1304.805h-10.22
					c-0.847,0-1.534-0.687-1.534-1.533v-46.764c0-0.847,0.687-1.534,1.534-1.534h10.22c0.847,0,1.534,0.687,1.534,1.534v46.764
					C2710.96,1304.119,2710.273,1304.805,2709.426,1304.805z"/>
				
					<linearGradient id="SVGID_00000039100712729455078550000011162793847524353664_" gradientUnits="userSpaceOnUse" x1="2699.4153" y1="1260.2469" x2="2769.4226" y2="1309.0892">
					<stop  offset="0" style="stop-color:#53D8FF"/>
					<stop  offset="1" style="stop-color:#3840F7"/>
				</linearGradient>
				<path style="fill:url(#SVGID_00000039100712729455078550000011162793847524353664_);" d="M2732.68,1304.805h-10.221
					c-0.847,0-1.534-0.687-1.534-1.534v-46.764c0-0.847,0.687-1.534,1.534-1.534h10.221c0.847,0,1.534,0.687,1.534,1.534v46.764
					C2734.214,1304.119,2733.528,1304.805,2732.68,1304.805z"/>
				
					<linearGradient id="SVGID_00000025428470638928502840000013108347455282314906_" gradientUnits="userSpaceOnUse" x1="2722.6699" y1="1260.2469" x2="2792.677" y2="1309.0892">
					<stop  offset="0" style="stop-color:#53D8FF"/>
					<stop  offset="1" style="stop-color:#3840F7"/>
				</linearGradient>
				<path style="fill:url(#SVGID_00000025428470638928502840000013108347455282314906_);" d="M2755.935,1304.805h-10.221
					c-0.847,0-1.534-0.687-1.534-1.534v-46.764c0-0.847,0.687-1.534,1.534-1.534h10.221c0.847,0,1.533,0.687,1.533,1.534v46.764
					C2757.469,1304.119,2756.782,1304.805,2755.935,1304.805z"/>
				
					<linearGradient id="SVGID_00000016782724690446943670000009100188994194856612_" gradientUnits="userSpaceOnUse" x1="2745.9243" y1="1260.2469" x2="2815.9314" y2="1309.0892">
					<stop  offset="0" style="stop-color:#53D8FF"/>
					<stop  offset="1" style="stop-color:#3840F7"/>
				</linearGradient>
				<path style="fill:url(#SVGID_00000016782724690446943670000009100188994194856612_);" d="M2779.189,1304.805h-10.221
					c-0.847,0-1.534-0.687-1.534-1.533v-46.764c0-0.847,0.687-1.534,1.534-1.534h10.221c0.847,0,1.534,0.687,1.534,1.534v46.764
					C2780.723,1304.119,2780.036,1304.805,2779.189,1304.805z"/>
				
					<linearGradient id="SVGID_00000143615454980337472550000008488145796279339419_" gradientUnits="userSpaceOnUse" x1="3053.5828" y1="1328.4966" x2="3014.9934" y2="1500.2821">
					<stop  offset="0" style="stop-color:#53D8FF"/>
					<stop  offset="1" style="stop-color:#3840F7"/>
				</linearGradient>
				<path style="fill:url(#SVGID_00000143615454980337472550000008488145796279339419_);" d="M3077.493,1377.337
					c0,19.264-15.617,34.881-34.882,34.881c-19.264,0-34.881-15.617-34.881-34.881c0-19.265,15.617-34.882,34.881-34.882
					C3061.876,1342.455,3077.493,1358.072,3077.493,1377.337z"/>
				
					<linearGradient id="SVGID_00000058551916050829296840000010550078547910262964_" gradientUnits="userSpaceOnUse" x1="3065.197" y1="1324.637" x2="3044.562" y2="1372.7855">
					<stop  offset="0" style="stop-color:#53D8FF"/>
					<stop  offset="1" style="stop-color:#3840F7"/>
				</linearGradient>
				<path style="fill:url(#SVGID_00000058551916050829296840000010550078547910262964_);" d="M3066.419,1377.337
					c0,13.149-10.659,23.808-23.808,23.808c-13.149,0-23.808-10.659-23.808-23.808c0-13.149,10.659-23.808,23.808-23.808
					C3055.76,1353.528,3066.419,1364.188,3066.419,1377.337z"/>
			</g>
			<g>
				
					<linearGradient id="SVGID_00000072975456318970284110000001468502949821613490_" gradientUnits="userSpaceOnUse" x1="2347.113" y1="1246.3054" x2="3280.0603" y2="1897.199">
					<stop  offset="0" style="stop-color:#FDF53F"/>
					<stop  offset="1" style="stop-color:#D93C65"/>
				</linearGradient>
				<path style="fill:url(#SVGID_00000072975456318970284110000001468502949821613490_);" d="M2493.781,1605.427v-199.652
					c0-26.231,21.081-47.576,47.311-47.861c78.722-0.857,241.083-0.9,373.929,10.295c18.128,1.527,32.229,16.385,32.886,34.566
					l12.416,193.023c0.923,25.532-19.262,46.862-44.806,47.347l-376.011,7.145
					C2514.394,1650.767,2493.781,1630.542,2493.781,1605.427z"/>
				<path style="fill:#FFFFFF;" d="M2539.376,1427.376c-0.335,16.988,0.17,43.943,0.583,61.358c0.215,9.06,8.17,15.965,17.171,14.91
					l64.786-7.593c8.63-1.011,14.711-8.966,13.423-17.56l-7.952-53.05c-1.129-7.531-7.599-13.103-15.214-13.103h-57.415
					C2546.391,1412.338,2539.541,1419.011,2539.376,1427.376z"/>
				<path style="opacity:0.37;fill:#FFFFFF;" d="M2708.683,1527.912l54.043,5.83c7.562,0.817,14.015-5.42,13.457-13.006
					l-11.814-160.762c-22.655-0.719-45.001-1.242-66.563-1.61v157.434C2697.806,1522.021,2702.496,1527.244,2708.683,1527.912z"/>
				<path style="fill:#FFFFFF;" d="M2730.833,1500.049c0.167,2.891,2.563,5.121,5.422,5.121c0.106,0,0.212-0.003,0.319-0.01
					c2.998-0.174,5.287-2.743,5.111-5.741l-8.149-140.307c-3.654-0.09-7.278-0.172-10.902-0.252L2730.833,1500.049z"/>
				<g>
					
						<linearGradient id="SVGID_00000136391933904361356800000002740798903612877473_" gradientUnits="userSpaceOnUse" x1="2589.8438" y1="1422.2744" x2="2473.8738" y2="1590.7931">
						<stop  offset="0" style="stop-color:#2B3582"/>
						<stop  offset="1" style="stop-color:#150E42"/>
					</linearGradient>
					<path style="fill:url(#SVGID_00000136391933904361356800000002740798903612877473_);" d="M2569.338,1478.018
						c-0.949,0-1.748-0.736-1.809-1.699l-2.803-44.193c-0.064-0.998,0.694-1.858,1.696-1.922c1.051-0.082,1.858,0.697,1.922,1.695
						l2.803,44.193c0.064,0.998-0.694,1.858-1.695,1.922C2569.412,1478.018,2569.373,1478.018,2569.338,1478.018z"/>
					
						<linearGradient id="SVGID_00000105428766524507266780000014283541261220518576_" gradientUnits="userSpaceOnUse" x1="2594.0139" y1="1425.1443" x2="2478.0439" y2="1593.6626">
						<stop  offset="0" style="stop-color:#2B3582"/>
						<stop  offset="1" style="stop-color:#150E42"/>
					</linearGradient>
					<path style="fill:url(#SVGID_00000105428766524507266780000014283541261220518576_);" d="M2575.106,1478.018
						c-0.973,0-1.78-0.771-1.812-1.752l-1.469-45.038c-0.032-1.002,0.754-1.84,1.751-1.873c1.154-0.057,1.837,0.754,1.872,1.752
						l1.469,45.038c0.032,1.001-0.754,1.84-1.752,1.872C2575.167,1478.018,2575.124,1478.018,2575.106,1478.018z"/>
					
						<linearGradient id="SVGID_00000138564390836682978730000008818742818520054182_" gradientUnits="userSpaceOnUse" x1="2599.0452" y1="1428.6066" x2="2483.0752" y2="1597.1254">
						<stop  offset="0" style="stop-color:#2B3582"/>
						<stop  offset="1" style="stop-color:#150E42"/>
					</linearGradient>
					<path style="fill:url(#SVGID_00000138564390836682978730000008818742818520054182_);" d="M2582.843,1478.018
						c-0.963,0-1.763-0.754-1.809-1.727c-0.354-7.404-2.116-44.377-2.116-45.124c0-1.001,0.811-1.812,1.812-1.812
						c0.995,0,1.805,0.804,1.813,1.795c0.021,0.983,1.391,29.842,2.109,44.971c0.049,0.998-0.722,1.847-1.724,1.893
						C2582.9,1478.018,2582.871,1478.018,2582.843,1478.018z M2582.542,1431.167h0.035H2582.542z"/>
					
						<linearGradient id="SVGID_00000072266094562103886170000004640204039828549817_" gradientUnits="userSpaceOnUse" x1="2607.748" y1="1434.5955" x2="2491.7778" y2="1603.1143">
						<stop  offset="0" style="stop-color:#2B3582"/>
						<stop  offset="1" style="stop-color:#150E42"/>
					</linearGradient>
					<path style="fill:url(#SVGID_00000072266094562103886170000004640204039828549817_);" d="M2594.922,1479.83
						c-1.943,0-3.55-1.54-3.617-3.496c-1.532-43.637-1.263-44.621-1.086-45.273c0.524-1.935,2.534-3.071,4.449-2.544
						c1.773,0.484,2.881,2.205,2.64,3.978c-0.116,2.622,0.694,28.012,1.239,43.584c0.071,2-1.494,3.681-3.493,3.748
						C2595.01,1479.83,2594.964,1479.83,2594.922,1479.83z"/>
					
						<linearGradient id="SVGID_00000138532350252430282490000000382942873962850494_" gradientUnits="userSpaceOnUse" x1="2613.4863" y1="1438.5446" x2="2497.5164" y2="1607.0631">
						<stop  offset="0" style="stop-color:#2B3582"/>
						<stop  offset="1" style="stop-color:#150E42"/>
					</linearGradient>
					<path style="fill:url(#SVGID_00000138532350252430282490000000382942873962850494_);" d="M2602.775,1478.018
						c-1.002,0-1.813-0.81-1.813-1.812v-44.193c0-1.002,0.811-1.812,1.813-1.812c1.001,0,1.812,0.81,1.812,1.812v44.193
						C2604.587,1477.208,2603.777,1478.018,2602.775,1478.018z"/>
					
						<linearGradient id="SVGID_00000179620667297749088700000003171365567452807332_" gradientUnits="userSpaceOnUse" x1="2617.0488" y1="1440.9965" x2="2501.0796" y2="1609.5139">
						<stop  offset="0" style="stop-color:#2B3582"/>
						<stop  offset="1" style="stop-color:#150E42"/>
					</linearGradient>
					<path style="fill:url(#SVGID_00000179620667297749088700000003171365567452807332_);" d="M2609.117,1478.018
						c-0.984,0-1.791-0.786-1.812-1.77c-0.347-15.356-1.157-40.438-1.883-43.453c-0.318-0.569-0.315-1.292,0.067-1.879
						c0.549-0.842,1.671-1.069,2.509-0.52c0.987,0.647,1.926,1.26,2.93,45.768c0.021,1.001-0.771,1.83-1.77,1.854H2609.117z"/>
					
						<linearGradient id="SVGID_00000155839422853388625850000004127588150884831105_" gradientUnits="userSpaceOnUse" x1="2583.877" y1="1418.1683" x2="2467.9072" y2="1586.6866">
						<stop  offset="0" style="stop-color:#2B3582"/>
						<stop  offset="1" style="stop-color:#150E42"/>
					</linearGradient>
					<path style="fill:url(#SVGID_00000155839422853388625850000004127588150884831105_);" d="M2559.587,1482.042
						c-1.915,0-3.515-1.501-3.617-3.436l-2.417-46.405c-0.103-1.999,1.433-3.702,3.433-3.808c1.897-0.135,3.702,1.434,3.808,3.433
						l2.417,46.405c0.103,2-1.433,3.702-3.433,3.808C2559.715,1482.042,2559.651,1482.042,2559.587,1482.042z"/>
				</g>
			</g>
			
				<linearGradient id="SVGID_00000160191284762448903550000013646183487395569033_" gradientUnits="userSpaceOnUse" x1="2886.1169" y1="1430.8408" x2="2959.0066" y2="1430.8408">
				<stop  offset="0" style="stop-color:#2B3582"/>
				<stop  offset="1" style="stop-color:#150E42"/>
			</linearGradient>
			<path style="fill:url(#SVGID_00000160191284762448903550000013646183487395569033_);" d="M2949.979,1441.707l-55.41-1.827
				c-4.713-0.155-8.452-4.02-8.452-8.735l0,0c0-4.678,3.683-8.526,8.356-8.732l55.41-2.435c4.973-0.219,9.124,3.754,9.124,8.732
				v4.262C2959.007,1437.912,2954.916,1441.87,2949.979,1441.707z"/>
			
				<linearGradient id="SVGID_00000147940523009436738260000003910484676290453949_" gradientUnits="userSpaceOnUse" x1="2886.1169" y1="1455.2024" x2="2959.0066" y2="1455.2024">
				<stop  offset="0" style="stop-color:#2B3582"/>
				<stop  offset="1" style="stop-color:#150E42"/>
			</linearGradient>
			<path style="fill:url(#SVGID_00000147940523009436738260000003910484676290453949_);" d="M2949.979,1466.069l-55.41-1.827
				c-4.713-0.156-8.452-4.021-8.452-8.735l0,0c0-4.678,3.683-8.526,8.356-8.732l55.41-2.436c4.973-0.218,9.124,3.754,9.124,8.732
				v4.262C2959.007,1462.273,2954.916,1466.231,2949.979,1466.069z"/>
			
				<linearGradient id="SVGID_00000002348000453062404710000014648996467985665940_" gradientUnits="userSpaceOnUse" x1="2886.1169" y1="1479.5642" x2="2959.0066" y2="1479.5642">
				<stop  offset="0" style="stop-color:#2B3582"/>
				<stop  offset="1" style="stop-color:#150E42"/>
			</linearGradient>
			<path style="fill:url(#SVGID_00000002348000453062404710000014648996467985665940_);" d="M2949.979,1490.43l-55.41-1.827
				c-4.713-0.155-8.452-4.02-8.452-8.735l0,0c0-4.677,3.683-8.526,8.356-8.732l55.41-2.435c4.973-0.219,9.124,3.754,9.124,8.731
				v4.262C2959.007,1486.635,2954.916,1490.593,2949.979,1490.43z"/>
			
				<linearGradient id="SVGID_00000177482961960941119400000011080111522752626602_" gradientUnits="userSpaceOnUse" x1="-201.7727" y1="1421.9818" x2="-128.8833" y2="1421.9818" gradientTransform="matrix(-1 0 0 1 2356.177 0)">
				<stop  offset="0" style="stop-color:#2B3582"/>
				<stop  offset="1" style="stop-color:#150E42"/>
			</linearGradient>
			<path style="fill:url(#SVGID_00000177482961960941119400000011080111522752626602_);" d="M2494.088,1432.848l55.41-1.827
				c4.712-0.156,8.452-4.02,8.452-8.735l0,0c0-4.678-3.683-8.526-8.356-8.731l-55.41-2.436c-4.973-0.219-9.124,3.754-9.124,8.731
				v4.263C2485.06,1429.053,2489.151,1433.011,2494.088,1432.848z"/>
			
				<linearGradient id="SVGID_00000013886682848760811530000008884734971185256579_" gradientUnits="userSpaceOnUse" x1="-201.7727" y1="1446.3436" x2="-128.8833" y2="1446.3436" gradientTransform="matrix(-1 0 0 1 2356.177 0)">
				<stop  offset="0" style="stop-color:#2B3582"/>
				<stop  offset="1" style="stop-color:#150E42"/>
			</linearGradient>
			<path style="fill:url(#SVGID_00000013886682848760811530000008884734971185256579_);" d="M2494.088,1457.21l55.41-1.827
				c4.712-0.155,8.452-4.02,8.452-8.735l0,0c0-4.677-3.683-8.525-8.356-8.731l-55.41-2.436c-4.973-0.219-9.124,3.754-9.124,8.732
				v4.262C2485.06,1453.415,2489.151,1457.373,2494.088,1457.21z"/>
			
				<linearGradient id="SVGID_00000063613339350372328060000013437404892304676736_" gradientUnits="userSpaceOnUse" x1="-201.7727" y1="1470.7054" x2="-128.8833" y2="1470.7054" gradientTransform="matrix(-1 0 0 1 2356.177 0)">
				<stop  offset="0" style="stop-color:#2B3582"/>
				<stop  offset="1" style="stop-color:#150E42"/>
			</linearGradient>
			<path style="fill:url(#SVGID_00000063613339350372328060000013437404892304676736_);" d="M2494.088,1481.572l55.41-1.827
				c4.712-0.155,8.452-4.02,8.452-8.735l0,0c0-4.678-3.683-8.526-8.356-8.732l-55.41-2.436c-4.973-0.219-9.124,3.754-9.124,8.732
				v4.262C2485.06,1477.776,2489.151,1481.735,2494.088,1481.572z"/>
		</g>
		<g>
			
				<linearGradient id="SVGID_00000093870299460235688020000011456922153612753036_" gradientUnits="userSpaceOnUse" x1="2740.196" y1="2483.6372" x2="3254.3962" y2="2483.6372">
				<stop  offset="0" style="stop-color:#CB236D"/>
				<stop  offset="1" style="stop-color:#4C246D"/>
			</linearGradient>
			<path style="fill:url(#SVGID_00000093870299460235688020000011456922153612753036_);" d="M3234.285,1945.861
				c-0.223-11.863-9.903-21.625-21.769-21.625H2764.03c-12.025,0-23.834,10.271-23.834,22.296v1074.734
				c0,5.784,3.333,11.332,7.428,15.416c4.097,4.084,10.164,6.371,15.949,6.355l468.917-1.28c5.835-0.016,11.547-2.374,15.629-6.544
				c4.082-4.171,6.383-9.935,6.273-15.768L3234.285,1945.861z"/>
			<g style="opacity:0.59;">
				<g>
					
						<linearGradient id="SVGID_00000182515626435225558520000017706780342899676582_" gradientUnits="userSpaceOnUse" x1="2484.488" y1="3559.7983" x2="2899.3831" y2="1758.5453">
						<stop  offset="0" style="stop-color:#B37CFF"/>
						<stop  offset="1" style="stop-color:#F895E7"/>
					</linearGradient>
					<polygon style="fill:url(#SVGID_00000182515626435225558520000017706780342899676582_);" points="2903.998,2050.881 
						2776.234,2050.709 2775.221,1985.222 2903.109,1985.222 					"/>
					
						<linearGradient id="SVGID_00000124859569941304860560000004545864101230195115_" gradientUnits="userSpaceOnUse" x1="2620.6069" y1="3591.1436" x2="3035.5017" y2="1789.8918">
						<stop  offset="0" style="stop-color:#B37CFF"/>
						<stop  offset="1" style="stop-color:#F895E7"/>
					</linearGradient>
					<polygon style="fill:url(#SVGID_00000124859569941304860560000004545864101230195115_);" points="3047.207,2050.848 
						2919.571,2050.676 2918.697,1985.222 3046.456,1985.222 					"/>
					
						<linearGradient id="SVGID_00000064345706620717245420000002949079934844092303_" gradientUnits="userSpaceOnUse" x1="2756.5859" y1="3622.4695" x2="3171.4807" y2="1821.2181">
						<stop  offset="0" style="stop-color:#B37CFF"/>
						<stop  offset="1" style="stop-color:#F895E7"/>
					</linearGradient>
					<polygon style="fill:url(#SVGID_00000064345706620717245420000002949079934844092303_);" points="3190.271,2050.814 
						3062.764,2050.644 3062.029,1985.222 3189.66,1985.222 					"/>
				</g>
				<g>
					
						<linearGradient id="SVGID_00000133521259219079574250000016765089160868446359_" gradientUnits="userSpaceOnUse" x1="2511.8987" y1="3566.1047" x2="2926.7935" y2="1764.853">
						<stop  offset="0" style="stop-color:#B37CFF"/>
						<stop  offset="1" style="stop-color:#F895E7"/>
					</linearGradient>
					<polygon style="fill:url(#SVGID_00000133521259219079574250000016765089160868446359_);" points="2905.594,2168.427 
						2778.053,2168.509 2777.043,2103.449 2904.708,2103.397 					"/>
					
						<linearGradient id="SVGID_00000167359511779834439180000000416253293606492806_" gradientUnits="userSpaceOnUse" x1="2647.7637" y1="3597.4077" x2="3062.6602" y2="1796.1498">
						<stop  offset="0" style="stop-color:#B37CFF"/>
						<stop  offset="1" style="stop-color:#F895E7"/>
					</linearGradient>
					<polygon style="fill:url(#SVGID_00000167359511779834439180000000416253293606492806_);" points="3048.554,2168.336 
						2921.14,2168.417 2920.269,2103.39 3047.806,2103.338 					"/>
					
						<linearGradient id="SVGID_00000000181975350884105540000015042144556010937271_" gradientUnits="userSpaceOnUse" x1="2783.4944" y1="3628.6719" x2="3198.3909" y2="1827.4135">
						<stop  offset="0" style="stop-color:#B37CFF"/>
						<stop  offset="1" style="stop-color:#F895E7"/>
					</linearGradient>
					<polygon style="fill:url(#SVGID_00000000181975350884105540000015042144556010937271_);" points="3191.37,2168.244 
						3064.085,2168.325 3063.352,2103.331 3190.76,2103.279 					"/>
				</g>
				<g>
					
						<linearGradient id="SVGID_00000133493902745249347860000002621263964589829519_" gradientUnits="userSpaceOnUse" x1="2539.0801" y1="3572.3726" x2="2953.9753" y2="1771.1195">
						<stop  offset="0" style="stop-color:#B37CFF"/>
						<stop  offset="1" style="stop-color:#F895E7"/>
					</linearGradient>
					<polygon style="fill:url(#SVGID_00000133493902745249347860000002621263964589829519_);" points="2907.186,2285.166 
						2779.867,2285.3 2778.86,2220.466 2906.302,2220.361 					"/>
					
						<linearGradient id="SVGID_00000068653986590226986420000006250653580808046727_" gradientUnits="userSpaceOnUse" x1="2674.6992" y1="3603.6033" x2="3089.595" y2="1802.3481">
						<stop  offset="0" style="stop-color:#B37CFF"/>
						<stop  offset="1" style="stop-color:#F895E7"/>
					</linearGradient>
					<polygon style="fill:url(#SVGID_00000068653986590226986420000006250653580808046727_);" points="3049.897,2285.016 
						2922.704,2285.149 2921.836,2220.348 3049.151,2220.243 					"/>
					
						<linearGradient id="SVGID_00000167365456954716140340000015276589956898900889_" gradientUnits="userSpaceOnUse" x1="2810.1797" y1="3634.8162" x2="3225.0747" y2="1833.563">
						<stop  offset="0" style="stop-color:#B37CFF"/>
						<stop  offset="1" style="stop-color:#F895E7"/>
					</linearGradient>
					<polygon style="fill:url(#SVGID_00000167365456954716140340000015276589956898900889_);" points="3192.464,2284.866 
						3065.4,2285 3064.67,2220.231 3191.856,2220.126 					"/>
				</g>
				<g>
					
						<linearGradient id="SVGID_00000178192766443029392570000005862464848940757904_" gradientUnits="userSpaceOnUse" x1="2566.1694" y1="3578.6089" x2="2981.0642" y2="1777.3582">
						<stop  offset="0" style="stop-color:#B37CFF"/>
						<stop  offset="1" style="stop-color:#F895E7"/>
					</linearGradient>
					<polygon style="fill:url(#SVGID_00000178192766443029392570000005862464848940757904_);" points="2908.771,2401.5 
						2781.673,2401.686 2780.67,2337.076 2907.891,2336.919 					"/>
					
						<linearGradient id="SVGID_00000005961618477980268800000002523316598830507393_" gradientUnits="userSpaceOnUse" x1="2701.5398" y1="3609.7859" x2="3116.4341" y2="1808.5358">
						<stop  offset="0" style="stop-color:#B37CFF"/>
						<stop  offset="1" style="stop-color:#F895E7"/>
					</linearGradient>
					<polygon style="fill:url(#SVGID_00000005961618477980268800000002523316598830507393_);" points="3051.235,2401.292 
						2924.263,2401.478 2923.398,2336.9 3050.492,2336.744 					"/>
					
						<linearGradient id="SVGID_00000107558138041791459740000003349245010669262524_" gradientUnits="userSpaceOnUse" x1="2836.7734" y1="3640.9368" x2="3251.6687" y2="1839.6836">
						<stop  offset="0" style="stop-color:#B37CFF"/>
						<stop  offset="1" style="stop-color:#F895E7"/>
					</linearGradient>
					<polygon style="fill:url(#SVGID_00000107558138041791459740000003349245010669262524_);" points="3193.555,2401.085 
						3066.711,2401.271 3065.984,2336.725 3192.949,2336.569 					"/>
				</g>
				<g>
					
						<linearGradient id="SVGID_00000037662296331451791460000007378920738674326713_" gradientUnits="userSpaceOnUse" x1="2593.1646" y1="3584.8267" x2="3008.0608" y2="1783.5686">
						<stop  offset="0" style="stop-color:#B37CFF"/>
						<stop  offset="1" style="stop-color:#F895E7"/>
					</linearGradient>
					<polygon style="fill:url(#SVGID_00000037662296331451791460000007378920738674326713_);" points="2910.352,2517.433 
						2783.474,2517.67 2782.474,2453.284 2909.474,2453.075 					"/>
					
						<linearGradient id="SVGID_00000163037472806423064250000016696977805234055064_" gradientUnits="userSpaceOnUse" x1="2728.2859" y1="3615.9529" x2="3143.1804" y2="1814.7019">
						<stop  offset="0" style="stop-color:#B37CFF"/>
						<stop  offset="1" style="stop-color:#F895E7"/>
					</linearGradient>
					<polygon style="fill:url(#SVGID_00000163037472806423064250000016696977805234055064_);" points="3052.568,2517.167 
						2925.817,2517.404 2924.955,2453.05 3051.828,2452.842 					"/>
					
						<linearGradient id="SVGID_00000132046607786611799300000001861946220453114510_" gradientUnits="userSpaceOnUse" x1="2863.2734" y1="3647.0437" x2="3278.1692" y2="1845.7881">
						<stop  offset="0" style="stop-color:#B37CFF"/>
						<stop  offset="1" style="stop-color:#F895E7"/>
					</linearGradient>
					<polygon style="fill:url(#SVGID_00000132046607786611799300000001861946220453114510_);" points="3194.642,2516.902 
						3068.017,2517.139 3067.292,2452.817 3194.039,2452.609 					"/>
				</g>
				<g>
					
						<linearGradient id="SVGID_00000119832922542174710510000017110842490148748716_" gradientUnits="userSpaceOnUse" x1="2620.0669" y1="3591.0205" x2="3034.9629" y2="1789.7639">
						<stop  offset="0" style="stop-color:#B37CFF"/>
						<stop  offset="1" style="stop-color:#F895E7"/>
					</linearGradient>
					<polygon style="fill:url(#SVGID_00000119832922542174710510000017110842490148748716_);" points="2911.926,2632.966 
						2785.268,2633.253 2784.272,2569.089 2911.052,2568.83 					"/>
					
						<linearGradient id="SVGID_00000160871210088071295240000015755891790309548210_" gradientUnits="userSpaceOnUse" x1="2754.9424" y1="3622.0876" x2="3169.8379" y2="1820.8326">
						<stop  offset="0" style="stop-color:#B37CFF"/>
						<stop  offset="1" style="stop-color:#F895E7"/>
					</linearGradient>
					<polygon style="fill:url(#SVGID_00000160871210088071295240000015755891790309548210_);" points="3053.896,2632.643 
						2927.365,2632.93 2926.505,2568.798 3053.159,2568.539 					"/>
					
						<linearGradient id="SVGID_00000071523454506489956560000007582703179365738122_" gradientUnits="userSpaceOnUse" x1="2889.6836" y1="3653.1216" x2="3304.5779" y2="1851.8719">
						<stop  offset="0" style="stop-color:#B37CFF"/>
						<stop  offset="1" style="stop-color:#F895E7"/>
					</linearGradient>
					<polygon style="fill:url(#SVGID_00000071523454506489956560000007582703179365738122_);" points="3195.726,2632.32 
						3069.319,2632.607 3068.597,2568.507 3195.125,2568.248 					"/>
				</g>
				<g>
					
						<linearGradient id="SVGID_00000136410486271482396000000003226886813186874543_" gradientUnits="userSpaceOnUse" x1="2646.8757" y1="3597.1985" x2="3061.7698" y2="1795.9501">
						<stop  offset="0" style="stop-color:#B37CFF"/>
						<stop  offset="1" style="stop-color:#F895E7"/>
					</linearGradient>
					<polygon style="fill:url(#SVGID_00000136410486271482396000000003226886813186874543_);" points="2913.496,2748.1 
						2787.056,2748.438 2786.064,2684.495 2912.624,2684.185 					"/>
					
						<linearGradient id="SVGID_00000083061238092121576590000016652410109455517331_" gradientUnits="userSpaceOnUse" x1="2781.5049" y1="3628.21" x2="3196.4009" y2="1826.9532">
						<stop  offset="0" style="stop-color:#B37CFF"/>
						<stop  offset="1" style="stop-color:#F895E7"/>
					</linearGradient>
					<polygon style="fill:url(#SVGID_00000083061238092121576590000016652410109455517331_);" points="3055.221,2747.721 
						2928.907,2748.058 2928.051,2684.147 3054.486,2683.838 					"/>
					
						<linearGradient id="SVGID_00000165236677447577577350000000276163697359609535_" gradientUnits="userSpaceOnUse" x1="2916.0002" y1="3659.1909" x2="3330.8958" y2="1857.9365">
						<stop  offset="0" style="stop-color:#B37CFF"/>
						<stop  offset="1" style="stop-color:#F895E7"/>
					</linearGradient>
					<polygon style="fill:url(#SVGID_00000165236677447577577350000000276163697359609535_);" points="3196.805,2747.342 
						3070.617,2747.68 3069.897,2683.8 3196.206,2683.49 					"/>
				</g>
				<g>
					
						<linearGradient id="SVGID_00000154404686838618277500000012987439431989002915_" gradientUnits="userSpaceOnUse" x1="2673.5923" y1="3603.353" x2="3088.4873" y2="1802.1006">
						<stop  offset="0" style="stop-color:#B37CFF"/>
						<stop  offset="1" style="stop-color:#F895E7"/>
					</linearGradient>
					<polygon style="fill:url(#SVGID_00000154404686838618277500000012987439431989002915_);" points="2915.059,2862.839 
						2788.838,2863.227 2787.849,2799.504 2914.191,2799.144 					"/>
					
						<linearGradient id="SVGID_00000026858430140338772960000003140508030844152231_" gradientUnits="userSpaceOnUse" x1="2807.9771" y1="3634.3069" x2="3222.8733" y2="1833.049">
						<stop  offset="0" style="stop-color:#B37CFF"/>
						<stop  offset="1" style="stop-color:#F895E7"/>
					</linearGradient>
					<polygon style="fill:url(#SVGID_00000026858430140338772960000003140508030844152231_);" points="3056.54,2862.403 
						2930.444,2862.791 2929.591,2799.1 3055.808,2798.74 					"/>
					
						<linearGradient id="SVGID_00000042725536446140211360000003637405378138187671_" gradientUnits="userSpaceOnUse" x1="2942.229" y1="3665.2292" x2="3357.1235" y2="1863.9796">
						<stop  offset="0" style="stop-color:#B37CFF"/>
						<stop  offset="1" style="stop-color:#F895E7"/>
					</linearGradient>
					<polygon style="fill:url(#SVGID_00000042725536446140211360000003637405378138187671_);" points="3197.881,2861.968 
						3071.91,2862.356 3071.192,2798.696 3197.283,2798.336 					"/>
				</g>
				<g>
					
						<linearGradient id="SVGID_00000062899261607347010810000005314851450746084743_" gradientUnits="userSpaceOnUse" x1="2700.2173" y1="3609.4858" x2="3115.1116" y2="1808.2365">
						<stop  offset="0" style="stop-color:#B37CFF"/>
						<stop  offset="1" style="stop-color:#F895E7"/>
					</linearGradient>
					<polygon style="fill:url(#SVGID_00000062899261607347010810000005314851450746084743_);" points="2916.618,2977.184 
						2790.614,2977.623 2789.628,2914.118 2915.753,2913.707 					"/>
					
						<linearGradient id="SVGID_00000023997972272072067850000013422291976271901588_" gradientUnits="userSpaceOnUse" x1="2834.3584" y1="3640.3831" x2="3249.2529" y2="1839.1324">
						<stop  offset="0" style="stop-color:#B37CFF"/>
						<stop  offset="1" style="stop-color:#F895E7"/>
					</linearGradient>
					<polygon style="fill:url(#SVGID_00000023997972272072067850000013422291976271901588_);" points="3057.855,2976.692 
						2931.976,2977.13 2931.126,2913.657 3057.125,2913.247 					"/>
					
						<linearGradient id="SVGID_00000114775772157425935870000002992970307207338144_" gradientUnits="userSpaceOnUse" x1="2968.3665" y1="3671.251" x2="3383.2627" y2="1869.9934">
						<stop  offset="0" style="stop-color:#B37CFF"/>
						<stop  offset="1" style="stop-color:#F895E7"/>
					</linearGradient>
					<polygon style="fill:url(#SVGID_00000114775772157425935870000002992970307207338144_);" points="3198.953,2976.201 
						3073.199,2976.639 3072.483,2913.197 3198.358,2912.787 					"/>
				</g>
			</g>
		</g>
		<g>
			
				<linearGradient id="SVGID_00000120544643321216010500000017788210988055086527_" gradientUnits="userSpaceOnUse" x1="2244.6819" y1="2433.7739" x2="2804.8303" y2="2433.7739">
				<stop  offset="0" style="stop-color:#A737D5"/>
				<stop  offset="1" style="stop-color:#EF497A"/>
			</linearGradient>
			<path style="fill:url(#SVGID_00000120544643321216010500000017788210988055086527_);" d="M2782.757,1839.544
				c-0.155-8.33-6.954-15.034-15.286-15.034h-505.376c-8.444,0-17.413,6.91-17.413,15.354v1179.451
				c0,6.302,3.571,12.347,8.033,16.797c4.463,4.45,11.044,6.942,17.347,6.925l510.911-1.395c6.358-0.017,12.574-2.586,17.021-7.129
				c4.447-4.544,6.951-10.698,6.832-17.055L2782.757,1839.544z"/>
			<g>
				<polygon style="fill:#FFFFFF;" points="2492.527,1908.096 2327.206,1907.524 2327.268,1886.839 2492.403,1887.361 				"/>
				<polygon style="fill:#FFFFFF;" points="2492.979,1984.284 2326.979,1983.527 2327.042,1962.672 2492.855,1963.379 				"/>
				<polygon style="fill:#FFFFFF;" points="2493.437,2061.103 2326.751,2060.157 2326.814,2039.13 2493.311,2040.024 				"/>
				<polygon style="fill:#FFFFFF;" points="2493.897,2138.56 2326.521,2137.423 2326.584,2116.221 2493.771,2117.306 				"/>
				<polygon style="fill:#FFFFFF;" points="2494.362,2216.661 2326.289,2215.33 2326.353,2193.952 2494.235,2195.23 				"/>
				<polygon style="fill:#FFFFFF;" points="2495.303,2374.833 2325.819,2373.102 2325.883,2351.365 2495.173,2353.04 				"/>
				<polygon style="fill:#FFFFFF;" points="2496.744,2617.139 2325.098,2614.785 2325.164,2592.491 2496.612,2594.787 				"/>
				<polygon style="fill:#FFFFFF;" points="2494.83,2295.416 2326.055,2293.887 2326.119,2272.33 2494.702,2273.805 				"/>
				<polygon style="fill:#FFFFFF;" points="2495.779,2454.921 2325.581,2452.986 2325.646,2431.065 2495.649,2432.944 				"/>
				<polygon style="fill:#FFFFFF;" points="2496.26,2535.686 2325.341,2533.544 2325.406,2511.437 2496.128,2513.523 				"/>
				<polygon style="fill:#FFFFFF;" points="2497.233,2699.289 2324.854,2696.719 2324.921,2674.234 2497.099,2676.745 				"/>
				<polygon style="fill:#FFFFFF;" points="2497.726,2782.143 2324.608,2779.355 2324.675,2756.677 2497.59,2759.405 				"/>
				<polygon style="fill:#FFFFFF;" points="2498.223,2865.713 2324.36,2862.702 2324.427,2839.83 2498.087,2842.779 				"/>
				<polygon style="fill:#FFFFFF;" points="2498.725,2950.005 2324.108,2946.769 2324.177,2923.698 2498.587,2926.871 				"/>
				<polygon style="fill:#FFFFFF;" points="2709.273,1908.846 2542.917,1908.27 2542.736,1887.521 2708.906,1888.045 				"/>
				<polygon style="fill:#FFFFFF;" points="2710.623,1985.278 2543.577,1984.515 2543.396,1963.594 2710.252,1964.305 				"/>
				<polygon style="fill:#FFFFFF;" points="2711.983,2062.343 2544.243,2061.391 2544.061,2040.297 2711.61,2041.196 				"/>
				<polygon style="fill:#FFFFFF;" points="2713.355,2140.052 2544.916,2138.907 2544.732,2117.637 2712.979,2118.728 				"/>
				<polygon style="fill:#FFFFFF;" points="2714.739,2218.408 2545.594,2217.068 2545.408,2195.62 2714.359,2196.906 				"/>
				<polygon style="fill:#FFFFFF;" points="2717.541,2377.103 2546.966,2375.36 2546.777,2353.551 2717.155,2355.237 				"/>
				<polygon style="fill:#FFFFFF;" points="2721.833,2620.227 2549.069,2617.857 2548.875,2595.487 2721.437,2597.798 				"/>
				<polygon style="fill:#FFFFFF;" points="2716.134,2297.422 2546.277,2295.882 2546.09,2274.255 2715.751,2275.74 				"/>
				<polygon style="fill:#FFFFFF;" points="2718.959,2457.459 2547.661,2455.511 2547.47,2433.517 2718.57,2435.408 				"/>
				<polygon style="fill:#FFFFFF;" points="2720.39,2538.497 2548.362,2536.34 2548.169,2514.159 2719.998,2516.259 				"/>
				<polygon style="fill:#FFFFFF;" points="2723.289,2702.658 2549.781,2700.072 2549.586,2677.51 2722.889,2680.037 				"/>
				<polygon style="fill:#FFFFFF;" points="2724.756,2785.799 2550.501,2782.992 2550.303,2760.236 2724.353,2762.982 				"/>
				<polygon style="fill:#FFFFFF;" points="2726.237,2869.66 2551.226,2866.63 2551.026,2843.678 2725.831,2846.646 				"/>
				<polygon style="fill:#FFFFFF;" points="2727.73,2954.248 2551.957,2950.991 2551.756,2927.839 2727.321,2931.033 				"/>
			</g>
		</g>
		<g>
			
				<linearGradient id="SVGID_00000159440366996112591720000004620839612612219326_" gradientUnits="userSpaceOnUse" x1="1893.5254" y1="2911.9124" x2="2307.23" y2="1845.473">
				<stop  offset="0" style="stop-color:#B37CFF"/>
				<stop  offset="1" style="stop-color:#F895E7"/>
			</linearGradient>
			<path style="fill:url(#SVGID_00000159440366996112591720000004620839612612219326_);" d="M2305.195,1992.576
				c-0.089-6.398-2.759-12.49-7.403-16.891c-4.646-4.401-10.873-6.739-17.267-6.483l-485.887,19.481
				c-8.339,0.334-14.869,7.295-14.672,15.639l24.664,1038.716l491.301-5.994c6.298-0.077,12.307-2.656,16.702-7.167
				c4.396-4.511,6.817-10.586,6.729-16.884L2305.195,1992.576z"/>
			<g style="opacity:0.57;">
				<g>
					
						<linearGradient id="SVGID_00000122706589824702038560000014563313476374015166_" gradientUnits="userSpaceOnUse" x1="1928.403" y1="2102.3669" x2="1744.1163" y2="2103.0623">
						<stop  offset="0" style="stop-color:#A737D5"/>
						<stop  offset="1" style="stop-color:#EF497A"/>
					</linearGradient>
					<polygon style="fill:url(#SVGID_00000122706589824702038560000014563313476374015166_);" points="1912.54,2154.47 
						1840.745,2154.447 1837.172,2050.667 1909.428,2050.667 					"/>
					
						<linearGradient id="SVGID_00000123417297251827228260000010338463006545274029_" gradientUnits="userSpaceOnUse" x1="2039.3773" y1="2102.2397" x2="1865.4951" y2="2102.896">
						<stop  offset="0" style="stop-color:#A737D5"/>
						<stop  offset="1" style="stop-color:#EF497A"/>
					</linearGradient>
					<polygon style="fill:url(#SVGID_00000123417297251827228260000010338463006545274029_);" points="2024.42,2154.193 
						1956.12,2154.162 1953.287,2050.667 2022.023,2050.667 					"/>
					
						<linearGradient id="SVGID_00000113352031132622616830000017933797494597122478_" gradientUnits="userSpaceOnUse" x1="2154.1738" y1="2102.0928" x2="1975.3573" y2="2102.7676">
						<stop  offset="0" style="stop-color:#A737D5"/>
						<stop  offset="1" style="stop-color:#EF497A"/>
					</linearGradient>
					<polygon style="fill:url(#SVGID_00000113352031132622616830000017933797494597122478_);" points="2138.786,2153.91 
						2067.768,2153.885 2065.646,2050.667 2137.117,2050.667 					"/>
					
						<linearGradient id="SVGID_00000018926133230346934420000014887658169701473710_" gradientUnits="userSpaceOnUse" x1="2267.677" y1="2101.9551" x2="2091.5928" y2="2102.6196">
						<stop  offset="0" style="stop-color:#A737D5"/>
						<stop  offset="1" style="stop-color:#EF497A"/>
					</linearGradient>
					<polygon style="fill:url(#SVGID_00000018926133230346934420000014887658169701473710_);" points="2252.527,2153.629 
						2181.897,2153.603 2180.5,2050.667 2251.576,2050.667 					"/>
				</g>
				<g>
					
						<linearGradient id="SVGID_00000163061541552454001280000001382440389781232004_" gradientUnits="userSpaceOnUse" x1="1933.3025" y1="2272.6926" x2="1751.0162" y2="2273.3806">
						<stop  offset="0" style="stop-color:#A737D5"/>
						<stop  offset="1" style="stop-color:#EF497A"/>
					</linearGradient>
					<polygon style="fill:url(#SVGID_00000163061541552454001280000001382440389781232004_);" points="1917.608,2323.297 
						1846.564,2323.759 1843.065,2222.316 1914.56,2222.025 					"/>
					
						<linearGradient id="SVGID_00000086672043524102934320000007598827246452289158_" gradientUnits="userSpaceOnUse" x1="2043.1244" y1="2272.105" x2="1871.1056" y2="2272.7542">
						<stop  offset="0" style="stop-color:#A737D5"/>
						<stop  offset="1" style="stop-color:#EF497A"/>
					</linearGradient>
					<polygon style="fill:url(#SVGID_00000086672043524102934320000007598827246452289158_);" points="2028.324,2322.576 
						1960.734,2323.016 1957.959,2221.847 2025.977,2221.569 					"/>
					
						<linearGradient id="SVGID_00000047048326192171328710000000437147795050226090_" gradientUnits="userSpaceOnUse" x1="2156.7354" y1="2271.5078" x2="1979.8064" y2="2272.1755">
						<stop  offset="0" style="stop-color:#A737D5"/>
						<stop  offset="1" style="stop-color:#EF497A"/>
					</linearGradient>
					<polygon style="fill:url(#SVGID_00000047048326192171328710000000437147795050226090_);" points="2141.507,2321.841 
						2071.223,2322.297 2069.146,2221.393 2139.871,2221.105 					"/>
					
						<linearGradient id="SVGID_00000112611525304499588760000015822103184063214775_" gradientUnits="userSpaceOnUse" x1="2269.0725" y1="2270.9121" x2="2094.8181" y2="2271.5696">
						<stop  offset="0" style="stop-color:#A737D5"/>
						<stop  offset="1" style="stop-color:#EF497A"/>
					</linearGradient>
					<polygon style="fill:url(#SVGID_00000112611525304499588760000015822103184063214775_);" points="2254.076,2321.108 
						2184.173,2321.562 2182.804,2220.929 2253.145,2220.642 					"/>
				</g>
				<g>
					
						<linearGradient id="SVGID_00000111881134783283514000000004386263290346868134_" gradientUnits="userSpaceOnUse" x1="1938.1012" y1="2438.8489" x2="1757.775" y2="2439.5293">
						<stop  offset="0" style="stop-color:#A737D5"/>
						<stop  offset="1" style="stop-color:#EF497A"/>
					</linearGradient>
					<polygon style="fill:url(#SVGID_00000111881134783283514000000004386263290346868134_);" points="1922.573,2488.283 
						1852.264,2489.018 1848.837,2389.645 1919.588,2389.074 					"/>
					
						<linearGradient id="SVGID_00000170259280802600925140000015430457755713225377_" gradientUnits="userSpaceOnUse" x1="2046.7948" y1="2437.824" x2="1876.6022" y2="2438.4663">
						<stop  offset="0" style="stop-color:#A737D5"/>
						<stop  offset="1" style="stop-color:#EF497A"/>
					</linearGradient>
					<polygon style="fill:url(#SVGID_00000170259280802600925140000015430457755713225377_);" points="2032.149,2487.137 
						1965.255,2487.837 1962.536,2388.727 2029.849,2388.183 					"/>
					
						<linearGradient id="SVGID_00000021108887950711752430000002499804396323193233_" gradientUnits="userSpaceOnUse" x1="2159.2439" y1="2436.7915" x2="1984.1648" y2="2437.4521">
						<stop  offset="0" style="stop-color:#A737D5"/>
						<stop  offset="1" style="stop-color:#EF497A"/>
					</linearGradient>
					<polygon style="fill:url(#SVGID_00000021108887950711752430000002499804396323193233_);" points="2144.172,2485.966 
						2074.607,2486.693 2072.572,2387.838 2142.57,2387.272 					"/>
					
						<linearGradient id="SVGID_00000144307316880956315840000018149077526728607401_" gradientUnits="userSpaceOnUse" x1="2270.4377" y1="2435.7573" x2="2097.9797" y2="2436.4082">
						<stop  offset="0" style="stop-color:#A737D5"/>
						<stop  offset="1" style="stop-color:#EF497A"/>
					</linearGradient>
					<polygon style="fill:url(#SVGID_00000144307316880956315840000018149077526728607401_);" points="2255.594,2484.802 
						2186.402,2485.525 2185.061,2386.929 2254.681,2386.367 					"/>
				</g>
				<g>
					
						<linearGradient id="SVGID_00000039825394955070394110000008581134955095003068_" gradientUnits="userSpaceOnUse" x1="1942.8033" y1="2601.6343" x2="1764.395" y2="2602.3076">
						<stop  offset="0" style="stop-color:#A737D5"/>
						<stop  offset="1" style="stop-color:#EF497A"/>
					</linearGradient>
					<polygon style="fill:url(#SVGID_00000039825394955070394110000008581134955095003068_);" points="1927.438,2649.935 
						1857.849,2650.931 1854.49,2553.567 1924.513,2552.727 					"/>
					
						<linearGradient id="SVGID_00000034062080426329965440000016960246776615711679_" gradientUnits="userSpaceOnUse" x1="2050.3906" y1="2600.1892" x2="1881.9862" y2="2600.8247">
						<stop  offset="0" style="stop-color:#A737D5"/>
						<stop  offset="1" style="stop-color:#EF497A"/>
					</linearGradient>
					<polygon style="fill:url(#SVGID_00000034062080426329965440000016960246776615711679_);" points="2035.897,2648.381 
						1969.683,2649.329 1967.02,2552.217 2033.643,2551.417 					"/>
					
						<linearGradient id="SVGID_00000172422006977170530250000017301985900335486097_" gradientUnits="userSpaceOnUse" x1="2161.7014" y1="2598.7397" x2="1988.4351" y2="2599.3936">
						<stop  offset="0" style="stop-color:#A737D5"/>
						<stop  offset="1" style="stop-color:#EF497A"/>
					</linearGradient>
					<polygon style="fill:url(#SVGID_00000172422006977170530250000017301985900335486097_);" points="2146.783,2646.792 
						2077.924,2647.779 2075.929,2550.91 2145.213,2550.079 					"/>
					
						<linearGradient id="SVGID_00000027573713923698445420000017132187180119342522_" gradientUnits="userSpaceOnUse" x1="2271.7771" y1="2597.2837" x2="2101.0759" y2="2597.928">
						<stop  offset="0" style="stop-color:#A737D5"/>
						<stop  offset="1" style="stop-color:#EF497A"/>
					</linearGradient>
					<polygon style="fill:url(#SVGID_00000027573713923698445420000017132187180119342522_);" points="2257.082,2645.212 
						2188.587,2646.193 2187.273,2549.574 2256.187,2548.747 					"/>
				</g>
				<g>
					
						<linearGradient id="SVGID_00000031895977107338113660000000743718004344031919_" gradientUnits="userSpaceOnUse" x1="1947.4111" y1="2761.1497" x2="1770.8802" y2="2761.8157">
						<stop  offset="0" style="stop-color:#A737D5"/>
						<stop  offset="1" style="stop-color:#EF497A"/>
					</linearGradient>
					<polygon style="fill:url(#SVGID_00000031895977107338113660000000743718004344031919_);" points="1932.205,2808.351 
						1863.321,2809.6 1860.03,2714.183 1929.339,2713.085 					"/>
					
						<linearGradient id="SVGID_00000052096417169080026180000002250220051645493127_" gradientUnits="userSpaceOnUse" x1="2053.9148" y1="2759.302" x2="1887.2622" y2="2759.9309">
						<stop  offset="0" style="stop-color:#A737D5"/>
						<stop  offset="1" style="stop-color:#EF497A"/>
					</linearGradient>
					<polygon style="fill:url(#SVGID_00000052096417169080026180000002250220051645493127_);" points="2039.57,2806.406 
						1974.024,2807.594 1971.414,2712.418 2037.362,2711.374 					"/>
					
						<linearGradient id="SVGID_00000149373214435768586290000006604325372695822220_" gradientUnits="userSpaceOnUse" x1="2164.1108" y1="2757.4514" x2="1992.6178" y2="2758.0984">
						<stop  offset="0" style="stop-color:#A737D5"/>
						<stop  offset="1" style="stop-color:#EF497A"/>
					</linearGradient>
					<polygon style="fill:url(#SVGID_00000149373214435768586290000006604325372695822220_);" points="2149.343,2804.417 
						2081.174,2805.653 2079.219,2710.711 2147.804,2709.625 					"/>
					
						<linearGradient id="SVGID_00000039091859699769073950000017882394294961715343_" gradientUnits="userSpaceOnUse" x1="2273.0886" y1="2755.5916" x2="2104.113" y2="2756.2292">
						<stop  offset="0" style="stop-color:#A737D5"/>
						<stop  offset="1" style="stop-color:#EF497A"/>
					</linearGradient>
					<polygon style="fill:url(#SVGID_00000039091859699769073950000017882394294961715343_);" points="2258.54,2802.438 
						2190.729,2803.667 2189.441,2708.966 2257.663,2707.885 					"/>
				</g>
				<g>
					
						<linearGradient id="SVGID_00000005247744452947133100000017912991654841074051_" gradientUnits="userSpaceOnUse" x1="1951.9281" y1="2917.4927" x2="1777.2358" y2="2918.1519">
						<stop  offset="0" style="stop-color:#A737D5"/>
						<stop  offset="1" style="stop-color:#EF497A"/>
					</linearGradient>
					<polygon style="fill:url(#SVGID_00000005247744452947133100000017912991654841074051_);" points="1936.879,2963.63 
						1868.685,2965.119 1865.459,2871.592 1934.068,2870.248 					"/>
					
						<linearGradient id="SVGID_00000123425167163436854150000017726230058978853024_" gradientUnits="userSpaceOnUse" x1="2057.3701" y1="2915.2585" x2="1892.4324" y2="2915.8809">
						<stop  offset="0" style="stop-color:#A737D5"/>
						<stop  offset="1" style="stop-color:#EF497A"/>
					</linearGradient>
					<polygon style="fill:url(#SVGID_00000123425167163436854150000017726230058978853024_);" points="2043.17,2961.309 
						1978.278,2962.726 1975.72,2869.431 2041.005,2868.151 					"/>
					
						<linearGradient id="SVGID_00000142868831848203502240000016046008934061753482_" gradientUnits="userSpaceOnUse" x1="2166.4727" y1="2913.0232" x2="1996.7196" y2="2913.6638">
						<stop  offset="0" style="stop-color:#A737D5"/>
						<stop  offset="1" style="stop-color:#EF497A"/>
					</linearGradient>
					<polygon style="fill:url(#SVGID_00000142868831848203502240000016046008934061753482_);" points="2151.853,2958.935 
						2084.36,2960.41 2082.444,2867.339 2150.344,2866.008 					"/>
					
						<linearGradient id="SVGID_00000143576986053336016140000009335874566906921871_" gradientUnits="userSpaceOnUse" x1="2274.3745" y1="2910.7751" x2="2107.0886" y2="2911.4065">
						<stop  offset="0" style="stop-color:#A737D5"/>
						<stop  offset="1" style="stop-color:#EF497A"/>
					</linearGradient>
					<polygon style="fill:url(#SVGID_00000143576986053336016140000009335874566906921871_);" points="2259.969,2956.574 
						2192.828,2958.04 2191.565,2865.2 2259.109,2863.875 					"/>
				</g>
			</g>
		</g>
		<g>
			
				<linearGradient id="SVGID_00000139995380889339845680000010368066924454999425_" gradientUnits="userSpaceOnUse" x1="1595.0562" y1="2301.842" x2="1564.5591" y2="3145.6072">
				<stop  offset="0" style="stop-color:#FDF53F"/>
				<stop  offset="1" style="stop-color:#D93C65"/>
			</linearGradient>
			<path style="fill:url(#SVGID_00000139995380889339845680000010368066924454999425_);" d="M2591.259,3108.891H548.827
				c-12.763,0-14.296-51.836-10.445-125.954c1.069-20.713,2.567-43.352,4.349-66.988c0.178-2.354,0.356-4.813,0.534-7.202
				c1.711-21.854,3.636-44.634,5.669-67.772c13.69-153.227,33.333-324.297,30.446-371.677
				c-5.526-91.087,55.187-140.224,55.187-140.224s1181.216-55.369,1308.204-0.147c126.952,55.187,535.403,460.855,612.658,505.027
				C2632.721,2878.126,2591.259,3108.891,2591.259,3108.891z"/>
			
				<linearGradient id="SVGID_00000004530572138753801100000017929960564929577621_" gradientUnits="userSpaceOnUse" x1="2619.502" y1="2348.9263" x2="2346.3176" y2="3805.9023">
				<stop  offset="0" style="stop-color:#FDF53F"/>
				<stop  offset="1" style="stop-color:#D93C65"/>
			</linearGradient>
			<path style="fill:url(#SVGID_00000004530572138753801100000017929960564929577621_);" d="M2616.329,2971.147
				c-4.518-4.221-11.502-6.378-17.671-5.958l-229.164,15.548v144.931c0,0,113.125,1.728,197.081,0.662
				c17.79-0.226,33.64-12.84,37.032-30.305c3.972-20.449,11.692-40.983,16.271-51.34c2.102-4.756,2.576-9.947,2.576-15.147v-42.081
				C2622.454,2981.273,2620.847,2975.368,2616.329,2971.147z"/>
			
				<linearGradient id="SVGID_00000166641520649318419380000007435235338171144596_" gradientUnits="userSpaceOnUse" x1="757.7037" y1="2545.3191" x2="580.6403" y2="3698.7578">
				<stop  offset="0" style="stop-color:#FDF53F"/>
				<stop  offset="1" style="stop-color:#D93C65"/>
			</linearGradient>
			<path style="fill:url(#SVGID_00000166641520649318419380000007435235338171144596_);" d="M543.269,2987.471
				c-14.198,0-28.812,8.458-28.812,22.655v72.761c0,13.084,11.64,24.08,24.641,25.545l299.148,33.523v-154.484H543.269z"/>
			<g>
				<g>
					
						<linearGradient id="SVGID_00000080185880927853594800000015014225436954953651_" gradientUnits="userSpaceOnUse" x1="757.4386" y1="3076.4192" x2="1109.3676" y2="3076.4192">
						<stop  offset="0" style="stop-color:#2B3582"/>
						<stop  offset="1" style="stop-color:#150E42"/>
					</linearGradient>
					
						<circle style="fill:url(#SVGID_00000080185880927853594800000015014225436954953651_);" cx="933.403" cy="3076.419" r="175.964"/>
					
						<linearGradient id="SVGID_00000071555308004539990360000005283129233487617195_" gradientUnits="userSpaceOnUse" x1="1074.2284" y1="2845.6819" x2="684.1909" y2="3484.7437">
						<stop  offset="0" style="stop-color:#233894"/>
						<stop  offset="0.9964" style="stop-color:#DD397A"/>
					</linearGradient>
					
						<circle style="fill:url(#SVGID_00000071555308004539990360000005283129233487617195_);" cx="933.403" cy="3076.419" r="142.902"/>
					<path style="fill:#FFFFFF;" d="M1053.434,3129.042c-0.438,0-0.883-0.087-1.313-0.268c-1.716-0.725-2.518-2.704-1.792-4.42
						c6.421-15.181,9.677-31.309,9.677-47.936c0-67.904-55.246-123.148-123.152-123.148c-21.067,0-41.854,5.408-60.114,15.642
						c-1.625,0.909-3.679,0.333-4.591-1.294c-0.911-1.624-0.331-3.681,1.294-4.592c19.263-10.795,41.192-16.501,63.411-16.501
						c71.626,0,129.897,58.27,129.897,129.894c0,17.534-3.435,34.546-10.211,50.564
						C1055.998,3128.269,1054.748,3129.041,1053.434,3129.042z"/>
				</g>
				
					<linearGradient id="SVGID_00000127728449417349945840000013400424510616270768_" gradientUnits="userSpaceOnUse" x1="997.9865" y1="2970.6016" x2="819.1127" y2="3263.6794">
					<stop  offset="0" style="stop-color:#2B3582"/>
					<stop  offset="1" style="stop-color:#150E42"/>
				</linearGradient>
				
					<circle style="fill:url(#SVGID_00000127728449417349945840000013400424510616270768_);" cx="933.403" cy="3076.419" r="65.536"/>
			</g>
			<g>
				<g>
					
						<linearGradient id="SVGID_00000159468499027870482500000004334373429279430290_" gradientUnits="userSpaceOnUse" x1="2076.7236" y1="3076.4192" x2="2428.6526" y2="3076.4192">
						<stop  offset="0" style="stop-color:#2B3582"/>
						<stop  offset="1" style="stop-color:#150E42"/>
					</linearGradient>
					
						<circle style="fill:url(#SVGID_00000159468499027870482500000004334373429279430290_);" cx="2252.688" cy="3076.419" r="175.964"/>
					
						<linearGradient id="SVGID_00000032634438684252058490000007509050521692117922_" gradientUnits="userSpaceOnUse" x1="2393.5134" y1="2845.6819" x2="2003.476" y2="3484.7437">
						<stop  offset="0" style="stop-color:#233894"/>
						<stop  offset="0.9964" style="stop-color:#DD397A"/>
					</linearGradient>
					
						<circle style="fill:url(#SVGID_00000032634438684252058490000007509050521692117922_);" cx="2252.688" cy="3076.419" r="142.902"/>
					<path style="fill:#FFFFFF;" d="M2372.719,3129.042c-0.438,0-0.883-0.087-1.313-0.268c-1.716-0.725-2.518-2.704-1.792-4.42
						c6.421-15.181,9.677-31.309,9.677-47.936c0-67.904-55.246-123.148-123.152-123.148c-21.067,0-41.854,5.408-60.114,15.642
						c-1.622,0.909-3.681,0.333-4.591-1.294c-0.911-1.624-0.331-3.681,1.294-4.592c19.263-10.795,41.192-16.501,63.411-16.501
						c71.626,0,129.897,58.27,129.897,129.894c0,17.534-3.436,34.546-10.211,50.564
						C2375.283,3128.269,2374.033,3129.041,2372.719,3129.042z"/>
				</g>
				
					<linearGradient id="SVGID_00000062882744210140655100000014845438281367243179_" gradientUnits="userSpaceOnUse" x1="2317.2717" y1="2970.6016" x2="2138.3977" y2="3263.6794">
					<stop  offset="0" style="stop-color:#2B3582"/>
					<stop  offset="1" style="stop-color:#150E42"/>
				</linearGradient>
				
					<circle style="fill:url(#SVGID_00000062882744210140655100000014845438281367243179_);" cx="2252.688" cy="3076.419" r="65.536"/>
			</g>
			
				<linearGradient id="SVGID_00000107551837458815327450000013886772388180160411_" gradientUnits="userSpaceOnUse" x1="1526.8516" y1="3374.2507" x2="2270.5149" y2="2109.5159">
				<stop  offset="0" style="stop-color:#233894"/>
				<stop  offset="0.9964" style="stop-color:#DD397A"/>
			</linearGradient>
			<path style="fill:url(#SVGID_00000107551837458815327450000013886772388180160411_);" d="M2242.258,2642.016l-259.573-211.896
				c-13.395-10.985-30.194-16.024-47.509-16.024h-119.085c-41.381,0-77.31,31.625-77.31,73.006v130.862
				c0,18.217,11.496,35.362,27.799,43.513l92.346,46.052h360.245c15.381,0,29.103-10.142,34.283-24.626
				C2258.633,2668.42,2254.152,2651.769,2242.258,2642.016z"/>
			<path style="fill:#FFFFFF;" d="M1215.998,3068.418c-1.863,0-3.373-1.51-3.373-3.373v-634.086c0-1.863,1.51-3.373,3.373-3.373
				c1.863,0,3.373,1.51,3.373,3.373v634.086C1219.371,3066.908,1217.861,3068.418,1215.998,3068.418z"/>
			<path style="fill:#FFFFFF;" d="M1688.189,3068.418c-1.863,0-3.373-1.51-3.373-3.373v-634.086c0-1.863,1.51-3.373,3.373-3.373
				s3.373,1.51,3.373,3.373v634.086C1691.562,3066.908,1690.052,3068.418,1688.189,3068.418z"/>
			<path style="fill:#FFFFFF;" d="M1678.071,2447.823h-441.836c-1.863,0-3.373-1.51-3.373-3.373s1.51-3.373,3.373-3.373h441.836
				c1.863,0,3.373,1.51,3.373,3.373S1679.934,2447.823,1678.071,2447.823z"/>
			<path style="fill:#FFFFFF;" d="M1199.134,2447.823H629.132c-1.863,0-3.373-1.51-3.373-3.373s1.51-3.373,3.373-3.373h570.002
				c1.863,0,3.373,1.51,3.373,3.373S1200.997,2447.823,1199.134,2447.823z"/>
			<path style="fill:#FFFFFF;" d="M1182.27,2845.813H629.132c-1.863,0-3.373-1.51-3.373-3.373c0-1.863,1.51-3.373,3.373-3.373
				h553.138c1.863,0,3.373,1.51,3.373,3.373C1185.643,2844.303,1184.133,2845.813,1182.27,2845.813z"/>
			<path style="fill:#FFFFFF;" d="M1634.225,2845.813h-384.499c-1.863,0-3.373-1.51-3.373-3.373c0-1.863,1.51-3.373,3.373-3.373
				h384.499c1.863,0,3.373,1.51,3.373,3.373C1637.598,2844.303,1636.087,2845.813,1634.225,2845.813z"/>
			<path style="fill:#FFFFFF;" d="M1769.446,3079.658c-1.625,0-3.057-1.177-3.327-2.833l-44.159-272.187
				c-0.028-0.178-0.043-0.359-0.043-0.54V2660.31c0-1.863,1.51-3.373,3.373-3.373c1.863,0,3.373,1.51,3.373,3.373v143.517
				l44.116,271.918c0.298,1.838-0.952,3.57-2.79,3.87C1769.807,3079.645,1769.624,3079.658,1769.446,3079.658z"/>
			
				<linearGradient id="SVGID_00000017489415032234259360000011500901053599167128_" gradientUnits="userSpaceOnUse" x1="2478.0684" y1="2895.7034" x2="2606.6057" y2="2895.7034">
				<stop  offset="0" style="stop-color:#FDF53F"/>
				<stop  offset="1" style="stop-color:#D93C65"/>
			</linearGradient>
			<path style="fill:url(#SVGID_00000017489415032234259360000011500901053599167128_);" d="M2563.974,2843.774
				c0,0-16.885,18.904-47.552,18.904c-7.43,0-13.888,0-19.409,0c-5.976,0-11.602,0.212-15.178,5
				c-3.576,4.789-4.684,9.679-2.988,15.41l14.8,49.363c2.821,9.532,11.577,15.718,21.519,15.696
				c30.764-0.07,92.801-1.295,91.416-19.301C2604.743,2904.927,2584.538,2836.68,2563.974,2843.774z"/>
			<g>
				
					<linearGradient id="SVGID_00000144312119066903116420000014381216273438761114_" gradientUnits="userSpaceOnUse" x1="2254.8191" y1="2680.5112" x2="2278.4287" y2="2680.5112">
					<stop  offset="0" style="stop-color:#2B3582"/>
					<stop  offset="1" style="stop-color:#150E42"/>
				</linearGradient>
				<path style="fill:url(#SVGID_00000144312119066903116420000014381216273438761114_);" d="M2278.429,2700.119
					c0,4.922-5.16,8.913-11.805,8.913l0,0c-6.645,0-11.805-3.99-11.805-8.913v-39.216c0-4.922,5.159-8.913,11.805-8.913l0,0
					c6.645,0,11.805,3.99,11.805,8.913V2700.119z"/>
				
					<linearGradient id="SVGID_00000019667122131546718110000005137971238644351119_" gradientUnits="userSpaceOnUse" x1="2230.9224" y1="2623.2004" x2="2233.2754" y2="3051.4626">
					<stop  offset="0" style="stop-color:#233894"/>
					<stop  offset="0.9964" style="stop-color:#DD397A"/>
				</linearGradient>
				<path style="fill:url(#SVGID_00000019667122131546718110000005137971238644351119_);" d="M2264.938,2717.96
					c0,18.455-14.961,33.415-33.415,33.415h-0.625c-18.455,0-33.415-14.96-33.415-33.415v-84.945
					c0-18.455,14.96-33.415,33.415-33.415h0.625c18.455,0,33.415,14.96,33.415,33.415V2717.96z"/>
			</g>
			<path style="fill:#FFFFFF;" d="M2231.209,2845.813h-435.091c-1.863,0-3.373-1.51-3.373-3.373c0-1.863,1.51-3.373,3.373-3.373
				h435.091c1.863,0,3.373,1.51,3.373,3.373C2234.582,2844.303,2233.072,2845.813,2231.209,2845.813z"/>
			
				<linearGradient id="SVGID_00000036952888039497747870000012325051515759423679_" gradientUnits="userSpaceOnUse" x1="1599.2611" y1="2929.8333" x2="1620.9863" y2="2732.4966">
				<stop  offset="0" style="stop-color:#FDF53F"/>
				<stop  offset="1" style="stop-color:#D93C65"/>
			</linearGradient>
			<path style="fill:url(#SVGID_00000036952888039497747870000012325051515759423679_);" d="M1640.97,2738.812
				c0,8.801-7.135,15.936-15.936,15.936h-1.856c-8.801,0-15.936-7.135-15.936-15.936V2669.5c0-8.801,7.135-15.936,15.936-15.936
				h1.856c8.801,0,15.936,7.135,15.936,15.936V2738.812z"/>
			
				<linearGradient id="SVGID_00000017496452160590011370000002757470864702180248_" gradientUnits="userSpaceOnUse" x1="-373.2246" y1="5914.4668" x2="-351.4994" y2="5717.1299" gradientTransform="matrix(0 1 -1 0 7535.5 3106.5)">
				<stop  offset="0" style="stop-color:#FDF53F"/>
				<stop  offset="1" style="stop-color:#D93C65"/>
			</linearGradient>
			<path style="fill:url(#SVGID_00000017496452160590011370000002757470864702180248_);" d="M1897.303,2759.049
				c0,8.801-7.135,15.936-15.936,15.936h-69.312c-8.801,0-15.936-7.135-15.936-15.936v-1.856c0-8.801,7.135-15.936,15.936-15.936
				h69.312c8.801,0,15.936,7.135,15.936,15.936V2759.049z"/>
			
				<linearGradient id="SVGID_00000074441426396900514710000015909895623282595972_" gradientUnits="userSpaceOnUse" x1="563.3207" y1="2842.3101" x2="558.0549" y2="2988.0015">
				<stop  offset="0" style="stop-color:#FDF53F"/>
				<stop  offset="1" style="stop-color:#D93C65"/>
			</linearGradient>
			<path style="fill:url(#SVGID_00000074441426396900514710000015909895623282595972_);" d="M578.54,2856.091v112.3
				c0,8.378-3.581,19.08-11.958,19.08h-23.173c-1.747,0-3.458-2.284-5.026-2.855c1.069-20.713,2.567-44.191,4.349-67.827
				c0.178-2.353,0.356-4.482,0.534-6.871c1.711-21.853,3.636-43.867,5.669-67.477h17.647
				C574.959,2842.441,578.54,2847.713,578.54,2856.091z"/>
			
				<linearGradient id="SVGID_00000072250331179219444640000011355430331727343510_" gradientUnits="userSpaceOnUse" x1="561.0239" y1="2909.2634" x2="560.612" y2="2920.6611">
				<stop  offset="0" style="stop-color:#53D8FF"/>
				<stop  offset="1" style="stop-color:#3840F7"/>
			</linearGradient>
			<path style="fill:url(#SVGID_00000072250331179219444640000011355430331727343510_);" d="M578.54,2909.896v10.118h-35.809
				c0.178-3.373,0.356-10.118,0.534-10.118H578.54z"/>
		</g>
		<g>
			<path style="fill:#FFFFFF;" d="M834.501,2142.539c12.922-29.224,47.216-42.491,76.441-29.569
				c29.224,12.922,42.49,47.217,29.568,76.442c-12.921,29.223-47.216,42.49-76.441,29.568
				C834.844,2206.058,821.58,2171.762,834.501,2142.539z M855.538,2151.841c-7.794,17.627,0.206,38.307,17.834,46.101
				c17.627,7.794,38.308-0.205,46.101-17.832c7.794-17.628-0.206-38.308-17.833-46.102
				C884.012,2126.214,863.332,2134.213,855.538,2151.841z"/>
			<g>
				<path style="fill:#FFFFFF;" d="M937.503,2052.898c-62.353-27.569-135.505,0.727-163.075,63.08
					c-1.708,3.864-3.184,7.77-4.452,11.706c-1.708,5.295-7.838,7.653-12.538,4.677l-15.37-9.733
					c-3.356-2.125-4.73-6.293-3.397-10.036c1.263-3.546,2.656-7.071,4.202-10.566c35.261-79.749,128.835-115.945,208.583-80.684
					c6.042,2.671,11.818,5.695,17.337,9.015c4.133,2.487,5.397,7.897,2.734,11.917l-9.794,14.792
					c-2.476,3.742-7.44,4.867-11.29,2.563C946.318,2057.156,942.013,2054.892,937.503,2052.898z"/>
				<path style="fill:#FFFFFF;" d="M973.548,1971.377c-107.304-47.445-233.194,1.252-280.639,108.556l-0.04,0.091
					c-2.074,4.696-7.775,6.519-12.112,3.773l-15.078-9.549c-1.231-4.03-2.023-6.626-3.255-10.657
					c55.94-123.031,201.175-178.552,325.076-123.769c10.815,4.782,21.083,10.286,30.832,16.381c3.966,2.478,5.018,7.8,2.437,11.699
					l-9.77,14.754c-2.487,3.756-7.519,4.934-11.343,2.553C991.393,1980.069,982.698,1975.423,973.548,1971.377z"/>
				<path style="fill:#FFFFFF;" d="M1009.592,1889.858c-148.29-65.567-321.559-1.682-392.672,142.363
					c-2.233,4.523-7.821,6.196-12.082,3.497l-14.96-9.475c-3.632-2.299-5-7.005-3.077-10.85
					c79.72-159.404,272.043-229.915,436.744-157.092c15.47,6.84,30.12,14.768,43.989,23.573c3.954,2.51,5.011,7.831,2.426,11.735
					l-9.757,14.736c-2.545,3.842-7.664,4.862-11.559,2.398C1036.322,1902.949,1023.317,1895.927,1009.592,1889.858z"/>
			</g>
		</g>
	</g>
</g>
</svg>
