<!DOCTYPE svg PUBLIC "-//W3C//DTD SVG 1.1//EN" "http://www.w3.org/Graphics/SVG/1.1/DTD/svg11.dtd">
<!-- Uploaded to: SVG Repo, www.svgrepo.com, Transformed by: SVG Repo Mixer Tools -->
<svg version="1.1" id="Layer_1" xmlns="http://www.w3.org/2000/svg" xmlns:xlink="http://www.w3.org/1999/xlink" viewBox="0 0 512 512" xml:space="preserve" width="800px" height="800px" fill="#3F51B5" stroke="#3F51B5">
<g id="SVGRepo_bgCarrier" stroke-width="0"/>
<g id="SVGRepo_tracerCarrier" stroke-linecap="round" stroke-linejoin="round"/>
<g id="SVGRepo_iconCarrier"> <path style="fill:#;" d="M368,512H144c-17.6,0-32-14.4-32-32V32c0-17.6,14.4-32,32-32h224c17.6,0,32,14.4,32,32v448 C400,497.6,385.6,512,368,512z"/> <rect x="135.456" y="50.672" style="fill:#ffffff;" width="241.28" height="372"/> <g> <path style="fill:#D6D6D6;" d="M256.176,489.456c-12.496,0-22.656-10.176-22.656-22.672s10.16-22.672,22.656-22.672 s22.672,10.176,22.672,22.672S268.672,489.456,256.176,489.456z M256.176,452.112c-8.08,0-14.656,6.576-14.656,14.672 s6.576,14.672,14.656,14.672c8.096,0,14.672-6.576,14.672-14.672S264.272,452.112,256.176,452.112z"/> <circle style="fill:#D6D6D6;" cx="256.16" cy="25.328" r="7.792"/> <circle style="fill:#D6D6D6;" cx="312.816" cy="25.328" r="7.792"/> <circle style="fill:#D6D6D6;" cx="337.44" cy="25.328" r="7.792"/> </g> <circle style="fill:#000000;" cx="256" cy="124.368" r="32"/> <g> <path style="fill:#;" d="M254.48,230.768l-30.928-67.04c0,0-32.432,0.432-32.432,30.272s0,36.768,0,36.768 S254.704,230.768,254.48,230.768z"/> <path style="fill:#;" d="M257.52,230.768l30.928-67.04c0,0,32.432,0.432,32.432,30.272s0,36.768,0,36.768 S257.296,230.768,257.52,230.768z"/> </g> <g> <polygon style="fill:#000000;" points="256,163.728 233.728,163.728 256,213.024 278.272,163.728 "/> <polygon style="fill:#000000;" points="256,376.592 217.232,324.528 230.08,314.976 256,349.792 281.92,314.976 294.768,324.528 "/> <rect x="248" y="267.008" style="fill:#000000;" width="16" height="96.16"/> </g> </g>
</svg>